<mxfile host="app.diagrams.net" modified="2022-06-24T22:21:22.841Z" agent="5.0 (X11; Linux x86_64) AppleWebKit/537.36 (KHTML, like Gecko) Chrome/102.0.0.0 Safari/537.36" etag="YcjB7eyw_YPiWQtw_C95" version="20.0.3" type="github">
  <diagram id="C5RBs43oDa-KdzZeNtuy" name="Page-1">
    <mxGraphModel dx="1562" dy="692" grid="1" gridSize="10" guides="1" tooltips="1" connect="1" arrows="1" fold="1" page="1" pageScale="1" pageWidth="827" pageHeight="1169" math="0" shadow="0">
      <root>
        <mxCell id="WIyWlLk6GJQsqaUBKTNV-0" />
        <mxCell id="WIyWlLk6GJQsqaUBKTNV-1" parent="WIyWlLk6GJQsqaUBKTNV-0" />
        <mxCell id="u3Uz-xfAxrAcPL_QBlM--30" style="edgeStyle=orthogonalEdgeStyle;rounded=0;orthogonalLoop=1;jettySize=auto;html=1;exitX=1;exitY=0.5;exitDx=0;exitDy=0;entryX=0.25;entryY=0;entryDx=0;entryDy=0;" parent="WIyWlLk6GJQsqaUBKTNV-1" source="u3Uz-xfAxrAcPL_QBlM--0" target="u3Uz-xfAxrAcPL_QBlM--27" edge="1">
          <mxGeometry relative="1" as="geometry" />
        </mxCell>
        <mxCell id="u3Uz-xfAxrAcPL_QBlM--32" style="edgeStyle=orthogonalEdgeStyle;rounded=0;orthogonalLoop=1;jettySize=auto;html=1;exitX=0.5;exitY=1;exitDx=0;exitDy=0;entryX=0.5;entryY=0;entryDx=0;entryDy=0;" parent="WIyWlLk6GJQsqaUBKTNV-1" source="u3Uz-xfAxrAcPL_QBlM--0" target="u3Uz-xfAxrAcPL_QBlM--7" edge="1">
          <mxGeometry relative="1" as="geometry" />
        </mxCell>
        <mxCell id="u3Uz-xfAxrAcPL_QBlM--34" style="edgeStyle=orthogonalEdgeStyle;rounded=0;orthogonalLoop=1;jettySize=auto;html=1;exitX=0.5;exitY=0;exitDx=0;exitDy=0;entryX=0.5;entryY=1;entryDx=0;entryDy=0;" parent="WIyWlLk6GJQsqaUBKTNV-1" source="u3Uz-xfAxrAcPL_QBlM--0" target="u3Uz-xfAxrAcPL_QBlM--6" edge="1">
          <mxGeometry relative="1" as="geometry" />
        </mxCell>
        <mxCell id="u3Uz-xfAxrAcPL_QBlM--0" value="Clientes" style="swimlane;fontStyle=2;align=left;verticalAlign=top;childLayout=stackLayout;horizontal=1;startSize=26;horizontalStack=0;resizeParent=1;resizeLast=0;collapsible=1;marginBottom=0;rounded=0;shadow=0;strokeWidth=1;" parent="WIyWlLk6GJQsqaUBKTNV-1" vertex="1">
          <mxGeometry x="40" y="550" width="160" height="160" as="geometry">
            <mxRectangle x="230" y="140" width="160" height="26" as="alternateBounds" />
          </mxGeometry>
        </mxCell>
        <mxCell id="PshAYlnj-Nug0vlXpMP3-3" value="idcliente" style="text;html=1;align=left;verticalAlign=middle;resizable=0;points=[];autosize=1;strokeColor=none;fillColor=none;spacing=0;" parent="u3Uz-xfAxrAcPL_QBlM--0" vertex="1">
          <mxGeometry y="26" width="160" height="20" as="geometry" />
        </mxCell>
        <mxCell id="PshAYlnj-Nug0vlXpMP3-4" value="nome" style="text;html=1;align=left;verticalAlign=middle;resizable=0;points=[];autosize=1;strokeColor=none;fillColor=none;spacing=0;" parent="u3Uz-xfAxrAcPL_QBlM--0" vertex="1">
          <mxGeometry y="46" width="160" height="20" as="geometry" />
        </mxCell>
        <mxCell id="PshAYlnj-Nug0vlXpMP3-10" value="status" style="text;html=1;align=left;verticalAlign=middle;resizable=0;points=[];autosize=1;strokeColor=none;fillColor=none;spacing=0;" parent="u3Uz-xfAxrAcPL_QBlM--0" vertex="1">
          <mxGeometry y="66" width="160" height="20" as="geometry" />
        </mxCell>
        <mxCell id="sM1IKNqGirpuvXUhPhgz-3" value="nota" style="text;html=1;align=left;verticalAlign=middle;resizable=0;points=[];autosize=1;strokeColor=none;fillColor=none;spacing=0;" vertex="1" parent="u3Uz-xfAxrAcPL_QBlM--0">
          <mxGeometry y="86" width="160" height="20" as="geometry" />
        </mxCell>
        <mxCell id="PshAYlnj-Nug0vlXpMP3-11" value="datacreate" style="text;html=1;align=left;verticalAlign=middle;resizable=0;points=[];autosize=1;strokeColor=none;fillColor=none;spacing=0;" parent="u3Uz-xfAxrAcPL_QBlM--0" vertex="1">
          <mxGeometry y="106" width="160" height="20" as="geometry" />
        </mxCell>
        <mxCell id="PshAYlnj-Nug0vlXpMP3-12" value="dataupdate" style="text;html=1;align=left;verticalAlign=middle;resizable=0;points=[];autosize=1;strokeColor=none;fillColor=none;spacing=0;" parent="u3Uz-xfAxrAcPL_QBlM--0" vertex="1">
          <mxGeometry y="126" width="160" height="20" as="geometry" />
        </mxCell>
        <mxCell id="u3Uz-xfAxrAcPL_QBlM--37" style="edgeStyle=orthogonalEdgeStyle;rounded=0;orthogonalLoop=1;jettySize=auto;html=1;exitX=0.5;exitY=0;exitDx=0;exitDy=0;entryX=0.5;entryY=0;entryDx=0;entryDy=0;" parent="WIyWlLk6GJQsqaUBKTNV-1" source="u3Uz-xfAxrAcPL_QBlM--6" target="u3Uz-xfAxrAcPL_QBlM--11" edge="1">
          <mxGeometry relative="1" as="geometry">
            <Array as="points">
              <mxPoint x="120" y="230" />
              <mxPoint x="700" y="230" />
            </Array>
          </mxGeometry>
        </mxCell>
        <mxCell id="PshAYlnj-Nug0vlXpMP3-88" style="edgeStyle=orthogonalEdgeStyle;rounded=0;orthogonalLoop=1;jettySize=auto;html=1;exitX=1;exitY=0;exitDx=0;exitDy=0;entryX=-0.004;entryY=0.479;entryDx=0;entryDy=0;entryPerimeter=0;" parent="WIyWlLk6GJQsqaUBKTNV-1" source="u3Uz-xfAxrAcPL_QBlM--6" target="PshAYlnj-Nug0vlXpMP3-82" edge="1">
          <mxGeometry relative="1" as="geometry">
            <Array as="points">
              <mxPoint x="267" y="260" />
              <mxPoint x="267" y="376" />
              <mxPoint x="333" y="376" />
            </Array>
          </mxGeometry>
        </mxCell>
        <mxCell id="u3Uz-xfAxrAcPL_QBlM--6" value="Pedidos" style="swimlane;fontStyle=2;align=center;verticalAlign=top;childLayout=stackLayout;horizontal=1;startSize=26;horizontalStack=0;resizeParent=1;resizeLast=0;collapsible=1;marginBottom=0;rounded=0;shadow=0;strokeWidth=1;" parent="WIyWlLk6GJQsqaUBKTNV-1" vertex="1">
          <mxGeometry x="40" y="260" width="160" height="186" as="geometry">
            <mxRectangle x="230" y="140" width="160" height="26" as="alternateBounds" />
          </mxGeometry>
        </mxCell>
        <mxCell id="PshAYlnj-Nug0vlXpMP3-5" value="idpedido" style="text;html=1;align=left;verticalAlign=middle;resizable=0;points=[];autosize=1;strokeColor=none;fillColor=none;spacing=0;" parent="u3Uz-xfAxrAcPL_QBlM--6" vertex="1">
          <mxGeometry y="26" width="160" height="20" as="geometry" />
        </mxCell>
        <mxCell id="PshAYlnj-Nug0vlXpMP3-6" value="codigo" style="text;html=1;align=left;verticalAlign=middle;resizable=0;points=[];autosize=1;strokeColor=none;fillColor=none;spacing=0;" parent="u3Uz-xfAxrAcPL_QBlM--6" vertex="1">
          <mxGeometry y="46" width="160" height="20" as="geometry" />
        </mxCell>
        <mxCell id="PshAYlnj-Nug0vlXpMP3-8" value="status" style="text;html=1;align=left;verticalAlign=middle;resizable=0;points=[];autosize=1;strokeColor=none;fillColor=none;spacing=0;" parent="u3Uz-xfAxrAcPL_QBlM--6" vertex="1">
          <mxGeometry y="66" width="160" height="20" as="geometry" />
        </mxCell>
        <mxCell id="PshAYlnj-Nug0vlXpMP3-7" value="datacreate" style="text;html=1;align=left;verticalAlign=middle;resizable=0;points=[];autosize=1;strokeColor=none;fillColor=none;spacing=0;" parent="u3Uz-xfAxrAcPL_QBlM--6" vertex="1">
          <mxGeometry y="86" width="160" height="20" as="geometry" />
        </mxCell>
        <mxCell id="PshAYlnj-Nug0vlXpMP3-9" value="dataupdate" style="text;html=1;align=left;verticalAlign=middle;resizable=0;points=[];autosize=1;strokeColor=none;fillColor=none;spacing=0;" parent="u3Uz-xfAxrAcPL_QBlM--6" vertex="1">
          <mxGeometry y="106" width="160" height="20" as="geometry" />
        </mxCell>
        <mxCell id="PshAYlnj-Nug0vlXpMP3-60" value="fk_idcliente" style="text;html=1;align=left;verticalAlign=middle;resizable=0;points=[];autosize=1;strokeColor=none;fillColor=none;spacing=0;" parent="u3Uz-xfAxrAcPL_QBlM--6" vertex="1">
          <mxGeometry y="126" width="160" height="20" as="geometry" />
        </mxCell>
        <mxCell id="PshAYlnj-Nug0vlXpMP3-94" value="fk_idreserva" style="text;html=1;align=left;verticalAlign=middle;resizable=0;points=[];autosize=1;strokeColor=none;fillColor=none;spacing=0;" parent="u3Uz-xfAxrAcPL_QBlM--6" vertex="1">
          <mxGeometry y="146" width="160" height="20" as="geometry" />
        </mxCell>
        <mxCell id="PshAYlnj-Nug0vlXpMP3-0" style="edgeStyle=orthogonalEdgeStyle;rounded=0;orthogonalLoop=1;jettySize=auto;html=1;exitX=1;exitY=0;exitDx=0;exitDy=0;entryX=0;entryY=1;entryDx=0;entryDy=0;" parent="WIyWlLk6GJQsqaUBKTNV-1" source="u3Uz-xfAxrAcPL_QBlM--7" target="u3Uz-xfAxrAcPL_QBlM--27" edge="1">
          <mxGeometry relative="1" as="geometry">
            <Array as="points">
              <mxPoint x="200" y="930" />
              <mxPoint x="300" y="930" />
            </Array>
          </mxGeometry>
        </mxCell>
        <mxCell id="u3Uz-xfAxrAcPL_QBlM--7" value="Atendentes" style="swimlane;fontStyle=2;align=center;verticalAlign=top;childLayout=stackLayout;horizontal=1;startSize=26;horizontalStack=0;resizeParent=1;resizeLast=0;collapsible=1;marginBottom=0;rounded=0;shadow=0;strokeWidth=1;" parent="WIyWlLk6GJQsqaUBKTNV-1" vertex="1">
          <mxGeometry x="40" y="970" width="160" height="160" as="geometry">
            <mxRectangle x="230" y="140" width="160" height="26" as="alternateBounds" />
          </mxGeometry>
        </mxCell>
        <mxCell id="PshAYlnj-Nug0vlXpMP3-15" value="idatendente" style="text;html=1;align=left;verticalAlign=middle;resizable=0;points=[];autosize=1;strokeColor=none;fillColor=none;spacing=0;" parent="u3Uz-xfAxrAcPL_QBlM--7" vertex="1">
          <mxGeometry y="26" width="160" height="20" as="geometry" />
        </mxCell>
        <mxCell id="PshAYlnj-Nug0vlXpMP3-16" value="nome" style="text;html=1;align=left;verticalAlign=middle;resizable=0;points=[];autosize=1;strokeColor=none;fillColor=none;spacing=0;" parent="u3Uz-xfAxrAcPL_QBlM--7" vertex="1">
          <mxGeometry y="46" width="160" height="20" as="geometry" />
        </mxCell>
        <mxCell id="PshAYlnj-Nug0vlXpMP3-17" value="status" style="text;html=1;align=left;verticalAlign=middle;resizable=0;points=[];autosize=1;strokeColor=none;fillColor=none;spacing=0;" parent="u3Uz-xfAxrAcPL_QBlM--7" vertex="1">
          <mxGeometry y="66" width="160" height="20" as="geometry" />
        </mxCell>
        <mxCell id="PshAYlnj-Nug0vlXpMP3-19" value="dataupdate" style="text;html=1;align=left;verticalAlign=middle;resizable=0;points=[];autosize=1;strokeColor=none;fillColor=none;spacing=0;" parent="u3Uz-xfAxrAcPL_QBlM--7" vertex="1">
          <mxGeometry y="86" width="160" height="20" as="geometry" />
        </mxCell>
        <mxCell id="PshAYlnj-Nug0vlXpMP3-18" value="datacreate" style="text;html=1;align=left;verticalAlign=middle;resizable=0;points=[];autosize=1;strokeColor=none;fillColor=none;spacing=0;" parent="u3Uz-xfAxrAcPL_QBlM--7" vertex="1">
          <mxGeometry y="106" width="160" height="20" as="geometry" />
        </mxCell>
        <mxCell id="PshAYlnj-Nug0vlXpMP3-2" style="edgeStyle=orthogonalEdgeStyle;rounded=0;orthogonalLoop=1;jettySize=auto;html=1;exitX=1;exitY=0.5;exitDx=0;exitDy=0;entryX=1;entryY=0.5;entryDx=0;entryDy=0;" parent="WIyWlLk6GJQsqaUBKTNV-1" source="u3Uz-xfAxrAcPL_QBlM--8" target="u3Uz-xfAxrAcPL_QBlM--11" edge="1">
          <mxGeometry relative="1" as="geometry">
            <Array as="points">
              <mxPoint x="800" y="1073" />
              <mxPoint x="800" y="315" />
            </Array>
          </mxGeometry>
        </mxCell>
        <mxCell id="u3Uz-xfAxrAcPL_QBlM--8" value="Ingredientes" style="swimlane;fontStyle=2;align=center;verticalAlign=top;childLayout=stackLayout;horizontal=1;startSize=26;horizontalStack=0;resizeParent=1;resizeLast=0;collapsible=1;marginBottom=0;rounded=0;shadow=0;strokeWidth=1;" parent="WIyWlLk6GJQsqaUBKTNV-1" vertex="1">
          <mxGeometry x="570" y="990" width="160" height="166" as="geometry">
            <mxRectangle x="230" y="140" width="160" height="26" as="alternateBounds" />
          </mxGeometry>
        </mxCell>
        <mxCell id="PshAYlnj-Nug0vlXpMP3-42" value="idingrediente" style="text;html=1;align=left;verticalAlign=middle;resizable=0;points=[];autosize=1;strokeColor=none;fillColor=none;spacing=0;" parent="u3Uz-xfAxrAcPL_QBlM--8" vertex="1">
          <mxGeometry y="26" width="160" height="20" as="geometry" />
        </mxCell>
        <mxCell id="PshAYlnj-Nug0vlXpMP3-43" value="nome" style="text;html=1;align=left;verticalAlign=middle;resizable=0;points=[];autosize=1;strokeColor=none;fillColor=none;spacing=0;" parent="u3Uz-xfAxrAcPL_QBlM--8" vertex="1">
          <mxGeometry y="46" width="160" height="20" as="geometry" />
        </mxCell>
        <mxCell id="PshAYlnj-Nug0vlXpMP3-48" value="descricao" style="text;html=1;align=left;verticalAlign=middle;resizable=0;points=[];autosize=1;strokeColor=none;fillColor=none;spacing=0;" parent="u3Uz-xfAxrAcPL_QBlM--8" vertex="1">
          <mxGeometry y="66" width="160" height="20" as="geometry" />
        </mxCell>
        <mxCell id="PshAYlnj-Nug0vlXpMP3-44" value="status" style="text;html=1;align=left;verticalAlign=middle;resizable=0;points=[];autosize=1;strokeColor=none;fillColor=none;spacing=0;" parent="u3Uz-xfAxrAcPL_QBlM--8" vertex="1">
          <mxGeometry y="86" width="160" height="20" as="geometry" />
        </mxCell>
        <mxCell id="PshAYlnj-Nug0vlXpMP3-46" value="datacreate" style="text;html=1;align=left;verticalAlign=middle;resizable=0;points=[];autosize=1;strokeColor=none;fillColor=none;spacing=0;" parent="u3Uz-xfAxrAcPL_QBlM--8" vertex="1">
          <mxGeometry y="106" width="160" height="20" as="geometry" />
        </mxCell>
        <mxCell id="PshAYlnj-Nug0vlXpMP3-45" value="dataupdate" style="text;html=1;align=left;verticalAlign=middle;resizable=0;points=[];autosize=1;strokeColor=none;fillColor=none;spacing=0;" parent="u3Uz-xfAxrAcPL_QBlM--8" vertex="1">
          <mxGeometry y="126" width="160" height="20" as="geometry" />
        </mxCell>
        <mxCell id="u3Uz-xfAxrAcPL_QBlM--9" value="Mesas&#xa;" style="swimlane;fontStyle=2;align=center;verticalAlign=top;childLayout=stackLayout;horizontal=1;startSize=26;horizontalStack=0;resizeParent=1;resizeLast=0;collapsible=1;marginBottom=0;rounded=0;shadow=0;strokeWidth=1;" parent="WIyWlLk6GJQsqaUBKTNV-1" vertex="1">
          <mxGeometry x="495" y="445" width="150" height="160" as="geometry">
            <mxRectangle x="230" y="140" width="160" height="26" as="alternateBounds" />
          </mxGeometry>
        </mxCell>
        <mxCell id="PshAYlnj-Nug0vlXpMP3-30" value="idmesa" style="text;html=1;align=left;verticalAlign=middle;resizable=0;points=[];autosize=1;strokeColor=none;fillColor=none;spacing=0;" parent="u3Uz-xfAxrAcPL_QBlM--9" vertex="1">
          <mxGeometry y="26" width="150" height="20" as="geometry" />
        </mxCell>
        <mxCell id="PshAYlnj-Nug0vlXpMP3-29" value="numcadeiras" style="text;html=1;align=left;verticalAlign=middle;resizable=0;points=[];autosize=1;strokeColor=none;fillColor=none;spacing=0;" parent="u3Uz-xfAxrAcPL_QBlM--9" vertex="1">
          <mxGeometry y="46" width="150" height="20" as="geometry" />
        </mxCell>
        <mxCell id="PshAYlnj-Nug0vlXpMP3-28" value="status" style="text;html=1;align=left;verticalAlign=middle;resizable=0;points=[];autosize=1;strokeColor=none;fillColor=none;spacing=0;" parent="u3Uz-xfAxrAcPL_QBlM--9" vertex="1">
          <mxGeometry y="66" width="150" height="20" as="geometry" />
        </mxCell>
        <mxCell id="PshAYlnj-Nug0vlXpMP3-27" value="dataupdate" style="text;html=1;align=left;verticalAlign=middle;resizable=0;points=[];autosize=1;strokeColor=none;fillColor=none;spacing=0;" parent="u3Uz-xfAxrAcPL_QBlM--9" vertex="1">
          <mxGeometry y="86" width="150" height="20" as="geometry" />
        </mxCell>
        <mxCell id="PshAYlnj-Nug0vlXpMP3-32" value="datacreate" style="text;html=1;align=left;verticalAlign=middle;resizable=0;points=[];autosize=1;strokeColor=none;fillColor=none;spacing=0;" parent="u3Uz-xfAxrAcPL_QBlM--9" vertex="1">
          <mxGeometry y="106" width="150" height="20" as="geometry" />
        </mxCell>
        <mxCell id="PshAYlnj-Nug0vlXpMP3-121" style="edgeStyle=orthogonalEdgeStyle;rounded=0;orthogonalLoop=1;jettySize=auto;html=1;exitX=0.5;exitY=0;exitDx=0;exitDy=0;entryX=0.239;entryY=0.945;entryDx=0;entryDy=0;entryPerimeter=0;" parent="WIyWlLk6GJQsqaUBKTNV-1" source="u3Uz-xfAxrAcPL_QBlM--10" target="PshAYlnj-Nug0vlXpMP3-107" edge="1">
          <mxGeometry relative="1" as="geometry" />
        </mxCell>
        <mxCell id="u3Uz-xfAxrAcPL_QBlM--10" value="Status" style="ellipse;whiteSpace=wrap;html=1;" parent="WIyWlLk6GJQsqaUBKTNV-1" vertex="1">
          <mxGeometry x="235" y="1048" width="120" height="50" as="geometry" />
        </mxCell>
        <mxCell id="PshAYlnj-Nug0vlXpMP3-92" style="edgeStyle=orthogonalEdgeStyle;rounded=0;orthogonalLoop=1;jettySize=auto;html=1;exitX=0;exitY=1;exitDx=0;exitDy=0;entryX=1.009;entryY=0.755;entryDx=0;entryDy=0;entryPerimeter=0;" parent="WIyWlLk6GJQsqaUBKTNV-1" source="u3Uz-xfAxrAcPL_QBlM--11" target="PshAYlnj-Nug0vlXpMP3-83" edge="1">
          <mxGeometry relative="1" as="geometry">
            <Array as="points">
              <mxPoint x="557" y="380" />
              <mxPoint x="557" y="361" />
            </Array>
          </mxGeometry>
        </mxCell>
        <mxCell id="u3Uz-xfAxrAcPL_QBlM--11" value="Cardapios" style="swimlane;fontStyle=2;align=center;verticalAlign=top;childLayout=stackLayout;horizontal=1;startSize=26;horizontalStack=0;resizeParent=1;resizeLast=0;collapsible=1;marginBottom=0;rounded=0;shadow=0;strokeWidth=1;" parent="WIyWlLk6GJQsqaUBKTNV-1" vertex="1">
          <mxGeometry x="620" y="250" width="160" height="146" as="geometry">
            <mxRectangle x="230" y="140" width="160" height="26" as="alternateBounds" />
          </mxGeometry>
        </mxCell>
        <mxCell id="PshAYlnj-Nug0vlXpMP3-23" value="idcardapio" style="text;html=1;align=left;verticalAlign=middle;resizable=0;points=[];autosize=1;strokeColor=none;fillColor=none;spacing=0;" parent="u3Uz-xfAxrAcPL_QBlM--11" vertex="1">
          <mxGeometry y="26" width="160" height="20" as="geometry" />
        </mxCell>
        <mxCell id="sM1IKNqGirpuvXUhPhgz-4" value="nome" style="text;html=1;align=left;verticalAlign=middle;resizable=0;points=[];autosize=1;strokeColor=none;fillColor=none;spacing=0;" vertex="1" parent="u3Uz-xfAxrAcPL_QBlM--11">
          <mxGeometry y="46" width="160" height="20" as="geometry" />
        </mxCell>
        <mxCell id="PshAYlnj-Nug0vlXpMP3-31" value="valor" style="text;html=1;align=left;verticalAlign=middle;resizable=0;points=[];autosize=1;strokeColor=none;fillColor=none;spacing=0;" parent="u3Uz-xfAxrAcPL_QBlM--11" vertex="1">
          <mxGeometry y="66" width="160" height="20" as="geometry" />
        </mxCell>
        <mxCell id="PshAYlnj-Nug0vlXpMP3-24" value="status" style="text;html=1;align=left;verticalAlign=middle;resizable=0;points=[];autosize=1;strokeColor=none;fillColor=none;spacing=0;" parent="u3Uz-xfAxrAcPL_QBlM--11" vertex="1">
          <mxGeometry y="86" width="160" height="20" as="geometry" />
        </mxCell>
        <mxCell id="PshAYlnj-Nug0vlXpMP3-26" value="dataupdate" style="text;html=1;align=left;verticalAlign=middle;resizable=0;points=[];autosize=1;strokeColor=none;fillColor=none;spacing=0;" parent="u3Uz-xfAxrAcPL_QBlM--11" vertex="1">
          <mxGeometry y="106" width="160" height="20" as="geometry" />
        </mxCell>
        <mxCell id="PshAYlnj-Nug0vlXpMP3-25" value="datacreate" style="text;html=1;align=left;verticalAlign=middle;resizable=0;points=[];autosize=1;strokeColor=none;fillColor=none;spacing=0;" parent="u3Uz-xfAxrAcPL_QBlM--11" vertex="1">
          <mxGeometry y="126" width="160" height="20" as="geometry" />
        </mxCell>
        <mxCell id="PshAYlnj-Nug0vlXpMP3-123" style="edgeStyle=orthogonalEdgeStyle;rounded=0;orthogonalLoop=1;jettySize=auto;html=1;exitX=0.5;exitY=0;exitDx=0;exitDy=0;" parent="WIyWlLk6GJQsqaUBKTNV-1" source="u3Uz-xfAxrAcPL_QBlM--12" target="PshAYlnj-Nug0vlXpMP3-107" edge="1">
          <mxGeometry relative="1" as="geometry" />
        </mxCell>
        <mxCell id="u3Uz-xfAxrAcPL_QBlM--12" value="Hora data reserva" style="ellipse;whiteSpace=wrap;html=1;" parent="WIyWlLk6GJQsqaUBKTNV-1" vertex="1">
          <mxGeometry x="385" y="1048" width="110" height="50" as="geometry" />
        </mxCell>
        <mxCell id="PshAYlnj-Nug0vlXpMP3-122" style="edgeStyle=orthogonalEdgeStyle;rounded=0;orthogonalLoop=1;jettySize=auto;html=1;exitX=0.5;exitY=0;exitDx=0;exitDy=0;entryX=0.395;entryY=0.945;entryDx=0;entryDy=0;entryPerimeter=0;" parent="WIyWlLk6GJQsqaUBKTNV-1" source="u3Uz-xfAxrAcPL_QBlM--13" target="PshAYlnj-Nug0vlXpMP3-107" edge="1">
          <mxGeometry relative="1" as="geometry" />
        </mxCell>
        <mxCell id="u3Uz-xfAxrAcPL_QBlM--13" value="Hora data reserva" style="ellipse;whiteSpace=wrap;html=1;" parent="WIyWlLk6GJQsqaUBKTNV-1" vertex="1">
          <mxGeometry x="310" y="1106" width="110" height="50" as="geometry" />
        </mxCell>
        <mxCell id="u3Uz-xfAxrAcPL_QBlM--19" value="" style="shape=image;verticalLabelPosition=bottom;labelBackgroundColor=default;verticalAlign=top;aspect=fixed;imageAspect=0;image=data:image/png,iVBORw0KGgoAAAANSUhEUgAAAggAAACJCAYAAABJj8A3AAAAAXNSR0IArs4c6QAAIABJREFUeF7snQd4FcX6/z+7p6RXQkIICSUBQu8oRZBeVRRpIlVE6U2R3qtdUUBQRKkCSi9SBOm9hJIACRB6gARIT845u/9n9pxw0ev95f7v7977+DOzz3OelDO7O/OZmff9zjuzs8po/zE68pAEJAFJQBKQBCQBSeApAooUCLI9SAKSgCQgCUgCksDvCUiBINuEJCAJSAKSgCQgCfwdASkQZKOQBCQBSUASkAQkASkQZBuQBCQBSUASkAQkgfwJyAhC/oxkCklAEpAEJAFJoMARkAKhwFW5LPATAv/M8ztKAeQluPyVyp1Xz3+lMhXAZimL/N8nIAXCf5+5vOOfgICigfg8fWiGV3zai+hg0v9azvJ37HUUxEccqubypILLX6ncdle9mjUwuSrdof4JWqHMgiTw5yYgBcKfu35k7v5DBP5IIOj6b52G4S6FU8k7/oIj0DyBoOs6irurgFkOp2RQQFH+g4X+T0cq8q4vBIKuoFg1HLod3aGjKmYUVfz/LxYt+Q/1F3nZgklACoSCWe+y1JqGzSMHa67ZGEHrigp2s8FF0zQQg02TAtliMK2guWnolv/72PI0UMkKxbEGm7CbFS7tjUcIhNdmdCCsSjHuXbjHijHLIU0Fl2bS86IL/w4EdgVFN3y2U4CJn8Yf/8ZDU9A9FCKbRKApGlcOXIU7Ci9MaUvZxmV5eP0R3w5ehJ4hQidOoSDyJA9JQBJ4akwkN0qSzaEgEjC5KbQY2QTMChePXyR2bzymNHdj2kEMmj0KudGsb2N0B2ycvQlTporm+Qce5P/YCFRzaiBGfjeEwAbBhmMcVu4dLCYLs0/PAC8Fx2M7H7aYRcaVbHRXes3x7/Geiq7gYfIy8mDXbORqOU6B8G/WB6gqerCJmYcnGSJnbLPxaBd1JsSMxSPEwwgczGn2Kbdj7hlt4I8iSgWxX8gySwJPE5ARBNkeCiQBi7+JycemQCDYH9mZ8OJk7JdAtYnRrIZvtAdjdo4DEwytMhyvG17o7g5nSFp4M9U1BBZqIm90/bSTE2FtkUZ8RBrxw+5yhKr+1IDZdZLL/z4ZxYpTxDqAp/yyGGQrmtOZPRlw/96xGtF03bW+4rfXNqIjrijI4O/fpGjj4uBQGFl5NFomdP+yIxUbVeH8r2dZOnAZlmQ3dIuCYtLQ8sooymN4dxFdyMu0uPA/9vFPBwf8iwQwbPsQVE+VKz9cYdHo7xCiAbPDNafhYiPKqYvIjvMeRkn+SIz9gW4xqkQBR5iJ9w9PMU4e1XwM+mWdppMb07RXUy6dTeDb9l+jPLKgmzRUkf8/uJbDDCYbKK7s5fErkJ1GFrrAEZACocBVuSywIGDxV5l8YioEOJ1b6rVUZnb8DNutHFS7jmcFDybtGotYuDiw+mACrnmjWBwiKQ6TirUQWD28yMjMQUu1Y85QUHMVNE+np9SzLSh+DrxCrVg8LaQ/zkC7b0PNECJExe6mg4eKm78bXh6eZGRkkJOVA6k6ao6KbtFxuOuGSLD4WvD09iIjN4fcu7m4papORy/0g/m30Xnxt8OsoygaiqLj5euFu5s76alp5GTlgt1kLNQbtLg/Yc0iIAdGVxmFI8UMwTnYi+iYHuZiSfACmxu6m45itaN6Kfj4eJOlp5P5KBc13YrJrqALsWO1Y/U1o9l1HHbhScEvOADN5iA15RF6rtkos27V8Crlw3s738HiZeHsuvMsHLEMjywdS66zXWom0Lx1PL18jIKlpWag5GLwFWLNWDyZdwj9JTSbCg6rhu5hx83DDS9vbx4lP0b3NTPr0FTjvFFNR2E94k5W2XT0wqDlqFguWlAdFsw+OqoFFMtTekwHm91Brk3D067gYbGSkZqJpohM/LvDHbJPSgJ/TgJSIPw560Xm6j9M4DcCQXhau8LVY9eZO3QB+nUdr7KeTDYEAgyoOYjAqz4obg4iKhWnwagmRNcsAxYF7HA19ho75uzgxvrrONwcmNxVqvepTcuezfEIcnc6NhskXb/L5o82E78ujvJtKtFyeCuCogs7vZId0lIec2LpcXZ+uh3dCkXKh9J0YDPKNiyH6qGi5+rcunSTn+dtJmFtIoqIdljV30zf6+jkejmo0r46bfo2pVBYIeP+tiwbZw+eZsvkbaTfzGLQkn6ENQ831liMrvIeWrIb/df0oVjNcOzJuUysNxElxYpbSQut32lJ1bZVsHpbjXLcvnaHzfO2cW3VFciFMk1K0GPhG2CGQ78eonzlcviF+YtADI+vPmL1+2tI2B1P1TZVaT64OYFRgUbYPzstm8c30tg5byuxq+IMB12/33PU61Yf7yI+6IpG2r10flm+m72L9mG9Z0EVa0Xy/HOeQNB1ojuUp/XQlhQqGWR8n3o3lfWLN9Ft4msG3/eajMLtiAcdv2tPxRcqQhqMqfcu0c9XpPsHPZx19Du/n5uby8iWQ3h7ygDKPl+RG+evs+DlhWiZ/0O45D/cbuXlJYH/JgEpEP6btOW9/jQErH4mJp2eAn46uq6h6CbQdX759hc2ztyMb7EgJu8aI3SDIRCCbvpTsmI4fTb1RffQjYWMYl7eZDGhCM+So/NBv5mkbE6jYe+GtJrcEqwatkwHDocDk8mMRTcxp++n3LuezNTt09AsGjbdjpIFilXBrCisHrOGM/PPEVinCCPWDgRP51SDPdOO2cOMogs1oTO910yytqeiO8zoIp6ed6g6L01swzNv1kN3By3bYSxANJtNaFYHWRdtTKo/lWHf96NoS5dAqOwUCAO39SG8RjFyMnMZFzEBq6cbk/dMxFzSjB0NLduOqimYPS1G1GVKp0nk/JJLdONIuq1+w+lgxYjeoRsLA21WE24OMVp3MKvLLMqVLUe78e1QvZ0rH22ahpqjs/KT5cQsOEufL3tTunm0Ma1gc9jEIgUs7lZQVHYv3cPOIduN6Mpv1oLYIPyZcN7+4S0UHwW7w2YIJiEkTCaTcw2FTWdU49GocfDa0q5Et6iElgoTqo2iTNPSdP+ou7EAVUzd5J0n8pd1P5NJL41h6o7ZWPzcsNvsvF93Nlkx2eChGdEOeUgCf2UCUiD8lWtXlu0fEnhaIJw9GkNUWBQeoV7GKH3Tp5s4syuOcVvfNQRC/9qDKHw9kDcX96JE4xKGA1s0aRGXz9zCL8yDgVP64VPIm5z0bGbVn07LYa2o2bcuWqad0S9PQE024+XtQWiJIC4fvEzFxhXpMac7Wq6D8d3Hol03Y/aCsBLFSNifiOmhyhvf9aV0y+LG6Hfp1G+5eDQR3xAf3pr+Jr5h3mgZMKHeOPSbQtc4BYIQKz5B3gzfNwyzr4WUW8nMHzuX3GQ71RvXoO3bbVk7bwMH5h5ixFf9CGshphhURlV6D10IhJ/7EF69mDEVMaXkFOp1q0frmW2M0fXC8d8Qv+8yvmYzXaf1pESdKLJuZzK1+VTKRUfRbc0bRh6ykzJZMmMxd68l07b3i1RrU8U4/6tBX3H90C2KVi/G21+8gcnNxIXdF9j4wQYep6ZRNjKKHl/3MtL+smwPWxZuR9VNtH2jFQ1er2MM7z9t/Rkpu5Nx+DiMaQXBRvVUGLphKEGVgsjNzOX7aUu4dv4qIRFF6D+rHyY/E7pdZ1ST0ShxOl2Xve4UCI9hfLXRuGebsRa1olsdaH42+s8eTOHIEEOcLBj9NZd+iaPz1K7UeKkGZw6dYWW3HzDfMaF7aAhNKQ9J4K9MQAqEv3LtyrL9Y4Hga2LSmSnofnBw0z72z9/LsO/ewerjRm56Lt/NWsGbM3qINXz0rz2QwCsBzLw+Fdwhdm8M84d8i+mRFazQdXwHanStia46mPfCZ1RsXJXnRjQ21ibeOn+HpAv3SLx4nWtHr3H/cDLBtQMZumawMY2QevMhiTE3uXnpBtfOXCP+wE3M6TrvX5mJ7gUX951nfs+FWG0exnP8Ld5pRuM3mxrOcXH3RVzeFu/c6EjVUcwKQaUKM2z/UOP7RSMWcmF9HGZMOMwmPIM8jGkM99ueDFz9pjOCkKMwuvJItBQrA7e9SXj1cEMgTCgxid6f9qLsa2WNqMC2b39GTVew2HQiakYQ2bAcmkPj87YfUsg3kG4/9DGc+7Y5W9g1ezvu2Z4QZmHKoUlGdGThsAXErr1MQHgwY7YPx+Rp4vzaGJb0WYFmVmnwVm3aTnsRzaHwy7JfIEU11iBY/VUadH3OuPbSESuJ+yIO3dtmCASxqNC3qA/D9o3AGmjh8pHLzOvxFe6Z7jjMDur2rctL77xgTHUYAuECdF3+GuVaVEJP1ZhQaSxKqljAgLEA9cUpL1CnZz0jEvLTJ6vZv+gg5kyzMW3k5e9Oamoa7o+9UTNNKGbdKVLkIQn8hQlIgfAXrlxZtH9MwOJnZvKZyWi+cGjjQbYMW09kizL0mN0Tk7vJcBpiTl0E9PvVGkDI/VAmXxoHFtg0/yd+mXMIjyQrOHRenvgCNYc+i67amPfyl9xKSOHtJf0IjgrE4m5BNTYTUCALNo/fyp71B+g6uwNlmpc2FuuJ8L9wYiLdiWWn+WHKCt4/NxvNE7Z+vZ6dk/ZjzrVg1h00G9mUxsOaGflb/fZSTq+9gK4o6GYNTdUJLRfK0F1DjIyPaDEc6ylvNI9cdLvJmGZHtWN+6Ea/tS6BINYgVHsXLcWNAVvfJKJ6BDmZOUwsP5lRS0bi3yDAuFd2VrYTpnOGw7kQE41v3vgcH6UQPZa/aTjxte+v48jEg7jZ3ckMsfH+xRkobkIgLCTux8sEFA9i9M8jMHkLgXCapW8vh1wr9QbUpO20dsalcx/nGIsff//448ppPxH7zQVUHCgO1dj5MSDMjyGHRmDyM3N6ewxL+y7BI90Nh+rAVNudaT9NFDNHjGwyFvM5ja7Lu1K+ZUW0NBsTKkzAYVOwe9hp0rUxrd9raSwOPbH5EEsm/ohnsjuqTUEXz7q6Hvc08pTjesJCCgRpYv7iBKRA+ItXsCzeHxPIEwgOXziy8RAbB6wn3ZJN+9HteL5HA8Rz9IYT1J0Cwe9GALMvTQM/yL6RyejWE/B44GbM8fdZ/AZRbaNwKDl81vQzEq/cxxEE/oFeePm6E16uKJ2HdMBUyJ2EI1eY3/k7bF7p+Ba14uPlQ0DhQNoOaEdo5aLGYsWpzcYzfu1UHIXBfjOLUfXHY7JZMOOg00edqPZqDcNpz2//BTf23/6bQFB0gkoG8e7+d4xCH151iHUjt6CpuXj7+lGv7bPsWvUz6l0r/X/q+7c1CH8gEMaWHM/L49pRb1A9sOvM7vEBaffTUcUWxbpY9W8iXbVjvaIRXakk3Ve9YQiEde+v4/CEg1htbmQVtfN+3G8FQqBLIKg+Js6tPcWSt1dArpnKncrRdV43Y1Homg9+4OzuGBRNNR51NJvN2LMc5CZrqHFiAySxi5UutA5ehdwZcmwE7oU9SYq9y6ftPsX0SMWhOBi2fjhFqoX8oUAgw864CuPJ1XX8awYycsEwrD4Wrpy9wty3vsB01xs1V2w/7aBwqcJEPhNlTDGk305DzVKNdScygiCty1+dgBQIf/UaluX7QwJPC4TDGw+yYdAGlFwTJg+dLlM6UrFjVcPhicf/+9cagPc9f1pMbkqjN57DbDdz6ehlrp+5Q6HgAKq1qARuOnGnL7Oo1WKqtK/K833qErv3HLev3zcW9XV851XMASoX98ez9J0lDJjXj4tH47hz+TY2h52GHRoQUauU4fgnNBpN3U5NaD6sqeGkrp1I5PLZBPyDfKjVuha461yNSWRu+y+wplidO0GanXPibl5uvLNhBD6RPtjtNo5sOkLW/WzK1Y4mrGJRki7f4/2XP2D4vMGEtSjufIrhjyIIpacQ9Vxp+izpaew0eCf+Nse2nMaWbiO6ehRB4YX4dMAnmI+qlG4TRXexBuF3AiGjSC4fXJqF6oogxK65hGeID2N2vINnkCcPr6ewf+EBslIzuXQinlE/j8bkoZCRlMHJDSdIu5tKkVJFKNewHIvfW8St3XdQU0zGIkXhnFWHUyx0WdyVii3LgU0h/uAlEs9cI7R0Uco3rWQ8LSECAH8fQchlQqWJBIUVZtDGwVj8zWgOO1t//BlTotnYb8Km6Rxatp9hq4cQVCqI3NQcZjaehf16DppJkWsQpG35yxOQAuEvX8WygH9EwBAIpyfj8IMjmw6yfuB6w+GIfQI8Az0YsKofgWULGRvuCIHgnxBIVqkshs0bTPHK4cYjeU+2CNZ1rsXe4IO35+B90Z0ec16nfKeyT7YpztvsKOtxGmtmrqZE0Ujq92tgrFHA4nquXwdHlsah1QdZP2ETehAMXTCQotWKIcarzvC+CLurXL+QwIwhswk4H4AqtooWTtAlEERoPqhkAH2/fhu/SL8no1zxSibNnsPWOVvYPX8vQ78cSrHmJZwCofq7aA+tDNjSl4hqEeRk5DCxzBQcmkbDEfVp0q8FHt5izsUiNoEAh4YtPZcdn23nyPuHiWolFin2fiIQDokpBpsbmSG5vH9xFqq7wtdDFxK75jK4mejxSRcqvSCct4KSA7pNZ1CT4ZQqV5Q3Z72Fd6APitjmWoT1BRfNwflfYlnZaxmmZBOa2B/CCO+LjZQUckvkMHzRIIqWD0c3O+dAxAg/9cFD/AICjKc83msyFvW8xuvLnFMMpDsYW2ksldtUossnXcGaN3fi2gtBPNmSaWJkq7GMXzUWnwBPbDl2ZtWbRe6VLGPdhLGRlTwkgb8wASkQ/sKVK4v2jwmIR+KajWqG2Dfg1vFELmyLRRGbCGmKIQosRU00fLu+MVLc+v423JPccYidFD0hqHYw9drWJiwyjFt3bnNy6wkSj9yAdFBzTVj8LBRvWYyKdSpQNDwMW3YuF09e4PCuE6QlpOHmaaFE5RJUeKYiJaoUR9McXLuQwOHtx7l35gFu6RbD0Wk+NopEh1P75VoUL1OC27dvE7P7NBeOnsd6x4op3ercJekPXkKphKpEto2ieqMq+Hj7cikmgT1b95OT8BCTzUSt9vXwj/LDlKuwff4mHDadmh2epVB4EJYHKjs/2WHslmj3s2GKMFPnhVqUrVYOD6s7l45d4PD2ozy6moopw0Jg0UBq9XkGzDqxW2K5sfum4fhVP5VmoxsZCzlPrjnFveOPjOxqgdnUbFSDmp1qYzKbObbnGPvXHMOcraEWUajyTFUqNahEUEghEuNucHjnYa7EXcE70Qs117UPwlNPdgpW9hCdCvXKUfuVmnh4unHq4CmOHDxC8xdbInZz3r5oC/ZsB1Vb16RoVKjxZMOGhZsIiyxK7WY1XXtJ/M7h67Bx8RbKVommeYcmbF+zg+s/XTMetTQOuV+SNDF/cQJSIPzFK1gW748JiF0PTYoIK2toYsQpNj0SI0KxOE4sTLNjLPrTLA5MDtXYalc8dSAeKbS5i937bIZzFnPyCg7EbgjimsYbIU1iF0QNXbz0SRziZUBiEaKuomSJxXV5Tl2MhDUjiiB2GdTFS4xyTah2xViAp4j7OzULmpj3dxdz63ZjXl7NsqAYuxM6/u4N1eJ8Y9Gi1Xl7UULDmYnBv/FyJAWzphr7AxiPAoitmUU2c1UjHG9scSzG4CIfOQpiu2FRJpFX8USCpgpiOrp4h4HIb4YJXewgKcqi6a5dqF3XdLi2htZVNIdqnCdefKWaXNm2Ox9ZFBEZkxBnOWbnts0imuMMm6AZ9eLM/z86NJtqCBTd4jAWGoqXS5l1E3a7hsOqGFEYUWXO3aEV5+7XIiIjim/OeyPVb69ufG9kQdSFYlzTqDt5SAIFhIAUCAWkomUxf0tAzVYx55qcI1qrjuZpd77eWCQTmx+kK8ZKebGbn1hfoImtkYUzFY5LLNRz+i4jvdiACIuGIt5PYIzoxc6MrjTGOwWcGwiJTY6MZ+eN88UiNw1dhLZdPkcIApFYFS9Geuot07rrgXtju4M8/5SXFyOk/tRhvPNBCARxDdc7IPJelii2inZtJ2y8e0A4b5EvUXSR1PVuBd1hMsLnxjsSxG6NeVMh4nu76kwnnLb4GGV2lkGs+Be4NCFOxPmKguDsFBwiO+KnjuZhd31nwpTl3AlSF/zFOSJC8OQVD653MbjKbLxo6h/5Z1EW47XOrqoRYsGYonC9feupGaE/7Av/5GyBlAfSkhQkAlIgFKTalmV9QkA4ROHA/vaPp+AI55zrHF3qwumpoLlrxgjVOPKcv4geiDR5kYf/C3yf2qb498LiN3/n5wlFwZ9+mZSxi6LxpignNxEBEesIRFTEFTExBuy6SyCYxIje+THWUPw+OvBHDju/PLlE2x/W6f+FupF5lAT+ZASkQPiTVYjMzn+HgCEQROj/jw4hEET4XQxAxTPvQiCICILFNaw3HvVzOURj6GxsYlCwDiEQ8t7mmFdyI2LxO4GQJxpEGk1say0EgsMQD4ZAENEO482VBQufLK0k8H+BgBQI/xdqSebxv0/g9yPYP9ISeWn+mZHtf78Ef4475hcJkAz/HPUkcyEJ/AEBKRBks5AEJAFJQBKQBCSBvyMgBYJsFJKAJCAJSAKSgCQgBYJsA5KAJCAJSAKSgCSQPwEZQcifkUwhCUgCkoAkIAkUOAJSIBS4KpcFlgQkAUlAEpAE8icgBUL+jGQKSUASkAQkAUmgwBGQAqHAVbkssCQgCUgCkoAkkD8BKRDyZyRTSAKSgCQgCUgCBY6AFAgFrsplgSUBSUASkAQkgfwJSIGQPyOZQhKQBCQBSUASKHAEpEAocFUuCywJSAKSgCQgCeRPQAqE/BnJFJKAJCAJSAKSQIEjIAVCgatyWWBJQBKQBCQBSSB/AlIg5M9IppAEJAFJQBKQBAocASkQClyVywJLApKAJCAJSAL5E5ACIX9GMoUkIAlIApKAJFDgCEiBUOCqXBZYEpAEJAFJQBLIn4AUCPkzkikkAUlAEpAEJIECR0AKhAJX5bLAkoAkIAlIApJA/gSkQMifkUwhCUgCkoAkIAkUOAJSIBS4KpcFlgQkAUlAEpAE8icgBUL+jGQKSUASkAQkAUmgwBGQAqHAVbkssCQgCUgCkoAkkD8BKRDyZyRTSAKSgCQgCUgCBY6AFAgFrsplgSUBSUASkAQkgfwJSIGQPyOZQhKQBCQBSUASKHAEpEAocFUuCywJSAKSgCQgCeRPQAqE/BnJFJKAJCAJSAKSQIEjIAVCgatyWWBJQBKQBCQBSSB/AlIg5M9IppAEJAFJQBKQBAocASkQClyVywJLApKAJCAJSAL5E5ACIX9GMoUkIAlIApKAJFDgCEiBUOCqXBZYEpAEJAFJQBLIn4AUCPkzkikkAUlAEpAEJIECR0AKhAJX5bLAkoAkIAlIApJA/gSkQMifkUwhCUgCkoAkIAkUOAJSIBS4KpcFlgQkAUlAEpAE8icgBUL+jGQKSUASkAQkAUmgwBGQAqHAVbkssCQgCUgCkoAkkD8BKRDyZyRTSAKSgCQgCUgCBY6AFAgFrsplgSUBSUASkAQkgfwJPBEIuuJKrOpoKig6qHZQ0MGhAjqKpqDanOlEel0F3QS6Of8b/aspFM11P3EvkUdxX5MOIi8if3bFmVnjO93Iz5MM5ndTHeM6vzlU17XEP8V1nSU3fhq3Eflx/tv5Xd798rtX3vcm1wUMgIqTIwqqA3R3u5Efxfb/e9F/9ub/y3SClWBgc3LQLTq69SkYeQ0jv9uIa4jTxMcmKtZ1LYuTtKKJNudqV67qUXTdVQ+/q6/f30tcU7SJ3x+/R+rEb5RDyRX8RaN3oKgONJOCZhZf5leQ/+X3rvZnsBBMBQczT5g+aXdPN7j/5S1/f7rRv3NVsDr+9pUwACJPrj7+b77lv+9you4cv60kYZPUHAXNqv/NLrn68VNd2tmWnrIbgoGwb0ZvdDir3mjfZqc9yLOPv7/fv1yYPFvy9AX+iPdTeX+SifxuKmx3jgKijwrbbNJRc8XvOlgVbKodc7oVzeSy78K8G3bP2ZedHJ46nEbqb4f4U1zrN3kXtld32jOXnTY4PnEszsR/x+8pDk+Sus7Pr5j/6Htnf1KMOtTcHeiKy27llUv4DU20kbwr5PW0v9n8f5q1uISBTvgkUXbFsB+/OQy7+dT/FB1FFY33CXIUkSfBy2VjHW6iEl31Is7Ny7uop79rM7/7n/Ahv/vXv8xytP8Y41LCJhgZQkez6Hj6uoHDgZefFym3H2LyMuN4bMea6vTUmgU0HwUVBUf2vyk3vy+FYOSyW5oZo0FjEj81o6GZs1VnR1BdHVnkXYAVhyFqnnLmf2TsHcrfdQZdOHAXB9Gx0HU0Raggp2DKy09eVo08/f84EqvdeapR4YZ5RjdruPuYMLtbSU/OQs0SXuJfrdL/3HmaWUdFpXB4EMmX7hsdQvN0NvQnh93FPb9siHOEcRfO3KGiWzXjI/iq6AQU9SP5/iOnURGdx8VDc1bO/3zY1N90EONUi0tpus40DJkwkCL7oh25m/AP9CI9NR2HQ8Oh/TZ9frf8l74XHVkwMDKoE1gqgOQ7KYY4ElA1F1jB4z/VIMRd/CL9eXw7GSXLpaLE/YWnFXYpT1iJbGo6ijC2f5bDAaac37YHLVfFI8JMxqMcp9By+nxnOzIclqv7iXYk/hD93aRTOLwQ9y8+wpwpbILTXzo8NDQv7clgSJyp/u5+/zKKp2xb3jWMAdfvm7fIn+HpnnIS/8RN1Vxnet1qR/HRCS5ZmMcP0yhesgTlWpZj/dTN2B+DSfQ/k457GStWfwuPLj9EzRRW/Xd9+ikHp4uB2O8GBlarBbPZhEPYYjcFXRV+wYY9N/c3uVWFGH3Kthn9TwwGVPAu6c3jpMeouf8fA6S8az2dYVGvZp2AoEAePkpBE/UubL1r4OAb7ktGRhr2FOfgTFhhpyUW/sXF2+iX/2RbF/04W0URdsyso3m4FGZeyYUv+o0919GFPRJi1uhromFphsBy93bHL9yX+9dT0NIdznoQ59udvkr4iqcrRxeqb7tWAAAgAElEQVS8Lb91Fk+X9Z9oKv9jkicRhCcCwSEyodOyXxPOnz/Lcy82ZNWc1fSd1Zd5g7/AeteC7lBwWKDViBbcTrjNmTUxLhXlBGo0IPGrMMBCyRkjI2dBRGPIi0gYI0dhcBQd1aGgqU8ZINFyckyoYuQolLyiGAa90nOVOBtzDi1Dw5KlOkdeQgmKHm2ABk1AdLgamfifuGdelMMllI2OKE4R4AVxkVejHoUSFEbDabStXlaKlY7g0ul4TMZIUzcav1GmJx1F/OHq2Xl+RXA0FLrzOk8UoJudcrWiuXD8orNx2lW8Qyz0m9+fFVNXcOPCbdRsIUhEA33qPHENcT27iq6IxuQ0ZMYNRPnET8FAiBpxb8HF5IxQKHk8jPQuo5gXwXCIv51GArtQtk6HJXgbeRfnGGpbAzcHnu6eDFk9jCkdZ2BOVTGJzm3SDQVtNGCjIeWJJlf+80YErnZsCOKn6sMwZGZxPpiE8NM02o59gY1fbKJuk3oc2LofPUs3yqEZ9eoUhUakQRc8XG08zxHYXdUhkqoaqk0I2rzIkGtEKEyCEYlS0TWFah0qE1k+gjLVopk1ZCbaVROmp621q20YhiSvjK4IgHP09VQ/M0bfoiUJoyHavAJuulGdRvsX7dnuah/GCFjH4eGg28zXWTF9BdpjFzeXkVKMtv3Es4HhpF39wjWiMCIgYgQjuBgiLQ+Gy0PmOco8rSHakmE4dV78oB0/fbwa0yOhvp1ROSMy+JT4LV+zAheOxLpas6uuRX8WRtcor+g2OqqIipn/5oifOD/RPoxsPQXKdZ6RRrQz0U7F+a7mIyI7QcUL4ennSWLsdWcfMuosr90rhkAw6tE1ElXxoPyQspxactwZJTAiXoohbAz78iQK5synrmqY3VWGLB/Eh69+hNsDC6poU2ZRJxq6u8Oo7zyhpArxmevsV86oi9Px/MaXuIrobAGi/lWEuM5rIyIPRjtwsTbq0uVwNVG3rmip0b9NmtO0iT4oNI3T8DwRlYZTMtq2qACn3RVphG0Sf6hmjcJl/Rm0bCRr5q4iOqos5V+sxJRWU8i+rGES4lhVaPNZS0pUi+CzDp9hSjM5bWFelo225Yqo/ZFDBhr0rE+tDrUMm2PyspKbmcvNX2+w+qNVaHlt1xA6zlGy4RhF+xZ9OBdUi8KLn7zE6tmrsKRane3A5ByUPemGxr3FCN2ZMVW0PdFkDE7O9iXq2uGu03pIC7LSMvll8V5Uu9Ex0HOFTdRpM7wth48f5f7eB86+Ikb0oq5Enkya0zY9PWrPa7IinbBVhnp01pPTYyjU6fQMqlXlwJr9GP3VKKMrrd2EGHga0RTxEVH6vLYpdIJDxeFpw+5mp3H7xrQc3YoprSaTnZBttB1F5F2MK8W93cQIyhXVd/V9ES2rWK88UTWi2DR/M1qWA4xBlWsQ6kpn2CERGRXtROT6nxBAfycQDB9rh9dmdiEm4Ry1nqvC11O/Z8aWaWz5dhOH5h5AyTbjGeLDiB8Gs3bxei4sjMHip1L5+Wo47A5O7D0O2WaK1yzBzSPX0bJUfCM88SsewI2T11xGWaNig4o8Sk/FO8iDy3svEly9KEXLFOXelXvcOpqInuVBdNMoPEt6kXT2PmZdofOMzvyyfjex2y+ScTWVqOej8A724Nal29w7e5sgrzBMhRzcjX+IZtcoXbUM8acuEVKqEBQxE+QVRPz2OMLrhuMX5c/9B6kkHr2EyWwlqm6kAdbL34vrZxJJjX1EzY61KN++PCfXneHMqgu4u5uIbFUas8NO3C8Xyc7INhqXMD5COJSpVprAiECunLjBrRv38NAUSjcpjZ+HH4lx1wkKC6L5Oy3Y9f0uzm25gElXqNQ0Gt8IL05uO8/jixnGsNaIiuXquPl4UaV+NA6TjbOnzxiOK6x2MF4lAjm9LQarp5Uqz1ZGNalcOHyO7LR0/AoVokztcthzbZw9dZHsW6mUqFyK8OhiPLidzOVTcZisZio8WwGz1UzM8Vjs9zMJDPVFDXajZGQYD5OzuHw8DsstKyZFJaJNcfxKevPg7ANe++g1prWahcndRPlKlXCPsHDt4GUyjqZj99TQzQpmHwtlGpVCz1LwKuJJzP4Y/IMCKFa+GEnX7nHt0E1Us0ql+uU4u/u8YYCLhhdFyVRIvniPiHahZN7OYsBPg9j4+QauHbxJUsINylQoTWDJQtxKus2tI4mQ6TQmhldxOcbAEE9KNS5LauZjzh+4gDlNCBmnYKzRvipJd+4SHBlGWkYacXsvoiSrBNYIJKJ6MdQcOL75FI5UFbObiYpNyuPh7865I7Gk3UrFnKW6RBq4+7pRqXkVbFouMUfOYEuxE1Y8jIgaxUjLTOPczktY7utUb12LpJzbhJQozL1L97l6JR41zUyxxiUoElqY+7fucWXvbWq2qEzMrpPYdYWy9ctQqHAAl07GExxemNhf4jBjJrJGKYJLBXP11DVuxd8whKJwBqrdRHSjaLLM2YQEhnL50GUjGlKlaSUy7mZwdk+Mcb5fuB+R1UrhUO2c33oBJVmnzEtRnNt9DndfT8o0KYuHmwcJx+NJvppiGMMKNSrQfEJL9q84wImtx7DfdxBdNxrvip7EH71C6ulUvII8UQLNlI2K4vTeU+iPnXVi8jER3Tgai6+ZhLNXSE54iMViolLDSpjcTJw/dMGo5yJhIdisyZSqVYFcu53zO85ieqDQ5bPX8ArxMtr60bWnKFM3HLPDwu3rt3mU/Jhy1SvgHeZD/PmLPIp5jNlLpUqnqhz77gQBwb6UqRtNxoNszh2KcYpLuxBtiiH2w+qHE1K2MPevJdF+8svMfuFjVE0lukYkfiV8uHXxOrfOJuGGG9ENovEM9iLhzDVSTj+AHDN6gI0ytSJ5nJFKZMUorsUkknI3hbINonFkOYg9EouWaseu2SnXvAz+wX6cO3SBtKtpBAeHYMvRyYhPw81hplTX0lzacgGfsECK14/A7rARfzSRzJvphohT3Uy0HN6ce9dvEloxnDunr3Ny61GUx26UeSWayDplSU96xN4fD2FPzsEa4s5z7Rri7mvl9q1bdBzXiXkDviQyOpLs7Az2fHeYGk2qU7xWcW5eukGLt5vz6MFDvnz1Syo8V4Gy9cpgT7dxYNNBHiWmEVKyKDXaVMHiaSEhJoFLGy6h2f42cnVYNCN6W7R0KAE1CnF+5RkwmylZNJTQqhHcu3mP+OMJqGaFqFol8TRb8fHx4drZKyTFPkRVddrOac+JbacJDSzM5TMXSUm8jyXDjH/ZEIrVDiU9JZ0LB2MxiUGSZsbPzQc3HwvJlx6Cm0JYxVCy72TgWdyLCq3Kk3DoMlf2XzVsbPEqpVDcVdLupeMV4Mmta/fIupdOWHBhiteLIj0llfidF7FnaATXLkLRamGkp2QReywW5b6znLrVQVTdUkQ3L8fja48wYUJxaNy/8Zg2k9uSk53Fpo83cOX0Fao2q0HxUhHcOH+D05tOYTZZaNSzEanpafiF+ZB8/yEnlx3DkWGj1DNlKdO8NCkPHxFVN4riUcWY3HIaVatXJ6p6SdIepnNkw1HS72RR/43a6G52fHwKoSk57Ft+EIuHmT7z38AvxJ8VE5dz4efzlK9XjrJ1o8lMyWHfur1k3s4m+tkoohqWN/zLqT2nubv7Tr4Bhr8XCEJkpCvYPR3kBuSgm+34mALp9sXrBFr9mTfuSzLjs2k/8VWSs27x4EYql7dcZujSwRz48QDuXh6UrlGSLwZ+Tcexr7J81gqsd90p3bAU0Q3KsGnGJhQhhU3w7sb3ePz4ATuX7yInPYcmPZpy4sgpKlapwPENRwkvWZKgCkHEHYqjWHgxw8l0nfI6W7/bwvUDNylaPJjQmkVJSUqhdptafNb/c2rVqEVQCT/2fHXYGDV0mtyelVNXUv2latTv/zy7lu3i0tYLtOrfhqtXr1K5XhU2fruJzPgsxm0bw8FNB0m5ncKzzz/D7Dc+pHH756jYphLHVp8kZucZXp/Rg2tXLpObkUW5iuVY+s4StCwhixVqd65D8YYlid0TyzNNa7Hl+600rF+HR5Y07lxKokTJElw4HUeLgc3Z+fUu4nZeon6rOrgVVkm694gm7Z7n4/6fQppqqFmPAE/eXvg2RzYexTPQgn9hP9ZOWsfY3WM5svUY679Yz+CPB5MQm0BGeibPNKvD/EFzGTJvMNtW/4yvny/JNx6RfjeTpn0acuZgDKVKl+TnH3fSplMr7t67TcbjDKo9V50FQ+dTrlZ5mg1vyr41eylZoiTXbt/l+KdHeL77cxStWYy4E7FUbVSVIqWDmfT8TLpO7Ei2I5W7V5Ko17IhSyYuJTXusaHuPQp5MXLPu+z/YT92u416L9bj5qVbnD5ymmrPVGXVB+vIuJpGv+/f5OOeX2J9bKHRaw1IVdKJWXiSzks78POibQxZMpxNn28gce9tQssXpnyDisSeiqXCMxU4vv0Q5zdcxiSctqiCHMUQff2WvsWWNZspElEUX29vlo9bjuWRxQiejD8xibtXb3J850nKVinHicOnubL1Ml1nvs7xE8eJiCxGoEcg341eRp+Pe3It8ZrhiJq+2Jx5I+eRdv6RIRA8fT15a8Vb7Nm+B18vHzy8vdi1Yie9xvXizMEzBBQJQDHDpgkbmLFvNlcuXObEidPUfr42Sz5ZRoh/EA17NeT4luOULFOSn6ZtZObyKUzqN52X3mqLJdBE7L44nm1eG9VP5cu+c2nTtS3+Uf7EH79MvVfqse3LrVzaF2/oI7NmZsKBCZzZH8PNq4k836qxYcB2bN1BuUrluB93n60LtvHqe+25ceUmPoE+eIf6sHnwJoZ935/Ph8+l/eQO3Lpzg4ybGRT2KsyWhVuNkV3VZ6rSeHJTfl31K6fWH6fRK03xrxjAxTOxPN+uIasnr8P2IJMhywfzy/q97PtyLzwQ0TmN1lPbgBVu3rxJtWrVWDxzCcO/GMLJw6fJysiiTfuWTO89k+jy5XlxZGu2rd5KSGgIhQMK8817X9FxfCd8i/lxZO0xzuyKZda2qRzffpRfVuygUbsmxtTQ9cuJPNO6Dhu+3Mid89ep8WoNYn++yKBvB7Nr1Q6CCocSWNiPxSOXo4q2oqvGaDe6VWnidp+jzDPlKdusDO89N4qW3ZsSEBzA7St3qPRMRdYtWM+zTZ81IkA34m8SEVqCzVM2oYtpwMI2enzYDS1Q59TuUzR6uTHZGVmc2neSwsVCMJvdWDtpPe2GtsAUaCbhUjzN2rVk4dgFRBSJIFvL5NqqmyieGgPXD2Fu+3n0+roXx44dxmI3k3ItnUs74xBRi5INInlzaW9Skx6TkvaQ4qWLs+7DH/G3+lH3rQZcOXeZiLIluHI8gVWTfmDEipGYvSw8uP+AiMhwQ4xPenUSE74fz+ZvfsJbCaRh30bcuHKd4LAQPLw82LJoC7ZkeGFAS6O+ChUqhC3HxvzR3/HeV4NJvHYd+2Mb2anZrOi90phyyjuESRdz70XLhlL4mQDOfXeK0KrFeXFCaw6vO0a5GuU4fzKWIxuPMWvtFE4ePM69hHvUbvIsX4xagCUhh8G7R3L5dAJJcbd5vtvzfN73MzxUTzpP7sDhPUcoUjwUd7OZ1e+vgcceBPi702Z0O5aOXIHFYWbgt/3ZtmILNVvVJO7oeco/V9H4eWbxGQZuGsbNhJvsm7uPeh3qcXT7UXJScujyQReOrT1GUNFAAgMC+eGTH+j9yRtGOw4uEkzsvgvcP3jPKGbl1yvTaVZHbsffwsfPD98QH+L2xYLJTHTd0jy4/YADa45QpkokxSoV5cbZRKKqlWHPij2c3nqGd9a8S1p6GhmZGYQWD2XJ0O9QU028/snr3L51B3dvNwLDAzm29QgPLj2kSfdGJJy/SlhEUZIu32Hx4G8ZtW0sFh+LMdArGlmE7Ut2knbjMa+OfZW0tHQSfo3nyrkrvDj0Ja5cSKBIeBFS76WxddnP9JnZi4vHL+NmsRJ3OI79Uw788wLhNyldoUoj7KUrePh50OnzjqyetZpGHZ/j0var1OpVmYu743FY7UZDrv1qZc79cNEI17cc3pSFk76j+RtNWDprOe43PYhsHEm556PYOmkb2EXsCIZvHco373zLg4vJ9JzTlWOHj5Ce7MDTx5tX+rTm6LajRD1bmh8/+4nkuPuoaSb6fd+fr4YthEsaZqsFnzqBFClUiNKNSrDzx1+JCC1GQCk/9s47jOKw0HFmO36YuJxqL9Uky+zgwtrTmBQdz+IBlIwoQkC4Nx6FCrPnu328MbcHX3abC2kKDXs24MS505jv22g44Hk2TdlIcFhRnhlYk9h1V4wZ4gad63Pom0NcOBqLyQs6z+jCrj378X7sTkCQLxWaVcKekEtOSC67l+/gXnyKMSfX7/P+LBjyDaYsM6pFpUjpIgQUCua5nrVZ+/1P3Nt33zBidTvXxTvcm80fb0VV7KhWkxHCf/3TLnzd73v8C/vT5/NubPhspyG6GnZ5hpOHz/JSt9b8vHQ3cXuPk5yWwftbZ/Fx749JiUk2RJN3iAevzurIvqUHjBBWnVfrcufkbW4l3eJB7j2Sf32Al9WT7j/05ouucxix8h0+6/YxpiQNt0gvBn43mFmd3ufl0e1YPXEN1nSV4vVKUKN9TVYPX2uEXN0C3Bm0aQDT2n6Imu1g4Px+LJu9nEcXU4mqVoqGneuxbMIy3lz6Fp/1+Bz3ZCsNuz9PsvqYcwvP0HnpKywftYLJe6cxuclE1DSY8OsUw8hxXTMM2pur+/Jx+0+MKRlj3tiuUKVbTcz+CklX7xsh4O79O/HRwI/JTnAuAJ14dhJLxi/h6tZEPD0tvDz9Vb4dshhrYQsRlUpgDbBQ/5Xn+HrAIp7vXotdCw5hspmp3qEyQUUC+eWDnZhzoPnwthCi8OOMLQZDPO0MGN+VNZt3kLw/GbObwvDNw/iww6dM3TiRUe3ew5osDEklKrWtzIntR2g2uDk/frjWiAQ40hRmrpjKtB7T6f91Pz7qNRs3u6cRNu25uA/fvvUt7/3wLhNfnoH7QxNqIZWuk15jybvfYcpVUTUz4w+MZXzriZjtFloNb0n82Yuc23AVzcvGax904oehq/GyeFGsahE8Aj15adqLTHlmGkPmD+LLofPoMKUDjtxcflm6l+Rz9zHnmJ/MpvRZ1psv35mL+aGZEauHsmLhj3jlWFCtCqXrRnNoyQEqtCzP3nmHMD02gbuGyWyi/Zz2fD9yBVYxJ55rIbC0D6WaRXJ8wVFjOqtco/KYCom5fRMxN+LQT2ZjVkwM2zCCT9p/wjOt6uJV1pftH21C91Dp+n4XVg5aDcm5dFnUjSWjVmKx2wktH0brd9vw1ZCF1G5XlcxbOfiVVUm6kI6iuNG+/8t88fZcsq9lGX1owokxTOk2Ey0ezMEwZvO7TH15OiOXvsvsjjPweGimcOlQ+s7rx+FfDhEUHsymudu4H5uM5YGKSSzWDrXx2kfdWfzhIkw3zDTr0xLfKr6s7P0Tdk87/eb3ZtnE5bz7/Qi+/2IJWq6O2cuNwoWDeJyUSgYp3F5+36ifoRuG8XnHzxmxcjj7tu0l5ueLPLzyCLcckzGl+MLwNjzbrw7vvjockhxMXDfNCMGLQYCIiF2/cMMYRIVXD2fV5B94dVwHZvWaxeOYRwxbOZwiUSF89d5XvPXR28x6fQL9PhzG+WPnWTdqLRF1ijNw4WC+GrqA3rN6sX/rQdbMXEdEhXDeWzyctV+s5eXBL5OTnMWvq39l15f7sV5xzZx6OBeGGwLBqlE0OpTC1QtzfvEZur3fg32n9uOWpGIJsNJ+YkfGthrNaxNeY9noH3DLsdC4VyOuJFzh1rpEXlvZjQVDFuCe7EHr6W24fC6OanVrsvG7dWQfzcLmrzFu/XjmD5zHw7hUTKqDbvO6sWXhDhxJNur1qceKucvwDQ6gZFg4fpHeRFaI5qd31jJixwjGt5uKx303Xp3+Ckd2HqJclWi27d8N5zSsmom+q98ybNJbs/uy8at1xJ1MwH7Hgdk1pTho7QDS1Azm9Z5PkVIRjF4zjJ9m/kjSrVT6zenFjA4zsCdpTNg1lvjYeB5evU90zYrcvHmHi3su0G7Cy8zoOpPcDDvjfxjDT7PX82yLWgRFFmJsk5EULxPGkB9G8824BXTs19mY/jp38CJFI0Pw8ffmo26zmL7jA378YDmnVsUwctto4g5fYPf8PbyzbSSr5/zIxZXxTPxlDPcf3Cf+WALBwYWIqlOGzd9uoE3vF3l0PZmN83dw6sfjuD92+xcFguu0vAV4bj5udP6iI4tGLKb3hG6YQq0smrKAWuXrYPPM4mFiBg16PMvBbw4a80E2tyxunH5A53Ed+e6DxbjddqPSqxUIrxbKtnE7wOacgB62dQgL+n/D48RUun7WkZjTx0m9bUOzm1CVLK6fukXRCkUJLl6Uei/WZfGo7+k9oycLR36DdimXam/WJtOcTsa1dMo2KMWBbScJ8w8irHoY2z/bY9yj95weLBr0DTXa1SQ5NY3E7ZeIrFmcEo3KcvNoAp4hVkJKRfDLt/t54+PuzO0xHzXTRN0edTgdF4M1SaPBoAZsnLgB/5BgWkxsysFFxzGJOU1yeRSbTmpSGnZLFj0+7sGOPb/inWpGc2jkpNh4cOQ+wa1CKRIVSsMX6vNl/895fUoPvhr4NaYsE6+OeYXYxPNkJWXQqHtzNizaYDgY3QHPvlaHQqUC2TR7M4pqR1VV7CaVFu81Zuv0XXj5ejJgcV9+/HANqmYyvr9zOg3NI5UiVQtTrlZl7Dl2nm1Sm7mD5vLgVDKqGXyD3ejyRW+2LdiESTOR7aWRcTGTYpFFuG9/wL2d9/DS3emx+Q0+6/IZo1aPYkbX6XinWPGK9ubthQOZ9fpsXhvfhW8Gf4tnqhfRr5Qmul45fhq9wZincw/yoO/KPsxq/ynWHOj9YXfWfLKW9IR0SlYpQaNeDfh+9GKG/jiCmV1m4JHiRpOBTbiVepcLX1+k85JXWP7uMqbumcGkppMNgTBx92QmvzYe5aKKNcSNt5a/yUcvff5k9bnJDlVeq41/OT8uHbjonKoz5ZB0IAlNhLwVmBgziXmD5/JgbwpuZhMd5nRi/Sdr6fV+b378dC2qh4lGrzfimxHf07Z3Q9Z+8DNmu5V63WvjGeDO3vd/wWzTaNi/BZZSHqyfts14EkPzzqbHkE5s27eXlP0pmN0Vhm4ZxOyXP2bCmjHM7DYdbmlE1SpH1a4VWD5uFQGVAygaWZQ2r7dm5bQf6D2mFxNfn87wBQP4ePgnWJIteHp50Gl+V77qvoBx60czreOHWJN0CDbTYWw7Vo38wRhhqrqZfmvfZE6Puag5ZloMa8ahXw6QfDAb3TeXjp92YO1763lv0RBWfrkWm2aj2yddmFZ/BkPmDuaLYfOMudOwKuGUKBZM+cZVmPfWIsypzqmZPit7MXf4F5jvWxi0diBrv9uA9ZGCyWLm4aNHxtRcoQqBxC2LxyzWpVjEdypdvurCwiHf4pZhRVcdFCoRSLXO1dn1/i4jqlPlrarGSFq1qxw9fhz3y2ZUTWHY9hF8/urnPNuiLp4V/Njx4Ubs7gqvzerED/3XYM2ETou68tXAhfhk+1C8UTEa92zEV+99Te2Xq5Kb4iC0YiCXD90GRy66w8bNQw/Q08SaABNjTr7HtB4fY7uUa0TwxmwfyaS2Uxi14l0+7DwT8zULQdWD6f5hT6Z1m07xCqUIiQyhTtOaLHr7G+y3QA/MoeuHPflm+gLcrnrS5K1meFf0Ym2/Tdi87Ly1oAdLpy/l3ZUj+e6D742FZprDQerNVCJKReAIziXuqwTMASrD1g9lWrtPCSxsoVD5cCJLFidXyWbv3L0oOTp9F79JsbqhvPfKFELcg3hnyRCSbjwgLLIIpw+d4szOGCPykvLgIZ6qNy+NbcvU16ajPrIwcvUwrpyJJzHmOk16NmH8S2OYtGwqJ/YdZ/P0DXQc3YXqXWoyu+Ns3vn+HXYs38n2T3bTedTL1O7yDLO7TsPHP4DQysG07t6ay0eukLA6nsSLiSTF3Hc9zaYZazbEFEPhakU4v+g0nWZ25vjl49hv6DhwGIOcq7FXaTf6FX4at8GYrmvYsyE3byZyc20ibb56idXjfsCS7EGTsU24dS2R6Crl2LNlD6lb0rGF5DL253HM6zmPx/FpmDSdIs+GUr1DbdxyLWz7aQeBgQHU6fAsv674FZ+SHlStU50176yl16IezHnrK9yTLbSf+bIhEMpUKs2+U0fIPJSJh9nKoPWD+HL4l5h1C8XLR1CrUXWO/3KSC+uda2+GbR1KctpDFvddSpNuDWkxvBnj203iueb1eb5bfcY2G0MhNYhR+8ewc80uEs9cJSgoiGsxN2jQ4TnK1i/NmOYTKFm6JIOX9mfOgHl0HNIei6+J91/82IiythnTkomvTWDigsnEX4pnz8aDFCriw4NLyRRy96XjB12Z/NI0lOsa7+4Ywc7lO7m+6xr91g1mztA5ZJzNYuyW9zh36hwHNx0i0N+XzIcZXDt1nbDyYYSWK0bzTs1YM3UVMd+e/18KBGONg4LFz8Lrc7uwsN83FPHyJ6xBSU78fIw6LevhcM/l7O5Y+n70Jqc3nyAnK4dKNSvw7aSV1O1ch9Ayhbn46yUadKvLlcR4QyCoORZjimHoxsEsGLiQtGvphNcPpWWfFuzfdYTgwqEknomlRIkossgl/V4mTbo1YuG4b3jpjbbEnb1I8pl7FKlcHN0ji+zkHJr1bMaiD5eSm/iYXrP7sG/lQSKiw6nQuBwzOn5ArRdr8PDRY67+nEBkpQjKvlyRq8fiqdm0OvdTHrBz8X7enNGTuW98ZazirdPtWc7HnyMnIY3un/fk8MojxJy4QMcJHUm6cJdHt1IoVaUEa6dsNOZ/RbSlxktVqdjCOTqMKl+Gw1uO0qhZAy5du4xdt9G6d2s+69YNtMwAACAASURBVPUJ7Ua8zMkdZ0m6dI+GHRtw9dZVbMnZvDS8Hd9M/o77e+8b86TWYAtvfN6TE+tOYLYqhIaHsWb+Olq804Qt07cbI+auMzpz98YD7t1MolaTKqyaupa2/Vpy9lQMhYuH4ubhxqndx2nRvhVndp2lRJlwju05wrNdnyMjKY3bCbeIrlGR1dPWUOW5ciRnp3Bn7z3cVXfe+LE3n3Wew7NdaxEaGcrNI9co07AspZ6NZMIr42k/pD2Zd3N4FJ9G1S6VWDvnJ9KOZBpzz27BHvRd9iYzXvsIq03hjek9WPPRT6RfzTAEQpPeDfh25CKaj2xF9uMs0hIf0bRvCzas3EDskst0+aYDK4csp9+3A7iw6yLXz93EK8KXqIrFuPZrIhWalePwqf0EZIXw6MFj4g9cNhq7V3F/es3rzt6fDuFuMRMSGsT6cRuMKICIWk08N4F5g+aTdCgZq7tC51ld2D59E12+7saG+ZuJrFiKYtWKMeetBfQe/zq3424Zc5/1XqrLt5MXkRWXicmuYyrsRrf5vTi85hjuHu6ElPBnx/JddJ/ck8Orj1IoJICQckEsmbiMKesnMbvXDBw3dMrUKEfN7hU5e+ASHkV9SL72gFf6vMiSD5bSZ8QbTB/wAc80q0yZOhW5ej6eUmUi0cNg3uvz6DDqVaw2Ty4evECjzo3Y+ONGEn++akRsVIeZt9e/yRfd5mHKtNJiRBOO7zzKneMPwdtBp49eZc24nxi1aDjr5v+MT5gnL418gfeeG83ADwcw9935tO7bijsXbuOeYaZapxrM67cQS4pTzL/05QvEn7hM5q1sAmoEUrpMFDE7z1KpdkW2rNiKwwxhpUOIXRXnXJjnWqHbemJLslJzuBt/jyq1K7D6y1X0nN3bWPtBik6t7rX5Yuw8ylSKJOb/sffe8VUWW9/3d/eS3kNIAoSO9A6KIFIVFVREQFC6oNKtKMUGUpUiiCDFgiBNQFFRQHrvvQRII70nO7u/n5nr2iEies7zPvf9nPe5X/f5Q06yc5WZNWvWrFm/7xw8DbeUIsnxv47nkz4LSWiUQJeXO3No/X5OHDzLs5N6s2bcWnTFXh6e+DAGo5G0E5k06dOAn9b8wu1TaTR/oqnclhw6Yyh7tx1EZ/eSUD2edR9sRFOikzVUjQc3oNr9CZz/+RItOjShRpcEXuv6Fo8Pe0wWyWaezKLho4359tu1NK3fgkKbDUdRGR36t+HzkcvwiADB7OSFGYNY/sEydDfNdHmxCwH3+bN+9BbcgU5eXDiIJZOX8OjwHpjCzVw4cYGW97fkx0XbMLlNDP5sMNvn/EyVhvHU6FaDmU/O4rFhPbieeBOLwSpVNTsX7sZg0jPm+zGE1Q7Fne9FZ9SQn5vLrNFzGTCmP3Xa1CM3M4+Q0GBm9ZuHwWBi1PLhSmG404t/iJUlk76gSbP6VG4Qw9x+c3j+3Rdo2LEh9kI7piATKSlpzBjwEcM+HErDtvWxFZRiCbSwfeXP+Pv70aJdczLzM4iJr8SJH47R4rG2HNt9jA1jNqIv08siPLfIINSsRHizcM59eZaw+6LoO+UZ9mzeT2hoKJmpqZzYf5JnX3uWjVM3oy/W0n5oe5LTbnHruyR6fP4Y6yZ/h77EQOdxnUlPTOHauUQGTR7E0S+PElQtkKiEKNa8+S06m0Gp/dJpeHZJH4Kjg/hk6BKq16nGg8Pu59CmQzTt0BiNRcO6CRsZvmIQ84cuxlig56n3e0kfKPzGC1MHsWfNPqIiwglvHsVPy36g5f1tuH7pFg3b1eX88bNcXndZjoHub3el3QvtKUovxhptldu6kx6eTNfeHenx+mNkX8lk9rDZjFk8hvAaUZRmluDxepg7YC5vfvcWVy5eZvXor2n1SGv6TH+KqU99wP0PtZCZxOKMIswhVhyuMt595j2eGvQ0TR9vQlZ6DqEhwSwe8ild+3ahUts43u48mWrhsYzbNo4VU76g+GIhL20eS1mejY0fbKRh14Y06FifgqwC/Cx+zB4xnX4TBhIcHUJhWTFh0aEsn7CU9O3Z/5sBgiop0wRqCK8fTOrpDOk8xEercaOvasao1VOQVYzD6KVmkxhZEXv12A2wmaSaoHKdKMIiIki8eQVjgImSY8pqQagKQtuFknchB0+WB6+ocq6upVr9BPIyc0hPzESn1RBaM5SAgFCSTyXhKXWhDzSQ0KIaSeduYU/xktAkHIPRSkpaBrbCUrSFbgyReuJrx5OSnoafzp+Ma7kEhFlxeh04k7xgdxPRMITAuBBuJadi0pkoSC+kWnxVbp27Jfcp/aqZKCzJx1Sgxa92MFWr1uL0wWMU6j3UqBlLoMWPq5evo0lX5CeyKlXnwRiuo3qzeJKSkilIKsOjdRFfPxaNWUPi5etYsv2wBBuIa1Cdm6eTsJWUULNxdTx4sZWWkX2tEE+uF51TFJ858QR6qNU6AYezTBZIaTUm/GvpKTxbhtGuQygwQ5r6Ex4VKpURnjQ/LAleYutEU1xcwu3zuThLXZgirVStk0BeRi65Sbm43W6ia4UQXimCpFMp2NLtBIX74XG7KM124HXqqNY2nBsnMnAF2QiM86NydDyJ129QrUoc145dw+l2E1k/kuCgUC5cu4Q2y0zAbSVt5Q2AmBZxMtUmlCgxNSLJvpCHN1eDMUxPYF0/8vfn4QlxUalRDDqDh8zMApwaDc6rZQS3DaDocAH2ECcNWjYi5XI2JaWFGC0aEurEcvXaFQryS+k3oD8nz5wh5edbSqW5FkrCbdS+rw5Ot5Nb55IxZOswlCnS0biOkSTfysSdJdQdXkJrhVN4Mg1njJ4Gze7j5s0bWM3+3LySKiuk4xqEYrGYSDubhSdLlSuJamCNhrKYMrkK8bjsXDt5CavDQmmgh/sa1iMvPY/sy9kYbTqiukeSciAZfZGFgFB/Qmr7cfXadeKqxhAYEkzitZuUFjqpXacWN0+l4vYroVhU1zu8aAM0PDHxCba/vx1vqYuA6GCiqoVy+dw1DPl6NDahqBEyKz3Rj4aSvDsDQ5mViAb+5GcUY8suk9KoKg1juHE9GX2IRtbOZGRk4u/vz62TSQTXDiX/VB7eQC8JtRNk4CmKq0hTFBiiitwVb6dW81pcunCF0tIygqP9SKhVk2tXrlKSVYZJYyHAz4/i28WKJFjI2QB7qI3oujEERgVx89QttOlunBoPVZrFS6nXzeNJUq3kH+2HvcSOK8eFTqMj6uEIbv+eiVPnIKpRNAHWILmnWjkumtuXM+Qzuo1uAqsHEhEZwpXriXhztZiEKig0gOL8Qrxut/QVLo2TxGO3MBYZ0YnJzKHBE+TFnGAgrko8STeTCAsO5/rFG3LbI6JKOFHRkVw5cxlHmVNWp8fVjiEgMICLZy+hyTKgt2txu11Uu68qSTeS8WZrCEoIwhvlpfBkKW6DQ/q+pFspwlnKAt/46vFcOntBjm9tsQ5vjJM6TeqRdu0WhnATRXsLMUdZCWscgbPETebhVNxFYAq38sae19nzw16uHzyHDjOJJ66hzdfjMjqIbxKLX5gfyTeTKbzsRu/V447QyeAqPT2JyOAwrh68SUKNKjgsJeTuy8Fu8VKtbU08BjdOpwO7rYysyzkyrR1XL4agCD+u37iOPcmG3qqndr1ash3SLiZjT3RSrXNtuTXguuZBSColA0HvlYXL3ngn7stKIShRTmq2rEVebjGJF1MxGLRUrhxD1qXbGGw6ueWU5y7Ge8aAtYuRvLNF0p9GxIVSWlRMcWGp9CW169WkoKiAjHMZmIuEj1GVNhrwq2rBbbZReMsl1QyWOANVq8eQnJSM0c+P3ON2olv6cftwDga7kch6wRTaCijLdOHwc3Jf0zrk5eSRfDkdg0ZLQHwAleJjuZ16m/yUXKzZJql0cFnsVG4WD0F6ud9vxEjmqXS5bRvbIkaqk24evYVOqyeuVXUCzBapuLPkGqjavAZpqemU3ighKDYYU3wAyUeS0Ns8VG4VA0FaCnOLCbAGknYyCU+Zm5gmMQRFBnLzZhL2M2UkNE2g2FRKxp50AgP9iHwoktsHUynLchDWLoLA6ACSjtzCUQyValcmMNREeloyRbcKMYVZiU2Ik7aYdCYJz3U3Gt2/Bhj9LUnRo+pLRMebCjXYg9yKblZCRDzo3GJaU4pTpFcQVcJeDS4h6RK/F7JApyLtED9zGbxYBEdBZiYUGI7oUCktFL5dL3VHyvUtTkVSIv5PqRGvVdItlF97wFBgwOM2oMON1+IqBxZpxHek6kdMskJ6pQWLC02xEZfZCSU6KFXkIl6zoj1V4BaKJlbuN4nSC5MTY6FOeUzxPmIFanDj0OkxOt0Y7Ioe1Wm5AzuSsioh1RP7k0J6Y1CgP2IxJWShyoupMAwp6VPawSM0sUKSZNPhFdkIkyKhUZgLinRRFKI5zSKucqExl6EpNoFdlSJKiJWi23Y5zeiMdtnuoq2EvEpUoguHKmQ3Ul4lJKPi3w5FKum2eHGrPAMFjKVBW6oHfzuIwSikNRW0wirOSNHuGhQmRZlZqe63iv1n8fpCkqj3KLJJETs5vbhFf6qaf/E+OtEP0rGI93JKFYjLoEXv0FIUW4q1wILL7Mbg8qIvMEr2hqZMg8bswm11YzO7aN6qBUf2HsVaai7fL/dJWqW0zK1VahTsPriTqLYWT6iRKU7s4DE5FEmqaDMh55QSXeW5tWVaRTYqTNMnzxbSI6mVVwA0Um5ZUWop+QGqXFTnpSyyDGOxAZ1YZovJU8juDC68Ti1us49BotiYVqOh3XMtaPJkc4pLi7HozXz91Sayfk/HWOJFU6rHa/Io9iTUCw5FV6ux60Bc06UHnQ78xPVFP4vR5UYr9huDHYpEqxzd4UVfrJfKE5EpEO0r4S3KUCu3V9mfggcgnr1MizekTLEtIeMU7SDa1yS2Bg1yrCjvqIxjp58wMCVwE++tFwGN+IXod51b0Y67dLj1qiRMDhxwhpTin+yPM8AjoUc4xVgU+5c6vH4uWeskAyPRlno3LrO4jxaxzaQAgJTfKTA3IXUVUY6SndCUavFYvbK9fHI7RUatMBGUDXW1laQuXhlfUnqn2pTUnwt7EDYt5KJ2Lx4zuK0iOFJqt6QMWnxHDGEfdE5KjhW/KCTTbiHRdmkpC3Hhn2TBbfDiDlDAH/oSIeHV4FfZyqR9k/hi0pdc33BNsTchlROaeyEPVkE9UtmoypQ9Xp3SRwa3fEd9kUEufIRGX/gQr0aLy6BKJyXjxav4H1FPIGS4BsElcSvbV6otCHmhzFbZdDj9FJ8vskUi1S9VXKJPtR7pz/T5ZsmUEL5XXk/0lajcUiXPSpZJ8X1eu17akDPChi7XJJ9XI6TmPnmoeEexbyWnEkUaLvyKbzx6RDtbHGiFT9QLFdUdmafoU6/TiMavBMqMaESRqt6lSEF9e+hicSo5CYrkUbIMhD2I/6uOc8nPEPJ+weMR40TUHYmGMShcGxGgKxJ0VT4teToKUEPweuT13MKGvVKGKbItwiZMuToZwIuflbsQlTUi20rFdZTLllXFlmhbr8Utx6PbTxoXdn9h5zpZzyP8vZgLpZRZIjGUecol6wq10rY0Etr395+/DhBkg6iTtdScqgTDPxC0KgqZ79xITrZiUpIgogp+RhiR9EAqxEzV73s9YiJR9Li+j9Rz+3Sa6mCr+CqS5CeMzhds3K1D/8OXVe2wOt96xAQuHKUPiCTGuQpV0QiimtSKe5XgRhqMOj2q4BgxMYjYSw4RoaN3e2QHlDN8KmqF/0I3XA7OqDCxyGuJdzarjroC2MX3OqLTtQJYI6JzmxqsqQ8jB6JwbgYV1FGu31Vl8T49coUpQr6DOmjvNH4FXbocNOW9ov6jImVQlQCp3AStDBIVcxZZIflRDdEtJgSd4nylAYvv+YBW5YAqpe3lhK06Hd/glBeVxEOVM+DrexV4VP78ki2gOGj5uZssplcmKXl/GeGq3I57jZU7hdp/ZB1IXbgIHgRUxoNWOoN7tKVkDim2LCde1QblfySRrnzoK+1mEE7TjcFkwD/Aj4K8QrwiuBFO0YfylBptdWwKjoX4lI81lQAl2853Q/Vm98CrSUiNLzhSx7bCR1AnSB+5TV0DSP23CmspJ8bJmErxBXeDfoSmXFumjnn1GT0m1Sn4yH1i8laJiOLdlQBN+FfhxO7i1VR0OdJ+1PeXvkXxyXKSrNjOYjJRSXQ+gqcg7AkfIIO1iuRN+YU/kwMrjleptxcOV97DKwMEWdEvgiMRGIrAXQKIwC0dshIglD+Ub9ApKxml3yW/Qh1XFWBJ4v1EIbMl1EJJbkk5x8E3hCX3oKKN+u7i6y8flkQ0q8jqSJtTg2Bp+8oXJBxJgM/E88pFhbII9LVXBZehmJtgwYjAqSITyNfsKi9ABIa+V5WFvKK5xL1FCwub80G31OeXAZXoDxE8+dpLvaZbBIA+8qWvfyr6fB8f4u4xLJkQymQpH6YieVPe985FFDqsLxryoVaVYMw3xv7oBFQnUj6Y7wTW5ZRhBdB6p4+kkQq7UNpWJxY8apaufOxUfC/f+/g6uXxO9N1bNYA/mG0FkqL8+Z1B4/vze9nMvdzf35/FoDraO3+ognjudaUKP/MFZrJP7gpSfECmir8Tg0AANrR3Iyr/xX3+MMnKGclHg7zDifnDJdSG9winctfELUFAYo5XSV8Vn88H9fFFdCJi1qosGglBkfCkCo7s7g6+dxylPJrMVmsw6PXYRUZGPJtBdRQq0a38WYWtigBBOG8R5IgAQU4qyqV8pEk5Md6NQv1XbXmv3//dc//F9QRkRi4T5OSr5oZUhyQDBAnquLPCVCY23+rNF8ioF7+LGlYeIFS8twz07vKQIqjxPftdE4psb+nc1IuIBaNo83sNyor3uTvQk8AT8a5KgCCjcd81fCCfu4JWH4XTdynpEO4i5/kox394RdUA5FjyIVcr2rL02CqVUeKjFUKXR6xu7m6bvwp4KtzwDw5N2miFALvcYVWgLP6NnUjYTYkagYpmFitfH+1UncTkql4FqrkEfEj8XCzQBAzsb8iNYn6tKLX7KxNXMDgVggbRNma3MsHJyehfdf4fr+wLEHzjVwCixF6/Rkyuoj/FIkOsJnVeZcIVTVghVvtfGYrlAZDIs6puQSym/uXnXv3s8+flKYE7JFm5VSWBaML/qDAxdTK/173+zsf/6fs+YqgvQFBja1/+s+LY8whYm8g8qz7Edy0ZIPwbry2/fy97VAN4+fu7KYm+uUP8TswDf/hOBV/6b1BiyzHd8sgCHwxNnQd9ZiayxkY18yPhe2oW+t99v3/Z+f91X/jbAKE8opEQoD+mDv/8CBUmXR81rELDi2SU+EgHKNNNItpXrFhSonRasT1yJ6Kr4MCVnwrKovp9lZzmLTXIDu04sB2HvtyHo0iDK1Q5LEI6HRngi7R2BQfgFGkgyfNVV2S+FYjCxJJRs/hbYQwqL9stshsiyyFWOjLyVScZYUti4AtgiNwqUFJTMloWkavEaQpCoVZGihVxay6Dm0de7Y7b5JEV931n9uPb99aRuO2GQobUQOx9VWg9qAVbP9pKUbYDg0jpqWkjiSj2UUzFQBZ95NLLyF7eU6T3RUMIfK5YsYlUm+rrfUGbDNbEu/gmF5lJ8ShEQ4dWybL6aHrls5qyEpHpWNHPvglI2oe4mFg2if0Q0Q4q4U7rIaFDdW5npFOQXqCk7XyUQNGmHvALs1K1fRXObzuHVmwDiW0N0c++Aa/+13PXwR8yral+T+G8q6s/8W+BxRXOzhdoqLhaUXtQ7myEU/SKbQcPOkHJ8x1JoDpRuU0hbFW0ERpMgVaaPNKQ/esPKpOX2BoSGR2nhvufacu5o2cpOVuC26qeBSD6RdituLcv+6GmHv8wccn7adQAVSUA+gaZkkNWJjLfZKaudDwqElranAKMA71vrKmTrY8FL/G+yrVEUCn7UEYS6vhQ39lH+NQIfr9IX4rviOuLthEOVF15yrYR6HC7/g65VO5gedCY3LKJ3SJFXaiX23nSVgRQR9qVuuIX7Squpzpft0gli2uIIfSniVDwQcRLCPyxEmgiFhdiMha2K8iHQkItKXdiRS/2G0TQr2wVSj8gs45iP1n1ASrGW1mcqvamtsefMmty4riT3vZ43XQY3J5fN/2GPkeHXmQdtVrccmtHTQ+rix63RtlSkFkxX/ZB7V/ffC19bLktK9mt5t2aSXZIoCWA3PQ82QcakecWD3yv4Fg6WZUyqM68PoCfzFZpoHa7umQn55B3OVvpP3GpEr2SQRB9Knd61XGjbiT4BmJ5G4nbyO1FJfMg7UO0m2rb0kmWT8Rqu8rMUIUMgsiYii0j32JG9Hmxkt2V1F3RJz4yvQy+KlIkK8wVajuK7Q05icixqtq5j0pZYf7wIcwl0VLFJMstH4OOFmNasnf173LrTboz6QsVPyaJvj6jkGhk5JaD9DpqgkP+Xhi+IDL6/Kd4HjEOStQtHIsbjbBNuZ2rSLTL/Zw8i0fd1hS+y+cD/+vm/P+lK/19gCDwkKKBZRpU5vQlflZEzL7AXqbaJPLWl7IVwYRYVVWYlFVUqBzEIh2uVQ59Eg5Z/kxsxgvjcIkgQSuN04felelV2eCi4UW335k0ZLSm1TB4/gt89c4KXNli4LuUfW+5ihLGou7PO91odUI+qUT2AuKiRBB/yDJJ+xb7gGI6lftkcu9ITXW63GjE6l5gNFEmUPk04jvid8L4BRZTTrzqUFJtVjyHgkJWHaCfmVd/GM/5s2fZ/8V+2r/0ELs/3UPRiQJZ2Cge7cGB7Xl4fCc+eGQOjqslsqgOu0hN6ZS9NlF7ISZyMdDE83oUA1QcrHgmkfoW0ioxmSvtLvpQpPkFZVJ+R2Q/RPCjFylssWpTVt9ap1vJAMjDXiq0lZjEZNWaipoWz+Q7NEddVYvrukX7qhOWaImEVvGkZWVQmmMDUXwnD3xSl4peDQFV/Wn6XFN2fvwL5lyT/FuRhpMBjM/DiXM/7sK0+4qjZGeIYimRkhUTpFgdqucHCOMScYtv70P0mVZtKNGTbqcaFcjAT7SkB43MyihBn7AB4Qj1Vh1dBnVmz66d5J1zYpDHlQhD1qIp0dCkc2Ou3rqG87QDj2ggq1gZqHUzsukV25WhmhgDcgJU+kc8n+gTnbQsEQiAt0RJL8v7i987lCBPxkBat3xPmbkSGS01eBD2qWTplMBHuWGFlLdDsWGx2hUMAxFkSicsVjwyna8euCP2Wh3CfrzSJuTKTnWOos1kMO1L/wu/oBNFe8r95OQdoGHE/EEc3XKUExvOKWdsqMGcsCmJZRbX8Qo79CjnPDj1CgJWrVuRfS/+J2iRYhyLLT/ZfqJ/1HoWkX0S9qSakry/uLY6MYsm8G1VypoE8b4WLw6RQRDlGqL+yO1C79bJIFDYglbUumi0uEWNjmhjkSFQdwNkzYSkZeuwaRyM+uolZr82B788C3qXWyaVvF6dOMbmj9kPNZXvEcGTUTz7nSW+7H+tBr1BbFe6lXY0aImoFEb19tUlIO3c3nOknEmVixFBEvTZkXi+8o8wY6Gw0ehk+8rFjLpIE2eLeC0KqvqB/u0kCOrGrkR0ok9E24s9dLGYEmeiiMyTjFHlKkqpp5DXEzUEouYAvE63lLH6hqbcqhK+RPgXedCZmHwV9LbbKfyIsr0hUMfSucnDyVR/JOxQtVORiZEBisS3i8WXWhOm/p20G9Fn4pmFr6r4kQGI4nvFSJHPIpHnwj7V7SDp05QMotclfJcXvcOAtsCA3qxn8NbBfPLCfIy5Brwi0yWdomJrIniVoUe5b1HmLBk/i2BJr1HiH3H4g7Q7pQ88YjvYJdDtOtn+Ighzmu3SroXdybbwJSBF0k8MdqcyB8l57z/4uWeAINNuIXoa9W5AfL1Y0s6mYbAa2fPN73R+qhOnDpwi90aOTIW3792OXWt3ExAfLLWeerOB41uOknI+BY166EZC3apE3F+JStHRGMwGflu3i7qNakt4x+UTVzj98xlMeiPterfDv4o/BUkF7N64C6vXj/bD28uUkzXUyrndZ7m8/6ocYC26tCCmYRSFKUXU7lCXpeM/JdwaRpOnmmAN9uPErhMknrhBREwkjbs0xOrvh8nPwL4tR0moGU+lOtHcPHqTI1uOYig1qOc9aImsFUqzns0wWIyc2naCW6dTqVwvjqZPN5TFR6e3niTpXJqUlYmOHvbZcDRWCAy2Yisq48sZa8i5nEPd1nXp/lJnwqLDZPvsWvW7lA09PeExajeqw/nzl6j1YG1+WLmNYGcI9Xs2ZPZzs2nToQ1dh3eiuLCI7IIcKteO48PH59GkdSO6jeiAOcDCjq93cGjNYWLrRtFrVE/C4iK5lZTMV+O+wZkhVt5uCZQRsrRK9WOwZzrY+e1O3EVeGnSsJxHYAjn6+8bfcWa56TjoQXIyckmoWYUDWw/TuFNjqeK4vO8653dcQCczFeIQFi+1W9ShXpe6Ekm6d+tuCtJzadaxGbFNqlGQkc/O9fskCKblY83kBOIf6i/pe7Y8Ozm5OYQHhVK/Q0MMIXoMOj371h4k82wGQdWC6DTxYdypTonn3bf+ACkX06lUrRKNOzckMNyfw7uOkbQ/GX1phboIr4eoWlFUbVWN0CphWPzM/Pb9Lho0rUdEQhhHdx3j2uEbEnPbplsrAuP9STyexLFt5wgMs9L+mQcwW80k7k3k7C/nZABVuXYMxlA9N47dlBNw0+6NycsupHK9GMJqhnLr8k2ObT6DwS5InX3ISMyg8FYRYSEh7D9+BEuhmQf6tUYbpOHqkauc//k81iALbZ9/ULIrko8mc+znozKdVqd1LVIyUilOKpFBwDNjerPjm1+IrVtZInsLb+ez54d9GNDT/rmOcnIKCgti7bxvMfsZ6fJEJ7xGJM415WgKCa2rUa97I+mgjq49StrlVLn/LgLFGvfXon6XepRkUBAyCQAAIABJREFUF3P4lwMU3iqgReeWxLSOk8HIruU7KcwsVBY2QS5eW/U6Vy5epEnbZlw5d5Fv5nyHI9/D21+9TmFWLoHhoSyZvJinX3qaanWrsWvrbzR9oLkkcVZvW5OGjzQm8eR1lgz5guq1qvPE6EcIDPNj344D/LzmVyKCI3h6bC8q14yRZ7qsenUF9kw3dVrWwRJm5tSuU1JC3PDhBlw8ekWyRBo/dh+aYi0/ffMLxdlF9B73tCSfhlcPJ/VSGik3b9KiY0tstjJ2fr1TVqrrRAGniJEDzbTtK8A0ISQeuSUld3GVK3Nf21oSM31oy2FaPdaKvLQ8iopLyEjNoFmnpuhNBg5vPyyltnq9mTZPNJe2kHQmhdaPtWbmyzMJ1gTStmdreXbEreNJnPz5DC6bKLQWW5AeqrROoPETDdCWaNm1fie5N/NlQZn4xDepQky9aCLiIhGHHu3e9juZlzKIrhpJiyeaozNrObXzFImHkzEGGnn4yfYExgSRdSGdI98fxClXuErQ1qRHI+KbxmMrsrFz406CQwJp0bkVOj8d5387x/UjN3jwuQfkZBcRGCV96cEf9pFxsoDQiGDuf74N+iAdp347ReKem/L9TbEWoqpEyIBenIvSpG0TidY+89tZrhy8KgPIph2bUK1FNWw5Zez89jfcRU6aPNqU+IZVyEvMY9+3B3AWOGUgWqt9DXTBeqo1roYeHQe2HCLzZgbxjeKo374+Rr2Jg5sPkn4hg4d7d6S4uJiAygH8vm0P7R99UP4740o6B747iL7QIM9mEBNsaMNgWvZsI8/WOLnnJH4mP24du0XPUb1YO30tXqeLhh3qk3gzCXe+h+a9mhFeI5zMi5kcXX0YbamBwdsGM/+5hZhyTDIjVad7bbqO7UZmWibxtWM5uPM4/kH+NGpxHxeOXGDj1A2Y/Mx0fOVhmrRrTGFaAd99uJa8lGI6v/AQjR5piMPrZseyX7n82yUem/AoddvX4+qhS4THREgU9A9LBGxNIwOUBu3rUa1tdbKTcji89RiOm3ZlYfgfihP+HCCIlEqxjq7vd6dQm82ezbu4r0EDuo7vwftPvM+Lk0by84YdZO5Pw2vx0G9mPzbN2MCr37zBnDfnUFJkZ/SHI1n9ziryzhfKKFE0XNOxLVj+6ucEhgUwZv4Yvp31DdcOXmbYRyPZ/tmPpB3LIPi+ELLT83igRxtuCRnb8VLGbB/L7OFzKM23MXzKIBaOXsKj/brgNmvZ+dNvhEaGMn7eOCb3nEKtKpVJykrD5XEy+tNxLHppMWGhlej93hPMemU24ZGRjF86jhVvLOXGxZv0Hd1PoiqLdxXgCARzhB+vrRnDzAkzcBS7GTntRdbN2cQjI7rzxZwvMZd6MXhMUtYlYCvmIBPTjr1Dqa2U75f8QLcBnXHZnXzz+pe8/NkYfv35NxIv32LohBfYunA73Z/tjCZUy/ol39Gtd3fC48NY9dZqnhj4KMWWMk6uO0aPVx/nt+92SjVFhz4PcfPcTY6uPyrR1ge37KEsv4yH+3dlx2c/0nFQV44dPMzB7UepE1eHPUv3QJ5ghnuYemgqP63+gRMbjxBcOZheQ59iyWurqNI6itQzGTTq1IToBhFsmbKd4YsGkZ6Swk8LthEbW5W80nxyy3J5dcHrfDtjPbcPpMsAoW6nBJr1asWXs1cRGOxP5bhY/AOteP10HN59mLiqcfQe1YfZQz/GZDCjD9QyesHLzBk4i9qta5NyM4UaUVXoMLoLC8fPx2Q28dKHAiY0Q8p7RqwZzoIX5+Ey6nj5vVHMeeET6jQWWxNpUhr3zteT+WDQLJxnS5WqZrFgKNNQtWU1nvtqINOemUZQYBATvprA1+99xbXfLzFm+QQWjlhCoNGE02Aj31FG3wn92LfmME8PeYKvV68g53whEf6R3L6WLre7TCFG3tz6GpO7TsZs9GPS928yb/wCuXoQgdQLk5/l+G8XuPjLWab+NpnPJy0j6WAig1/vx7bN+7CmWcnQpeJ2Oek7qR/fTPmK1z55g/Vr1nLj8E1iwiuRci1FHtgUUjOMgdMHMuf5WYRHhjHx61fZOPs76jxQi2/mrCSqUiXaPd+NjZPXogkyYI3x54VJA/lk6EJenfsKC6d8Jve8h84ZzNrp3/D87EHMeX4uBsyY7HqKsgrlSqpZp8a0fe5B5k9eRGBgIKPmD2Ph0Pk8NPRhNi39Hj+3H+ZcvYSqSJnZg5GMWTtBHh524pcTPPbKI1zecZnvpm9l8u7XyE7KYt/6PbR7tB3eQA3bv9hOr+FP4h/sz+wBH/P86/0JaxLO1sUbOfHjGSavn8zlMxe5dPoGvQb34PtPv6dj94fwGN0smbOY+tXqs+vz/ehLlLNQXvp2FLP6fYSuyMDw5S/yxeTVPDK6K5sWrMVkCWfw+wOYO2w+H2yazJczVpNxJJNHJnanTsuaTH/5I4kX7vfKc0zv+hGU6WTKf9CigZw6fYZTP5+i9eNNKfHYcKXYeXZWf2YOeJ+Ci26mbH+Lrcs3cerHi1SpHkNaWipao55BH7zAxyOX8tyEZ0nOu8nBbceIrRXJyGnDef2RN3hj8ZtsWf0d1y/foG37trjscPibI4iiXRGA9prdi+/mr8GVr+flBcP4ZMgSDFmK12/YuyFdR3dh/shP5dko/aY8w+LBi0iIr0Kq7TYajY5Rc0Yxe8B8hs4YxC87tpN0NlkyFULMOnZ/cRxXGZj8TTw581G+nbMOf08AzlIHQZEh5DoLcLjdvDxnKItHLKJtj3ZUaVeF1e+tl7yF8Z+OYPagxbw4/XlWzFpOaWEx/Uf2ZdOC7bTreT+BDQJZP2uNlMmNeH8Us8bPIf9yASM/HcHSCZ9Tr35NwmtFsnPbHirFRtN3/DPsW7OHqm1r8/XMr4nxhFF4rRTKlK3q5i83o93Adswa/xH+bn+GvD6ET177hCo1qpB6O02uxF+e/QozB8xh8LsvkFmazY/zt2PSimJNE0X5xXR79hH2/36Ash0luIwarAFmxm0bzcdTFlCUmc9L773EyUPHObvxPK+ufYNpD0/D6/TQcej9HDp8CnOWFXdlFzlpmTw16kkuH7nAjfUpDNo4hAX9F2HONOH29/DYjEdoM7A1e9fuoGrDWsTXrUbiiauUldkl9n31yOU8PLArplgzqxZ9wTMD+mDRWflxxQ76v9uHT6cvI9hoIetmPn2GPkV4rXA2r9xKx24diKgZzjfjvuLM1rNo7Abuf64N/vFGfvp2B9Xq1KRzny6sGLAKt8N+57DB/8PZhD8FCDLd6NXQf2Vflk1dhjlbh86jZ9DXwyQbe9j7o/hp/Q6y9qfh8nPQf/oAflryozyN8PzvZ2V6LTIuhF+W/krykdTyAMHbWMPR5YfA6mH4rJEseXUxAekWHp7QleRbt7iy4xadxz0so9GAyADSLyRx9OsTPDH7KZaN/QJjkYlur3Xk0K8HGP7ei6x6fQXp5zPQmjWM+HQEn7+5nBo1YmnQqZnUv8c1jWXlxNWEhoXTom9T1k34XrIbhi0eyhcvfoHepqfN823QWDUcmrcfewDUaJNA/Ydqse7TLWhtJmrcH4s+TEtUeDQJTWuRl5LFoe8PkHM5H6/DQI3m1Ri2YTDvDJhC0YlSnnyrB00fbUb2mSyq3l+NtJQ0vGUQXT2K47+epmXXpsyf9gnXvr9Kk67NeOG955k7cC4Tlk9ky8Yt1IipTlBsIB8995HkqM/dMY+TO04RG1+ZUoONuQM/Rmv3MuPnGRz4ZZ9kdFdvU5PMm1kcX3+MfZ/vlxRIIYObun8qnwyeS/6hEtwBXl5cPZTPXl9Jpz73YwnyxxRikjyGL8Z8ybC5g1gyaSnGYh2V68XT6tGWuLwu6reuy+ZF27j441W5Ouk/81lO7jrI1e/FIUEKGOXVL8aweOpnEoBkDNbxzq/vMqXHu2jtRkYuHsLKRavIO5jFfT0bkHItmWph8dTr0pDNkzdKFkPPGT1ZP+VbQkMjaT6oJbvf+wWXQPTO7MWat9dRp0kt6re/T8qomvdszexBn1ByOA+NlIaKrRCo1roa94+9n+VDl2EymJiy/12mPDsFxw0X3V7vwoEfDmJw6ujQ90GcTnEYTw0Of3+E7Nu5PNinFRmpOVz96SqXfr8iV+hiL/OpKY9yfv81jG4TYfX8OfzrOTo89YBMSwvN/q1TyRxcf4QpP07inY7vYMzRMHDes/y4YS9+xX40eaaRPMVO6P0XvLyAhHq1eKh3W3JS8rh+5Bqndp3G4NDjCHBLvO/qqSupfl9Nrlw7Q5d+3TEbjeSnFEh3ULtlA2Y9NwOH0c3QmcP5evG3OG/YGb96FFf33ZRckfgm8ZzbdRxjZT9iI+O4eSWZE5uOkZeSg96po0Wflvx6ZBfB1ywyVT9i9QhWf7aRh59tj1+YmeTzqRxfcYiyLJtUUPSe3Yd6T9TnpY4vYsgMYupPr5OTkc+tAzfoOPZh3uk6CX2egcn7p/DtrPXs/+YgExaMpUrLWEa3eY3pW6ZQoill1pMfMm7BRGJbVmZs5/FYy0J4c9t49m7bRWhwCK0faSdXZyII+XXO7+jKlMCvx9hHOLbvGLXia2IMs5KTmUPj3g3lMeMOt4a6bWrz8bAFjFvyMguHzMeV4aRypyq4nKWkH87GY3IpFM620/AW6tEbdYz/cTSXTl4GmxuNv4f8vCIyztym27AuzB0yB3ehldc2jmHe2Fm4UvU06NiQWi0TZKBXv11D3u07ndFfjGLhq4uxpejw+Nt4e8l4Fkycz3vrP2Bat2m4i91ozdDnnT58NXmNlBY2atmQ1q+24vbFNDxlOhIax7FywlcUXytSAoSnGxJVP4Lts3fgMLkYt+wlFo1aSL0G9ajTsR5ul5cGne5j3vD5vDxvFB8MnIk2W0tEZCATfpjIlBbv4BbbswYtT7/7OMYgE2lXbvP7xt+ITahKo87NcDtd1O5Qg6VDPqVJ59bcyL3Cte23JdJ96Cf9OfjLcfqM78np3adkxjY4Koijv52gcvU48rJyOb38OE6dm6dm9uHbd9dizjfQc35P9n6zjydG9mDLJxvIO5Uv0+Kjt4xj3ZzvaN/3IdxOJ5lHMtm7bh9kK3UYjV9pTHZRDpd3XMGQa6Hl0MZcunSBapWqU7NJAnacNOzSmBlPzqTv633YvGYzuaeKiYgOlgh8sb0WGRfFb5t2krIxCU2xAb86frQe0pQtn+7AUOYlqr5ADNfkzOZzvLbuDaY99C5el4sOwx7g8OGTmNIttB7eGr1WQ1TNaBIPXGH/wsMMWjeUhf0XygDBFeRhyPKBWKpbmNN/Lk+O60Xjro2Z8tRUaje+jxEfD+Gzlz9j4DsDcZvc5OfkExQcRIApgLmvL2D03FEUZReTfP4mW1ZsY/zCsfyyaQe/LNpD0w6NGDprAHOenknW6Ty8dh39ZjzDynkrMWX64zB4eGnZEFaOXIY7R0iYK1ad/p+LEu6ZQRBFek8vf4q9a/eSejaF4IhAhn46gmlPv8/zE5/n4rkLXPjmItHtouky+CE2fLCBIZ8OZf5Ln1BW4iQiPJSC5CJ0xWJfy0uTB5vgrevl5LLjcuU/cOZzLH/na/wTTbR/90Fu30zGWuZHaWgJR/YcoUGbhlSJjuP418d4dPqTrJywCkOxka4TO3L858M8MawnR3ad5OwPJzGHW3ll+WjmDZ7Fe199wAfjJ1OQ4eT5twfw44dbCIoOlZjn79/+Qe6lD509mBUTV6Bz6Gjdp4087WzfR/uwR7iIrhnFU+8+xYKXF6LNN9HtlYc4fe4c6ZeFU3JQ476qPNq/O0te+BxRINl1XHs6vNGRDYs2cHt/OgNnDiCzJIf8c9k0eKwhy976TBaVuUrdlJW4eX3VBHas+5ULv5zjuckDsYT68enExUz4fCwzBn3I430eJ7ZZLKteXUnttvXoMqILH77wEQPG9iM4MpDFk5bTrGljOo7owLez1lKcmkeAvx8PDHwY/2ArczrPwZOvZhAOTuWrt1fJSc8aFsCgWQM4sOUwjbrXZelby6lRrwYd+z/EyjGrGfzRCyx9cylGu4WRn7/IllUb5H7nkOnDObDtMBd+vCwn4y5DH8IcZGTbnB/RW3QEhwXRflAH9v56iNsHkgmOD2bcN2N5r/P7PPri41zNvMy578+gK9FTu2dd0q+mEB8eR53767P5vW0yK9Ftaie2zFtPSFAkrfq2ZvfsX3BrdPSa3osN0zfy3rb3mDHsIwozC3hn7bsSheo67cDmLJH7k8K+qrapSrNeTfj27bUYdQam7J3K5L7v4rnlpONrnTj50xEefLIjR/YeIPFMilyBJ19N5cIPF8gpySCiWjSvzBzFzD6zKMt0yuJKYxw89cYzGAx6lk5exvB3RnDm9En2bzhKsyeaEWz2Z//Go0ze8hZTH5iGLk/LwIXP8cuGHXLVtebLdZK8N+C1gXw3bxPh/v5k5GYRHRPN+JUT+eDJWZTdKJI1M5Xio7nvyfo0ataAhUM+oduIR8gsy2Lvqv3yPANLsBFPupO+Hw/k6O4TnN16Eb0zkMGLH+Pzt1fgKvYQEhtO2TkHhuomiosKaN62Ma2ebs6yQZ9hcFuo1aMm7jAnF9ZdxaQx8vaGN5k5Zhb5hXYcWjudH3+Q3LxcLq25JGuDhq4bSrVWCcwdM4cQSzgvfPAcu7/aS9MOzfBavbzTcRqRISG8/dskDm89xLHtR3hh1hDSb6SzYORnzPztfU6dOcWPs3/huVFPU7NbXT5+eR7RgVH0eb8va2Z/Q0lmkTzZsdOAbnLlObHlRAw2o9zzDawezDPjH5PntK94/Rt5vsp9Xarz86pdeB0uokIiKblVwujvxrFo6Hy4rSGiQwxlpTZyzxTgNrj5YP80prV7BwRQSq/lpQ0jWb10JVmnszAFGbB79DSsXpN2fdqyfPgq7F4NEza9zPyRc3FlmXllwwjmjv0YTb6L11a8wdxBcxg8ewg/fvkT6b+nY61m5fXPJzJlwJtM2zCdef1nU5RmI6J6hDzxb/fivehKtURXjaL5i41Y98n3uB1OwkOjKE20oRf1EF5o1KsR1lr+7Jm7Xwb3L68cwYJXPmXCpxOYO2k2riIXE5aOZ8nry3hp+kiWvLFUwcvXT5D2vbTvUnmuizitUFfJi1PvpO0T95N5O5sez/Zg3mtz0ObaGTR/BOveWUvjTq2wBxVzaNEx9HYTL38/gi+nrpY+af5r83AVOQgICyQ/q4xHhjxCxs0sLq44h8vo5PEPH2fTB5sxFhnoOfNJ9m3ZQ8v2zbl2OZlLW69ithoZ/d1wlo75jLySHDT+0GdkP64ev8GZZSfRlehoMLoRMfUrseGjzZiL/ej94eNsnLOWoR+8yMJJn4JDz4SVo5k/YgF9xz/L9m+3U3A0m3ajOnHq6nHSL97mgW4PkJWRR/K2RHQlBkx1LDz7bm+Wv/k17hIbXfp1pVRXyLHVp3hnxySmd/tQHjw19NOhrFz0FQ8+0I7cogx50mHX57tL/P+BZQcYumoEC/stwpJuwBnuYsL28dy+lcSaYZt4bmVfrFFWFvT5nO4vdaL94AeY3Otdpnz1FsdOnuLg1v3UTKgmx2hUbDR2l4MmzZvQeVhHvp75HT2HPcqFI+f57cv9DJ0ygKC4AN5s/wb6DKNk8/R6/3EOHjpO6o50AmqYGPThQJYMXownV68cIf0f+NyzBkHw1/1bB/DSZyPlsboRYREUOouY+ewcQqKDeG3JRHIy8/AL8SP9+m3WvLyGFv1a0m14F3KzcvHz8+PjQR/jSHdKB960Q1M8tb2c/Ow4ZR43Qxa9wOeTviTwhpW2U9qQfztLIlKHLhnO9WvXqV2/Dr+v28Xxrw7TY+YzrB6/SlaVCsTw6W0nKEjNZ8yGifJ40vi6cRRmFzD3uTk8MbQ3QbUtWPT+GPyMrHxpOUHhwTTs14Atb2yVVbfDZg9l+bjPJR60db/7MfhrOTj7EI5IJxqThkeHPUHdHnVw2MrIz8pnxZsreWPFW3IfTKxOj+88yu+LDkpka//FT1Ore22MFoMsXMlLy+GDAR9gLbQwds14QmuFyb3PM5tP89XU73h8QjceGNBOFqCIdPWVi4lc+ukKXV/syKRek4iOrMSYZaPlMcM2Rxl6rY53Ok3CEmbi1dVvYg2ySoXF5iXrceZr6T3xSaVYTOPh5+U/sGueSNHqZYHn1CNTsJfYyM3IJ/a+WD4Z9TG2bAevrh7LmUNnqVYtgdtZaXwzdh0DZjzH5xOXoSuzcP/zLWjVuynZiTkkNKjBt3PXcennq/I9LAYTQ5Y9L4s9Q2PC2LxqC+d3n+etr98gKzmTmEoxzB4zm6oBcTzywWPcuHBDrpJPbDuJw+gi+3oasdFx1Glbn81Ttsp9tUfe7cLmWesJCg2jbb/W7JzzM0Kp0PPDXqybtoG+bz5LQJUATF4DlerEsGDIPPq/MoBPXhTn1hvlir9amyo07tGADe9vRK/XMXnPVCY/8x6aVBftxnbg1A9HqVqrOt3Gdebyhau0bN2SH1b/SNsWbSECCosLJfRr0aClaIWj9XokeOfZ2c/ixsE3k76jRvMq9H71aVIupsqDe47+epjDm04wZeMk3mv/nnTQfT7qw/6Nu6jZoib1ejSmMKeQGk2r82rvKUx4cyTWyhZpUyGhYUzvMwd9iZD8uaXtjPpiJDdOXuPnBT9hMzjlhGAKMuLvH8ju9bu4uv8qY78cy7G9J2VGYMviX6nfphbdB3Ti9vXbMjib13cBU7e+w83rNwiJCOHo2sP8vnQXOgFPMRp4cfNwHF4vwSHB7Nn0EwfX7WfadzO5fi1RBozijIq0/RkY9FpGbRlFaI1weZSs2B+9fPQCi0auZtbOafy+Yx+/TP0Zo0vHkEVDqf5QdaXQ0gS/rPiFn+fvZNynY4h7oLI8gnzVhBW8uXYyQfGBsnBv31d7uHUplf6T+qpFibB71T62z9gGLlHtpkVnsvDS6mFcPnOZX2bsxK5zMHTGYCrVDsdoMnHut9Nsfm8rY7aOZeGg+ZACUZ3jKC4qJv9soRzr7x+dwnv3v403TzkS3BBvYOI3E8jJySK2djyfvbyCIKeZdkPuZ9nzK5V23/gKC16aR1mqnr7zeqO1aqgcE4N/kIXXe75JTNVKvDT3ZXmCrMjgFWXl8VG/OZJc98rckWTcziSyahQf9Z5FSWaxpESKT8+pvah7fw1ZIJd44hbfvr4BfZlSot+oZxP0NUwc+uSwZFeM/noknwxZSJ9X+xJaKxCjxkCl6jF88PT76EONTFw4nvS0dELDwvho4gy8h4SqQ4vJamLSr2+RcjOJiGpRfDx5Pq0fbEON+6pJwF1E7Uhm9/mQFu1a0OiZZoAJg5+e41sPsvvzPVTrkMCgqYO5fTMVs8HEB8/OpvuI7mRmpHPh6zNyT77H24/LdjeW6HliuggQdpF9I4/xq8dSWmIjonI4y99dRoQxjF6TnuLChQtUj6/OolcWU3y6AH2RjnqjG9GwS31CgoMxGs1cOnOZje9tYuD05zCZjPL8AkEFnPzMFPq98iw/fLOd4lO5VGpTjf5T+3Ar8RY169dizSfruL7porRPh9lD95GdaNWjrWSHOIrtnD5ymr0rD9HjlY40ebglHqcHm7uU5e+vIsoaTb9pfbh08iJ1G9Rj96a9HPjiAEO/GMqivp9izTShjdcw7dg0vpu/jpMLzjJux2hup6Xx1YQ1vPDR8/jFWfm4/zx69H+Uh8d3VooXvRo+HvMxL05+UWZpRZFi+qVUZg5dwGMjuvDQ8x0V9Y0GzoixMWIlxmKjrKsJrKnnxa/GkJ2cR6UqEXw5/UtSvktHSDz/UwrIewYIWrtGyu8MoXrJuM7Jy+SZaf1Y+doKdGVGrAEWgsKD5IlRfhYrpbdsEggizm23hurJv1GAp1TRNIpqVLPVJOlg7jSnPMTFP8aPgowS9AU6TPEmvGVuHKV2rNF+mP3N5ObnSVylJsWJrpaV4tQiDGU6LBFG7EUO3KWgCdcQGh1MQXY+xgAzJbeLcWm88jAYl92Np8SDK9suq531UXpKk8QDaQiI8qc4VZyxrsEULnDQLtwpXkUiJaSKJTpCagSgM2nJTM9CL8h0gRqCQ0Nkx4oCJl2hHlHPOmrzUBk4bZiyAUuYgdxbeZCuSNREgVpolQgcTif5SfloCzV4/TwE1QiSldJGnYni0lL0Dg3GYDO5N3NkRbcl0kpgcIDEigqOdkFiLm48mAKsBFb2p6jUTpm4j9ZAUOUguY9fYiuiOKUIQ5FZYQoYRYAwmZnDPsKEGVuujdL0MmmU+mCdzEYU5OdjNJgoTrLhHxtAUVIh+hIT7kAXIbFB6PQayhw27EVOXAUK1ENWKge7CIsLw2Fzk3s7H1OJAU2glsAaftiySuX54/4WC9ZYoySHiTYT93e4nXicLhn06AIN2JOEHFWDKcqALadUStrMYUbsmXYpfbJWNVKSbMct+rRGoNSZu7QeHGlldBvZVR7tKyZl8dH762VhlS3DJu8XXDuYnJR89CUajJVNlOWU4rUZCKniL4tPS4ttuEpc2Aucsq8FGS3nei4GQY1UpU1igrFUNeH2uCjNcsgq5qAof2n7OVm5GL0GymxOQuOCyb2WK9P8/rF+lOWVymxTSFyYDAJLHGUU5ZRgdHoJjg5FZ9CRlZaNTtAHVUCKeAdrjB+l+SLrpsNrcEtWQHh8JDabTTLVzRgJiAuUlc/i77IzxMmgboJC/bD6W+SE5S1UCknDYsNw2F0UpBRglNXpCrPeE+AivJJyzdKcIjxlXozhFvzDAykpKsOeWSTJbBa9hbfOT2LP+n0cXXNEKjoykjPQlRgJqR5IYX4x3mRF4SR4AhE1I7G5SsV8gy3fhjPNg8vkJqpOELYCB7YkGwY/M0FV/GXgW3SzSBZOivbyC7JSbCul6HoZ5iLx7ooSQqg3Q2KtOEo92PIdigJH7yG0SgAa2BdIAAAgAElEQVRei5fsK7mY7Wb8EvzJS81DW6BHU0mDS7BECrUSyBNWJ4C8K/mS/CdBVRoPunA9flX9JSe/NNOBWW/CXNlMyeUSGVQE1/AjL7VAyoM9Fi/R8WHYistk6rw4q0gZQ4FGQiNCyc5S/F9JSqkMVC3hJvwjzOSm5kOmTiF/ulSNu85LWJUgiQ3OSszDJKrkVVKXMdiIO9yL85pCJg2u7kdBcrFUCUZUCcHldMnrF98uwulxYw2xEBhpJS+1ELvdKc80EFsF4tlMkQYCwgMoKS6R6F7xs4jYCNxuB26HW763n9VKIaUERoTh1Dhxni+WunyP2YN/pD9+/mZysnJw5opzHPxw4sSVI9Q6YI42U5pmkwssY7wfZaXF0n8LuFt4pTB53LU4O0csgsR5LP7hARRmFWDPKsPg1KPL19NkTBOyMtKlvxRNkJOaL1UUWitERIdjLy2Tdp6fVihX7PYiGxR7JIk3ODYYg8FAflEBdqcDY4aCqhSFikKGGBIbiNakx6Zz0eiB+uxbfgiT20VA1Qi8XjfFZcVybvDYvFiirPgH+FNUWIiA5zlzHFiqWim9XioPEvOEeAisF0heegG62xoCa/tT5rZjT7UTEOuP0+Sg5GaJ0HVJH2oJ1pOfXoQt3ynnvIBof2nLuRnZUCBowsJ3hssFncbhxVHqloh7KfkWIDSvG28IMsgqzs+XvlSfZ5JZpf/U5+9BSepTea0O2g97iF3Lf0VXYqmAfrvHY6vUOFGApdC4VB25GGJSdnJH0lKuv77rMuVSU5fAHCuADEHWUkhjUtAn/6IcLiX0qaqMTaqJhDpEHIErJGQqalhKn1Q+/J3b+dI2f10iKqWAPlCNWkoqrunS6Bkw80muX0zk8OJjUrevsYvVlpixlOtKepfkPAitsCoNk+AUVd/6V2GheE9VfiklnuJagh+v4mAFlU22rfo78TxihSD5BEKSZPLQf0Ff1s5aiyPNpVALJfJZcVbllDKVgyD1vkJeI5CgYs4VTtqnvxXGKyloFdgBQssjdf2K5ldmMQRHwC5kWuKcjYqyyL8w7YpsCjkj3EWvE0Q9+XOVRyHpgQLzqqVyy0okXUqWE+W9PvJPJK5VxSOLthQV41KfVeE+Ui6o2I7AgkuHreqmpcxWal6VwSs/vr7wjQv1v4oG+o+2JNkMQm7lQwy4lUlafMRhTz69og/gI/27kAKqunzZv/eilt7dbr4GkPJM1e7Ks5EV2+ffSFGq0lwR/PRd1Zddq3eT8nuy0g1CViaQulI6p4Kw1LGs0bkVc1XpplLiJmzYp6WXMrk7yD+fDygnXUqJtMo1+LtqbXENwfOQ35d6wjtAMBEYq6yWct6ICngq59NIpINGBmBy5hQSOsklqEC6U6XK/68csso+uDepx3dFn5ZfMCTUPlF9pRind5Mo7/kc4r1U1sqfqtv/yj7udaFyk1XtUQJefJTLP0O8VE668no+vbHKiinXO0oDvyNFL7+tKikXQKZaj9YgPz+ftEvipE1xZsNfnwlQ8RHvfgUpia0IDhNqBiG91XkwxPiR0LAqF7+/gF7gMIRs+d9tG+mi76DSpf8VP5NuTbFTnxS/3CkICa6QnsutAEWaKZHYsqZJ5c34riHYKZKLIzDvFfyq6vPvPOd/Tr3ga+t/K0AQL+40l6F3GNH8VWfKl1dHmiSkqP/2aasFc1uARISTlxOgcMj/QruhwkuUga9CqSV0RoVzyE4Q5yYo2lnZGareWGGnK+jMcq24SkksH1Q+kMe9iGE+Gp4INISWXTg9oRUXfyzlwVrws+F26jAU+rjnvhnjrhnEB6oRD+Qjxf2dBxKD/67YRRTjKdwGJVBQOJ13BqJQLkhYjorO9ZrseL1aefSvmLilI1SDCh/Rz/cIPhyBjAGEExXtUWESKB9Xvu5S4U/yGX1gF6VlFA3+v3LykmN+14SlwoDKg4Lyic/3LGpmRpyNIJn5FUh+d7WlfD+fH1ZZ+PJZxXuJQME3I4hn1ypgKEnE9D27JJ0pZ0zIIOQueqGPr383JVTeo+IkdVc7+NqxHHMqA5Q7tiLZEBWaxeOLDsud8N8YzT3aXAYY4nnK7e/Pf+9zfOWOTPShWQTTKkdDr4In1KBGtJFieupYUOl4gtkvFAnyTAgBKxL3lvhsFZAigix1bPpgOeVOSB1rIkiVjvyvPir/3sfIl45aDbrkGSxiMSB5IHcWIQrUS3XCcu5TAgRlrCjQJGHz8kyE/92Pz2cot7n3R4VmyWyc+q5yPvKKFaSK8PEBgcQVfH0n6WLqJX1+qyK903e3fyMOLH8wBUPwx0eVbaR2si9Ir/gmMjARMDmt0lcqIOgP/siHT79HC0h/Lc5pETh5EXSqEKG/anr5ffWR/vAdOYUoqGzJ6VGRDQqISj1OQ6tBJ84vkeP93+xcX/9Izoe68BQFoAJtoHIlxCJMQq+Enyjnbag3lawEH6tEvacPouTzL6LNhU8Wnwq0WOkL1DmtYh/9m0/+3/K1fy9AkPOSsm9ePnH9zeNIjKkYAPLELQV4IclpKjhDNI4oMPMNkL+8lLin3oXHJQAqKs9dXanI55DX8EWNylVkWlsCntzyQCOvVSErynvL/XolwvOteP7k5H0PIzHRApIiUTZKJsRHyRJZEvWAKoXlL1bU/2pm/G/pvz9eVJ1k1cW2zNbI8yT+J32EA/tPbcj9T2rHv3kXH/hMCYT/h9nP/0/68P/zr/mHKPm/6GlVwq1vmpIJJBXi9190h//fXebeAUJ5Tu4Og718Qatm5/4qIhMa1lGfjeSzN5fSqnsrEq8mknIsVVn8ikNt7Bp6THiM33/aR/GFwjs0Q196xdcFXqjZqgYtX2hO4e0iNs3dhkYcgqIekiVIc80fbsX1tMvkX81XaFdaL016NyWhTQK3TidyeMUJhUonDzPyyhP0er/Rh7XTN6DX6BXyl83H1q3Q93LB4YFSPd0mdabQUUT1ljVZ+fIKNDZllVgRXiGNUEChfCuk/5QZ+Q4Mkm2tEhHv8Xr/qcf7577/tMA/LfBPC/x3tYAPgV/x+pIo+b+SVfnverj/S69bHiCUL4DlEaFO9CaNxKcKrrvGpMeR58Lh0OKfYUQXpcWjc+IqdclJVhQHGkxGzBYjTo+Dt396gw+f+0gpMDKVok83SqyqNdyEy+zgqVefZsvS7RSfL0ArTqG1mnFneyn22BXUpyAnlljovaw3v27fQfK521CoweqwoDNoKLUVoy8wYAgzUGotRZ+vl5hdQQUb+eNwFk1djOuaC5PNiCHYhNvuwFHqUI4+jRLFjzqaPNUUU7iZY18exZXqQmf2Yo604HG4cGSX4TQqR/K26/0gJbpSWj7ZmkXPLpIqAWWf7i/yx/+XGsI/j/1PC/zTAv+0wD8t8E8LVGyBPwYIapbcY3TRuFND2j7dRgIaBFo67UY6W6b/TO061ej2ZldycrOw6Cx8MWW5rLYf8fFIbiemERQRREydGN7r9SFN2zTjcvIFMo/mMejjgXgtEB4VijnQzIKxiylNK2HUnBEU5OURE1eJVW9/Seq1dFkRnhBUmX7fDSDx6jUu7L0ipZa1m9TCYbOTdyuLDXN/oE3HNhy7dhD3VVHooqN5j2Z0ndmZU/vPcHr7KR7o/iA6o4aAIH82ffo9Sadv0P/Nfqyb+SVD546CQAOJB27w65wdPPVuT4Kjgwmw+nNk+1H2f3lYHqhRtU5VqWYIjYsg9bjAR/+T3/5nCP3TAv+0wD8t8E8L/M9vgT8HCLLoyE2zxxtTv1cjlo9chUGn4am3evHztzt44dUB/w977wFmVbG04b5rr7XDRGZghiEHQZISJAiSswIKSJKccxBJKnpEskiUnHOQnBRQkiigRCWDgOQ0wOSw81r36d57+BE5iv7He+/53et5EJlZofvr7qrq6qqvWDljJYm3UqnRvCqJD+KJzhbN2R9PcO2He+TKm5M+n/dl5OsjqVC3EucvnKJwzmIouVV2zd+NKURjyKJ3WPDhYhq2rM/hw4e4sPMyUbki6T66O+PbfSqjQcwPVVrOa8XW1etIe2in+aCWrP1gNUqKmRYTW/DT18eJCovhyLnv8ZwTBTdEoKBBr+09mdx3CsWLlSBr0WgObjpEWFQwb4/vx9jWn9B+WGsWDllMmXovo0WrHF55mAKFC1CwcUG+GrcdDTPd5nRn3fA1JAq+dBGv4BQV+1QZ0COPE/zR7v/3p0eghwEEAggEEAgg8E9F4KkGgmQ/bFaC4MKZ2D/sKCazi9KdSpCWmkjDt5uScOW+LKuqWkwc232Mgi8XZe3EeSi/hMjCJh8dGc7IJiMoX68Sl06foVrNahz+6QQ3dlzBFeShw/R2bJu2nV4juzF+2BTcZzyoYQbvbnmfyW9Owu7wYE5VaT25FV+u3IDmtpCjWm7OzT2B7rFRvGVxNN3ASjBHTx9FP+eVVLqYocfWnpJjvmrjirxY/0UcSV4Z4aobHla9v57WHzVn0QeLKF/1FUw5FA6vOkSFBhWIs8ZzacUlDIdK8ylNOLPpOD/vv+KrnCiIZvyVD8VEkYGOv0pB+6dOn0C/AwgEEAggEEDg/yoCv41BkDF4BqWalaBqzxpMrT8Xk81N18kdmTNxJr1Hv832Rdu59M1NCpfJz91btynftBJp925wbP0FipQqSpt57RnVaDjlX6vMpVNnyBOZm9zVC7B25GrMmS0MXfsB0/tO46XKJUh1ODi08jAx+aJp8kEz5vSYKYpzYk5XaT2hNV+s2ETabQc9Zvdgfo+ZeN0WBi0bwPqJ68iWIwdHTx7F+7MXs0ivMkPPzT2Z2WM6OfLmoU6XWswdtRCbRaNgsZyc23eLbuM7sGjoQspVLY+lgMr+Vd/K6oN1BtRnxeAVqE4LA1cNYN6AmVhdQSTdTkbxmGUGhy5KNovr8RTD/6szI9CvAAIBBAIIBBD4RyPwmywGyTlgglJNSlGw7nM44wWrlYlzP5zjzDdniMyehUqNKxIcGUx6bDoHNnwn+cWrta+BLXMwqXEpZIvJyvpx6ylUoig3r94g7UIapbuVIUfRnLJeuWCA2/X5LlwpTiq1qEKm3JkwHAZ7V+zFcT0Vzamgp9uo0q8Cp3YfJ/F+Mnlr5eHFyiUwoXH5yFXObzxLgXKFuPHgCo6bHh8xkgKvvV+HL5d+gZKmUbJBSfKXyI9JMXF8/1Gu775LrY41+HblLswRZur0rIvX7uareTspVu0FipQrgqjX/sPXP5AWm0q9Tq+x9sPPUdJE0m4g3esfvVICnQ8gEEAggMA/DIGnGwgqvNS4FNYCVr5ZulsWUFEcFslTrwkqU0HQ4WfYk4xpkthLxRvh8jEamnTphRAsV4JNSrH7KgwaFi9eVeTmq7KinORJEOQmGWxz4t4M1ioRU2AVzDE+/gO3zesj1XNrkp5YFXSqwbqsoqWI9/lf4rW5JV+B6qN0l98Q9CMml4oqmO1EJoMgVRGMbJLZR0FNN6MK74DZKxnfVLsgfUGS5XgziJ3+YRMj0N0AAgEEAggEEPhnI/BbHgTBFqgZZM6dWXJj378Wi+IV9dRNMrvgEU1vRqaf1Oh+CoCMAH9NFKAR7HSCiQ7J5GdyC3Y68cdHf+sjCBMGxGPkSxlcRIJxUbKF+QYng3pZ/vtx5q8MdrFHbGM+pS4uPyeZpMAVhEfyOZGhKEwGwRcgLj+7m+QXkgQ8gnHdRxOrC2IkyZxoSNawQC7tP3uhBHofQCCAQACBfxoCvzUQhLIXSvZR3QQf1a30BgjSnQxeej9Skh7ySf3pZ8mSBoJgTXQp0qMgCyIJFS0MBUnB+mu3vU+pi4wBQ97/tEtwWMtUw8eoeeX7/FSpur+wRUb9Kx9Pvu9NimBdlJ/VJXWm4DPPqOuQ8S0jg9Y2o3/Cs/A71KH/tAkT6G8AgQACAQQCCPwzEHiqgSC5y+WGWvEVWJLE9n5AnlSWj/PJZ2AmjxZ8BYB8RxC+wi3CMyFpMMUxxFOek/T/8lY/PfNTxkAwMaqCPthXkkFeor2CP17+vz+7wN/qx+0ISffsM0GEV8FXRSOjWM6jTz3BveyjUg7EH/wzlkOglwEEAggEEAggkIHAM9diCEAWQCCAQACBAAIBBAII/HMQ+PsNBH+Zz/8opBkb+gDH9n8U1sDLAggEEAggEEAggEDAgxCYAwEEAggEEAggEEAggMC/ReDv9yAEwA8gEEAggEAAgQACAQT+6xAIGAj/dUMWaHAAgQACAQQCCAQQ+PsRCBgIfz/GgS8EEAggEEAggEAAgf86BAIGwn/dkAUaHEAggEAAgQACAQT+fgQCBsLfj3HgCwEEAgj8XQg8LZMpQFvyd6EdeO8/DIGnECUZkhNJrrHHCYIy6Aj/StGiJxaxeFVG/QWJt39BC46iR7dm0Db/kQB41Ni/MHJ+imXJBvksQkXQR/uIJZ9+PUtbnuzP4+/K+N2ztEW04N+lef7R84/G0t8NQ1JhPYLg0Tg8+Z4/eu9fGIL/yCOP4/Y4Bfgfvfz3xuKPnv0rv/8VyL8zfk97t1w0jy2WZ5lrf6WNTz7zZ+ekP61ZUq0/ie9/GO8MMrbHZYggYXvq+nwy3fp/s+7+E7g+6zv+SP4963v+G+7zU+n72ez+thZnzI/fzM+/7Yv/wRdnYJShHzNeLQkNfZP6V1PmcUoA8Ysnn/uDpv223LOmy4JGAjwtRUMR/yPqIvjplCULorAdROlEoVQeozL+d98SFM2CAVFeJp8BIvviV8y6eKf4XqqP+thrVtBDRKEmUZzpSa0kbvRradEuWcFJ/9MdF98TdMuCCtowe/HaFB+Lo6BgfvISxakEM7MGljQDd5DpkfH06P6Mgg6yuf9ek5qcvx4hWVBK/MjfHomtn2nyd8dONCmDSvLJG/+oHLXF86snDMOEF5Osf2HyGqgOMHSTr12PXaLg1p+dYP/BpfHUV8n5J4dHWHsGiCJfAlPr75Nk/M9z//PaZ8L9r3bIP76SLdSi+8ZY/OMJlk5ZJuTJpmtiAfmtan/tEpPLNz5ivYhpINlBRYWyxy9/DZI/22T5Xr8xLGqvCFifBRtRAE3WMPGRlKK6fQXb5HoQDKyCVfXxtfFX1u1jnVFcYJLv/J/2SeHvlycZdWN0s+/3v5JVAlPZLn/bRCctT+Lnp3b9swD+J++XNWmekCdC/v1fuQTuJj+zrcdHoy8L+/n1y/+2mxlz+dF7xJIz+/Dz1QpSfGy7fwVSyQZsyHfIKshyzTxWW+jPNN6Pw6/X72/H3lAMX6HDUI+v7Q5VVEWQ7MOqUJm6gVcx4bUIvehfF4BYliGRwSSmpaI+KWBEKQWxSdQN+a7Hr18bCH6FIAyE51/Oi2EolK5aiq/W7cUaZEV3e311EhSVhOtJuB1eVMXkk13+KoyCmll8RFEz7Bmf8Bb1D8SNXh0qv12F/ZP3o3p81kaG8NHcGnpWgxpta7Bnzh508a2nKWyxQOTCFgMsBKVvkj2TF+DxnZeuU2NADQ4tP0hqglu2+VExqsdREgaCAh6rQdmWJbl1IJb7vzyQd4hfGTpYwsy80vcV9n62B9Xtt6KenCCimcJAeKwNjwwEYS+5fQ/o2h94NKQV6ZvcPnR91yNjUVp3T4z04/0WBoL/Zl3XadKtMesWfokpNgTC0yjcpAAhqaH8+N1P8q2yZIYhKmL+SfPz8f7/TTteYXxmbK69wV5efL0Yp3ecRbULEP/99f+lgWAKVXA6xXwTJcp/PVdkKZAnhs5kBY/HLeeZ4rMK5Fg81UB4XJcIpfx7dtKTu2o/XBlzUhr2v2cgPDmmXgVnpJ23Bjdj47hN1O/XgB0zdqCIzYGo4SIUwGPKTlK6i3X72KVqJrwuUWnVvyN6mq3tfyQom5UWI5riSHCwdtom6nWoy/YJX8tSbb8yuIWBIIyox7EV7xXCXKwh0TbRDmEgZGAi/n6acv4zQv9xfP6sJybjOxlU9Y/j8CwGwtO+91fb8O/6/Cxr+t/dk/HzxzYzMYVyUODlAny/8qCk+f+9Sxc1cjKEnphG6tPvlzay0LOiUrBJQcg7rKLUkCjC568x9GiT8eyDK95VtFIRvGYvP++7iNfqQVcNNIeoVOyXk7/XhSdxEZPzSbXxxPwT32z6SVNSPKlsHbUJm8OCOcJCn3m9UU0q0zvNxB3v8tcX8m14pS4BanSrwasf1mRi8/EknEz8dUelkeQrq/CHBoJst8tE88mNOPbdESo0qcjhVYcIzxRKtc41OPLNcVJupXJrzzWSH6aCsPQ8wipTMKepuEwOTGYFJcRASTdjOAx0q4E31OvbsZtMtPisOasGriLIqaF7jEcFoFSPmaIdXuD+rXvEHo1FFzsEMVE0n8BAlHV2mDAyuXxGiFg8Ls2npcV9wvMhtYWO16KgOU14VdVXZEoxMKeBy6yiWHSfteXVia6ci4en7uJyeVGFYHEZ6GZNPvPIGtR0PFadknVK4VBSuPzdL3idCtVaV+f2hWtc3XkTc4hKtgrZuXHsqqxS6St25cXktiF26IhaEaJapEPs+ISRBYbTbz0rCl6bgSVB8+3Wsurw0MCI0PF4xd7ejMmkYLhNGBYXmkPDq5oeGQhew8Ab5sHqtGCYnOjCCFHFgAscdFkeG9WE4QZVExPHi64qaLqOwwR9P+vOtAFzMdlDyF8+mujiMZz88jBGrBnDpWDY3BhWBZKFHDXJeaw4xS5dkRPQ8JfvNmkmDNWLYQU11cDq1XCoYBKWj3he8eIy3CgeFdWk+cpwiyJbHlG224HisfoWrV1FD/egmU14HB6pFKXr2KRLpSoWuSj7bQi/h8VX90OWHDd7KdulDIcXnsaUAkqojm7yyNodqtuCYXjwWL1oDgVdNaG5DbxWsSj871MUTAJXYUkHG3jdHsypKukRXqypNjyGB1ekC7Nuku48w+zBa5jkPZrontnA7Xb7PFEeG0qYFz3VhO7WUa0qllQD3QPdF/ZCy6EyqdN08Bqy/Llq9WKkqKjCaHCDO8xAtauYTNBlbidchpNlvZbgdYiSIhbckWI9GRjij6g+KnDXDPk8ui4xESXOUXyKWdeFl0zHbXFhspgwC6vcI4xSM16nsATE+0woZjG3fAaxKuqepGm4w90oFrHeDExiPoitSUZNlXRVGqOGzYUivDchCt2Xd2JOx3k8V+k5rn3/CxaPBT3VZ9RrNhWP3SvbLarFGmIeyE2AB+E/zFOlADGFY9i/6gC2RCveIB011S9pNV8hOam7LQaVO1Tigec2yReSuHcykfzV8nJj+zX0EC8exYRZlHVPNKPoOkakF91hwuQUL1HQg8RiMORuVYkPwqR6MdlAF+Xsxa5QTCnDQEPD8HjRFUXWfJGCJ8SLKUUFiwkl0YTL5sFkEfsyAzVNkRsNWRNGyCibCd0llJGQ/woeq0cqKo/bI+eMK1jFajfh9Yo5YsIt5rQwyrwKuk0IVoG1GD8hxH3zziTuN3x9ED8Rc0izqnLe4vI7HDy63DwJUeQNdcixURyabxMkNyHC46SjGoZwuuFVvShCNghY/EarWOO+DYhP4elyN4SU77rJhZauSTkr5J3HDKpdQTOp6GluCPcpZbO4RywIf5Vdj+ifGTSHBa8YH4v440Zxa1izBxOWK4yHR++jCGtYNeEx3Jix+vSAkHMuA2eEG030x6qgOr2oaRbMLrBHuvG4FTSrwNyDohnyOUW0T4yO10SpxqWo07MmswbOJO16OmqaFXewE1Vg5RFF/EyYXBpuqwevWZT8M6Gkm3wGiEmsHwWvV8Xq1ChfrzR6jIPjy3/CFeQEs6h2rKLGmdGcCt4Qsa7wyU9REVl1oaRbxQhi0nWcIV6EU9aqaLi8HqnChM7x+gsZCi+u3DC4LHLeC9k05Jt3OH3oJDs+2CbnWMUmlTBl1fh2y354CGah19IVEDrArCD34HYL2StFUaRJPvbP3o/3pgnCPFLPa2YVb6pXznNdMX5Tdug3HgQxyc1JJl7pX4GHsffIUTY3uybtRXNqtJ/fnk3zNhF34SGZTZmp0aU6eriB16mzfdp2IvRM1HqvlhTaarDGuf1niYyMJDJ/JKlp6eybshsjXaXVnBbcOn+L0JhQ7Il2Dq84hON+OqVblCdb8WzoDi/frN1H8pVkWr3XkjRPGkGRQTy49pD42/HkKZsHs2Zh3+rdJJ5IxZzuExjFGr3Ac5XyYjJUftp/gmsH71CtY3XCY4Klovlu8S5MehBvvFcP10MHJ7efIrJgDGe3nSZ7oRyUa1ISF16unL3GybU/oaYK88uAYCj5Zllylc4mLa3T354m4edk2s9sQ1zsQ85/eYkfNx7n1SF12DlvJ80/bk58bALBUUE4H6Zz75e7FCxbGLPFwtcLvubhuQSi8kZSs1stHGYHSffj2b3iW4IvCYkJ5NJ5/Z0GuKxONJeZL2dtJ2f+nFRqWBGnKY2fD17m/FeX/e5bCM0WRu3B1aVwwKxz6+c7HFp1jBJVi0rBdWrrCXSLSuOBb/DFhG1kjYqkXL/yiJ3pnRtxlCpdhBn955K7xHNUaFhKLqgrxy9zfPt5ytQqSf6X86AbOj9u/BFTio0KHUrjdrr45cernPzhHOXqv0yeojnwerzsWbOX1MtptBvdhtSkFMyRGg9+vk/qgxRyvJIbs1dl/9L9JFxIILpsDGVfL43JZuLe9dvs23iYnPlyUrVhBdy6m/jzdzm8+hhKugVrTo2qnauiZtbwON3smryX0nVLkbNMTqkUz++5wMXd5ynbozx2p4sCRZ7D5XZxdMuP3Dtzk4JlC1KhSXkcDgend5/kl69v0/aDhjzwJOEwGez9bDeWRA1PFp2Xm5ejetdqUgnePHOFbIVy81mPz+gxuhspKWksHrCCul1rUaJWcSZ3mE6l18tSpU0VtHCNuxfukSVbZia9O4e+47rgSHMTnSMzLruLRR8uIfdzOWg9ui0uzcn3Kw6yd/n3NB/UmHzF82BPtbNj8XYuff6LVKHnK+4AACAASURBVBLiyO3Vqa9RoV1FXB4H38/9jgtHL9KgR0Mi8kdy52osmyatI/2al3c+74XTbSc0cybuXrzNvduxlK5SmuSEFJb+aym2ICsdPulEfEoc0dmjib10l+XDV4DDTI2W1Sn/Rhncbg/Hth1jx5yvMTnN0ksRolmoO7wenuB0PPFuds3Yh/HAF2DgDTYoWqUoLzYoil1P58ah6/y04xy9VnZmZue5NOnbmC8+2yQNxuYDm+PGRUJsPIcXHiHfc3kp2aIcerCOYjHx45afuHvsDs2mNyEiWwQnvj7BwWkHKdewLDlK5STcHMamVVtIPJ+ANUkjqnwMDT5swP37d7my5xInv73Mm0Ma8OWojUQVzE3ZFqXlxiLxXgoHVx4gX9ECvNTwRan4L5+8yrF1Z6je8hVuX73B9Z0PMFm9vNavJl8t3I3i9PmbLZFB1O1dC8UKKYmp7Jn3DbYwG6+9XQurYUUN0jj5zSmy5slOWO5gnA897Bv/LV6v73hUUUw0+rghX87chveBTvTzmXGGuUg4nUSjYa/jNXlRM5mI/fk+rjgHWcvkkJuoffN2kXrdReV+1QnNYSOTEc62uV+ReDNNrk1LnJnSrUpT453KJCcnEh0dzYWjFzBbLRQono8bF66z4l+fExoWToO+9clbJjcOh5MvxnzJg8sPeGNwA/KWyYdbc3No/X5OfX2G+v3eIF/pvDy4cZ9gLYQLh86zd8xev4EgD7AIiQmhYseKaFlU0mITObzwEPY03bdJMHt5uVEpcpcugJZmkOp18NPGn3Dcd5C7TF7OfXlWGkavD3udrbO/IF/BvJSoVxzVpnLr1DWOrjxJ1hJZKfRKQQ5uOET9nq/KjaUnzc2e2ftQUnzGcMlGJak5qCZJsUlE5cvC8a9+5IuZu3jhhQK8+UFDklNTib+dzM+HL1GzbRWswRpnjpyhaKkX2L5qBw17NSIsdzg/7zvFqnc/p2HXJhSsVhCPy8uhDT9wYM23VGpUhYptX8EcbuHa8Wus7bNBGo66plPstRcpWrWgPJoWm7Drly9xbOUJyjd7mewlsqGazRydd5Q7x+76jjkVsGZTqdS1CmUalAa3wqG1B/lm/QHeHPAmL1QtTHpqOh6Hzp1f7rFt2lf0nt0dh9OOw+Nmx/RtvN6nEVHZo7h4/hdK1CzG5s/W477roW6XutjCbVw9f4Vcz+Vi/pBF1HizKoUqFMZtuKVXYdfyXRzddJZmg94gLE8wy/ot5/XODXixYXFMwSaObjnCgWn7URKELWrIY/THr0cGgnTDSDecgWZH7miVIBNOqy534uLnHeZ04Iu5W4g/+5AwxYYzu4e0FDevtK7I7aM3cNyw03llV0Z1HIHqsfKvRUPZv3kvB9Z9x6vtG0o36f7p39N7XU++nreDsz+cpny18hR4+XmObT7Kiy1LsHXcJiLzR9P9k56MazaGj9cPY/LQScRde0jHjzoTnCWIuYNnUKhYYSq1rs7y7qsIeaCiRiu8u284494ahifdgzNrCDXrVSXdnsAPnx+l4IvPUbRuMfavPsC7m4Ywqd2nxJ1IpN679Tiw+ACZsgVzL/Y2RqqNrvO7sLj/IowbwlxSyF8mP3Xeq8WsfjPBYmbwnHeY1PNTGvVqwcXD57iy9Tpuk5f2q9uwtN9y3tv0Ll9M/4Jz28/QcWJnFE1n/vB5hIVF0HZIG+YMXsz7nw9k/sB5xN9MoGKXslKYHBr3k9xBF3rrOezhbi5/eRXFBqpqpv+k7kwZOh3D7qXH1F6sH7aZ5IvJ0qCIyJ+J3hu6M77zGNLuOGnSozHnD18iW0w2rBFW9k3eg8MGfVf3YFbPBby/YiCrJy/jxuH7vNz0JSo2Ls/UvjMZsXUUI1uOxZWcRrdJ3VkydR293+7EtPdn4klwoYYF0fa9pqyZtBojXsdmsxFRNDMvNXyJDePWky9fXjpN7MKY5mMZd+AThrUcgfOyk5Zj3yI0Vxjzes+laNkiVGxWiSX9l9JrQXeWj1xN/N0E2r//Fjdv3qJMqVIsW7Sc2HNxRIWE4ripS49C8bdeoHiD51k0cjUhWghut52ixYpw+uxJbFFBDF35L0aWHUGFnhWJzhzBhlmbicwZQ+9p3fms3Sx6f9aFiV0nSQ9Ir/k9WPDOIgZN7MX3xw5yaN6PEKdJ79QL7V6k1eSWHN52kOsXLtPigw44U5y8X+8Dpnw7ke/WH2TjsG289WkTYgpFsbT3Mkbs+pjTP57m9FenaPFuCxIS45nabxajNg7n3KmLnD94nqY9G7F1+haSb6bRbkIrNq/7istfnafPsL54wnW2fPo5tVvVJtuLeRhTbjSuq3ZUl4mSg0rSaERT5n26kGu7fmHEqhHcS7jHmjlr6TigPTdO3Wbv7IMM3tCXk/t+5OHDB9Rq+yo3L1znyJ6jNHm7KSs/WAJug7afduK7zd9w89pN2vTtwI4Z2wgKDaNKy0qsn7aEYiVLUbxmGd6r+i76PU16Fd5Z2Z9VM1Zw+0wsJWq9wCvFK7Bs0EoZU2DOrTF4ZX/G9hqB4rRQsVY5Du76kW7zOjO7/Tz6zugh18xHGz5m4fj53Dl0g0qvVSYxLQ2L20KNf9ViZOPxBKcG8a8tQxjdaCwlG5Yk10u52DbuKyKyhVGnV202TNoiBfSAuW8zudNkgq6E4I5yUqFTWU5dPE3KyWRMikbv+b2Y1mIOb6/qzdLPlpBwKY7KDSpw+dh1es3qxfguY0hPTqHzu11Zv3gHddvU4cqJS5z//LL0Praf3ZJFQ5ZLw0xcdfvX5dTVE9zdlUSJlkXIGRPDlgXb+WD9YMa0HYlwj43YPJrtKzbx/eYjtOjdmns3Yjm+8PgjF3nPjd2ZP3genksKOapmwx7q4MEX8Xx0bCij3xmN85aTrmM6o9t05n84j5fKlaFa02rMbzOPrM9Hcz3xOuEFw3mlSlV2T9iH5jFhTlCpOao61XtVZ8/qb3iudD4KvFCAi4cvEH8vmQpNX2Zat2k0G9AMNUJl+Yx1NG/dmOjMmVk/dR2tx7dl1sh5RLpCuHv6Fu1GdiKqYGbWTV1J9QZ1yF4sN+tnrOPkuB99ngN5xqjQY3kPvtq0k5+/u0CtdlVITUrl2JrT0tuRr9xzvNz5JVYO/RzNGcKQjW+zfvhKEh7YKVarCEenHZUu9B7ruzN70DyymCJ5mPoAr9dL/4l9mPnuAvIXyM3Ljcpy7vglPFYXP319guCgEPRk4ZEUnmqD1vNbU7RBEbYt3E7miAgqNa3MvCELqFKrEkXrF+Hw7uNcOHuDtn0bc+ibw1w7+wtt+rSRXrLxvYczcMaHXLtxk4NLv6NIqWK80rICm6ZuJVf+nJR5owwTu4xnyOx3+XrzXs4eOUsWJZKf1/wscciSP4rm4xoxvdcsDA/0W9CbIzu/R79ukLtaPjZN3YzZMNNvVj9m9JkBsSbp3ak9rg7V2lVl82dfkC9/TjI/n0UariVrvsiXi7cRmSWUqs1qsG/lTs5uOk2fdYO5cvYXvvn6AG26tiI5LZHt87bSuGszwnNGsHXCehoPbMblE5c5vOMHmvV/C2uIhY9f+4i3Z7xNcPZQls5ZTq3XapLzuewMbzKGt6f0wfHATuzZ+7zSsQL7Vn2DatWo3LYqm/uv5+SyU9JDlHEkkWEk/G6aY0ZsgCzTDHSZ3Z7tU7cSd+YhWjYbbce3lW7ykHAb3+/8nkv7L1Nv4Osse3eF3Gl3/qQz88fOI+i+leerFCVX7TzsGbuL1lPfYsW/VmBJEVaLTucJnbl66hb5XsuHnuBF81rIli+GTzt+SpfxXZndeaYU3lXbVyfZE8eJtSfIFJWJFlPbMK/FAiwpPpdJtXaVebHeS6Q+TGPL4s10nNiF9BQ7jkSXDOIyXC7WTtpKt/ldmdDoE9QUG6++X4vvl+0nT9G8VO1YA8dDu9yVTu0+jZSzqVIB1+5ck2uJN7n2uThagIr9y3Dq0ElqN2/AT4dOcOPrKzIopOOS9izpsZR3tw5hQuMJWG4p5G2ZH1ukldObTmHCSvsZ7Vg7egOdp3ZiQuvpBKeZiCgcyluftGJ2szk+F3s2E+0+6EB49lBO7D3DkZ0nGLioGw8vxYkQTiKzRbFv4R6Obzgl25cpdyQNZ7/OgnZzsKSbyPFCLl55qzp3T9/GnNnM/om7cdhUeq3rzvyBi+mzoAeTWk3GnBCEHuagx9TurJu8gUFrB0uLWbjyNFsQG2Zt4PkiuanwekXuX49j59yvCI0J4o0+jXEk29m56mticmbjpddewpOso6oqUYWyMKHRBN75vD9jm32KOdFMja7VOX/nIne+vkNYlmBaTWvJiu6LeXNMI1YO3QB2E1o2hfoD63Pmy2O80asZToeXwxt+4OS2k5gcKmp+jVbDWhKeKYxrP1xn85L1vNa8AQXK5sPj8ZC/Zj4+LPEvKnWvyv4132COC8KLQsdp7fh23UGafFif1Gup0iUbmTsTSz5eTvO3W7B2xlriD8RJ16o51ELtj2tTokFxhtcdhTXFzMjDo0i6n8jSYYvpv2EQQ5q8j+esxqg973P77i3C7lvJUTcPg+oPwJxg4Z3VA7l67hdOrz9Jz+V9GdV0FO6HboZtH8aWKZtIuJRMlxVdGN91It7LHj7cOZRJPSfxcPcNijQpSofxPZlQezzJZ5PlmWaV3hV5dehr9Kn5NmqSxvSjU3Gk2nE5XQRFBnN23zm446VUx5d4u9JAomOi+WjLB0zpPgPXDTuDNw9k3Yg1hIWGUGdQPYaWHYrJUJjw40R++f4aWXJH8eDBbSZ3mE2evDEM3TaUj+sPx37Ria56GLJjMJ+0GI8tzoKaTWP4l8MYVmYYRqKFoGJWYiqFc2PDTZRUE0qwA5fFQo/PuzPvrQX0mt+JWR8u4JPdY7l89Bc0F6hmlRsXY7l+8jpl6xVj+cDP0dKsNJnelM8/XEWJ2mXI8VIMe8bvov7bjSlYOy+JV1Kk/InKn4kxXT5FvSdcrwqV2lbkx3NHST9ml4Z0j2W9mdt+Du1mtGfxwEXSVSxOWMpWLEHJJiVZ2HsFXk2nQKXcmMNDKPpyUS6e+plf1lzEazZoP6MNSwasQE1REcdlg3YNJOlWnDzC0YI0MoWFM7braBoNa8bmfhtQsdFmxlssnrYQ07UgqjavSI5SOdg0aKMvcE016L65B/OGzMH7i0L2ytlxhDh4sCWOjqvaMLvPXFRCqdm5MmfO/Ejc8SRsYVa6Tu/G/FcX0nRSU8LyhaDjIT45jo3vbMWarskjqRbLWxBZJJIpzWfzev/XKP9maYZWGUauEjkY8vkg5nSeQ/vPOqFYDZzJDmwhNmyqjfFdxzJwwbu4XW4Srt1n3ZiV9JzVnz2b97Fz2m4Kli1A30V9mdJ2Cg++fujzIJh1VIvG4O2DSLoZJ49jhffo+sXb7JywC7OuUf+dV7ly9wo/rz6PomvUHFaVC3t+IinWQ9E6RTg087j0IPRa2Z2FA+aSu2h+areridfhIaZAZka0mUTh3Pko16Q0aydsosMnHQiOCuHM/jMcXPA9JJswBxu8f3goP/18ilX9VxJpDmLYvlHs+OwLKr9ZhTh7PLN7zadqq6o07NWQ95p8hH47mQl7P+X7vUf4bs5XDN0xhs9nreTHRSf4ZO84fjpznLXd1lOsdDE6Lu/EpL6TaN7uTXKWyUNqbAp7luzl2IKf5HHJy63LoOU1cWjEEdyqTvmeZTHcXvJmy8uhUz9yY/d1cMNbU1ryzfxdxJ9NkseL/Xf3xe6281mb2UQ6LWhhFt7f+SFHDh5j64eb5VHy2G/GsP6TVYRZonnjw9f5+I33iArLSZ8VfZn90RxuL7/J6yMbULF1Rb6YtZW6PeoxuvkonLccdF/QmzwF8zCy6QhGbR/JxlnrObjkCNVbV6Nu/zqMbjua4cs+5ss5O3mteS0uXTnP4v4rsASbGPH1KL6euoPvJx1HMxvSi/BUD8KvHQu+fz1pIHSb6TMQHpyN45UO1fgl/RI3vrouXUsEW7j03UXq93ud5R+slBZWpzEdmTduLqEPQ3m+UhHyvJqH3eN20WtZDzaM28DDs7cp+GJByrYqz0+7TpKpeCZ2rdpDsCuYHLmyEXcknm6f92Rmhxmo6SYqd6pMvOs+5zedJyRTCC1nt2Neq4VYkkTMg062QpHcuveQIlWLUrdbbe5evs3F89c4vOkHrDYbIUGh8oys/fSOTGk1CS3Zxqsf1OLgigM06P0G66evwZngpue8Xnw+djVpZ9NkvNMLNYpRslEp1vVbg9kWRIsJjVk1ZTkN2r3J+dM/c3HbObwmhY6L27Ok21IGbx7MxKYTsN7UyNkiN8GZbJzbcgYTNtrNasPSj1YwYNE7zOy1EPv1BMq9WYbw4hHsGbtHnoFZImw4HR6Cw200+PA19izdxRv93mDRqOXo8S5i8ufg4YV7WFNsPgMhTyRdN3Zi4pvj8SQ5qNmiFrHeFHjg4flXnmfb0PVkfj4XHZd1YGyL8by/cAiLhy7iwYVEilUqQK3edZg5aCYfbvmQT1qNIy0plVx58/LgQjyZIkJ46IqlUMn81G5Um9UT1pOamkRU3qx0GNyJ9TPWkK18br5ZuQ+r2Up0jnDS9qfTZ8/bTHhrElqCRvXO1Tlz+zwPdt4nJMpGq5mtWNxpPj0X9WTpoJUkP0yjervKuKLcXNl+g+u3r5OzYFZ6je/F6KZj4b4ZW/Yg0pRUVJuXhj0b8svpa9Tv8Crjuk4kRAvmgy3vM6zMv3ilayXpljy86TgRmTPRa25XZvVaQIP3arN8zOeQCPmLxHDt5D0GLhzIms/WkngoXhoIYqfUYFw9yrcrz9oxK8gRlZPq3euwdtIGHNdSaTO/PRunbyI6OJrqnarwzcb9KLccVOtbm3WfrcWWHkS9oQ34Zs4ewm2hlGtdnvdKDJGBV72W9mHxwGVYLRZaTmzB+nEbuf39HQZsfpsT209yevcJGr7TEKwGn9Qfh3ZPxJMYdFnShXw18zD97VnSeJvyw2R2r9/NjWPXyZUrJ1+v2svEHeOw21N4t85wSld9gc4zujKk/PsUyl2Qbhu7snDAAmo3rkVMzbxsHr6G6Igs1Oxfh4l9p9KkfRMi84awbvR6ajasQc6yOfi4zseYHljkcVW/lb1ZPnINiWfjyV8hP3V61GR+24WQZMH8vErzjxqx8YN1uFK8PF8qD+cvXKf7qu7Mf2sBved3YtrQuQxZOYSlI5cSe+IOYZnC8D7QKFqlMC/WeY61/9qE6rDw+oQ32DRiI4UqFCN/lTzs/ORrclV/jhLVirBl0lYpoLPERJF4JU5mLuiGQuV2lTl+9giOYw65A++1vA/zO8yj55KerPpwJfF3EylUohCO1BTajuvApKZTcCguXu/+Knt3H+Dl6uWIzB7B9hFfkC1/dl4b8Srz2y9BTVekMmv2aSMO7DnAlXPXCQsPgXRhXhrUGViPrf03oXjNtJvZmkVT5mG+FU6VpuXJWSE3m/qu9wU4agZdV3Vj1WereHg8QQaKnb91lvivkmg7/y0W9piPqgZTqVNFTp45SspJO+ZgMz3n9GRO0zm89tGrbJ6+lZi8manStjob39+K1a6hKhpDDr7L/bt3mdVlIZ0mtCXoORszWs6mfpf61OhThbFvjGXQiiFcuX6V79Ye4IWyRdmzdB8vFi9KCsnkL5KHWu3rMH/oXFq/25Y7N+7x3ZIDNOnbiNA84QytNpQcnmw8jI2TmzghaPqs6cOWOZu4eOYKWaNjSEtJw3PLKwNtS9QvTsGq+dj43iY01UzXpZ3YNmc918894K0PWrL2/Y2EhAXTf30/JrcdR9cpvVg0ehH2q+l0n96JWe8uoXCu/JRtWpqt07dj1xyYQ810/LgTq8etIe1EOlHZwum/9x3infFs+WQLlWpVpGidoszsNY2+M/qzaf46jk05SdmW5XhzXGM2Tt1AiBbEq73rsWriKtwnk+iwoDeblm7g4spL9JzTC3e4i+3jt1G5UVXyvJKbtaPXo2hegoOsvNrldS4ev8iqrmulPsxZMRu1e9ZkedflGGZo9WkrLhy7gMWuYcsfyu7ZO7HoFrrM7cbidxfhFt5PQ6Hn+u5EPhfB6glrKVe2NDeuXKd2p7qkpqexc84OytUvR5FaxZjcehJNejYmPE8mPmk0kpwR+em/4x0O7TrK9W+u8uaHb/Lw/h32Ld/PW2PbsGXOl5iSDBoPbMh3mw9y48B12k9sy8WT59m3ch+NezVBD1ZYNWIFA+cN5JNOk+gyoCPmGKQ3o3i1kpSsVZzpnT/j4S7hhdNlHMIzGwjSehSGgtVnWbQb1ppdC78k7moS4YUjaD22Jbdu3iNngZzsXL+L2KO3qNvyNVZPXCst6BbvNmfJgmWE3A/j+ZfyULB8QbbP20ubMc2IzJGJpPhEomKysua9tTy8E0fzMS0IzxWOzWrj9DcnOThpP2/NbceSd5ZgTtZ4uW054p33uLL9GiERodSf3Ijl3VdjS4WwrKF0mdyV+64HMp3j+Dcn+faL7+k7tisKOlExUTKyOvb2XVqNbsvM3jMxJ9moNKAiJ9efoGSdMhQr/xzJ9mRyFcwrFabrpFsCYASrNB3zBpmiIrCFBHHyu5N8u2ofRV4qRt1etfCmupn1zhyaTXiL9f3W029ZL6b0n0rYhWBiWsUQpNm4tO0Sqm6hxfhmLB+9gmwFstNuZDviEuIx6xZm95mBlmaTrrwXGhfhtXavci/2HhERkczuM4uy9UrwStuqpCQmQYqJOYPmE5QcJIMaw56LoPuKLjji7KSlpuBOMVg8aJUMBuo6syNul5OwLCGkpqcw75355MtZkBYfNuNB/ANCwkJIv5fG7AkzKVqmKC27teRBQhyaxcyMYfMZMKo3qfZUMoWGsX3TdipXq0ZQmFkGVV37+QZbl26l2/vdCc0cJANejhw8zvEJx+izrg9T209Dc5ip1L4iZ++eJW1DIjxn0HxUG1YMXkGpGi9RpUtlEuISZODOnHHL6Dm4I7ZICy67k7TrSayfsBGcQeSvmIemwxtz7eJVYqJjmDNwAe0GtyVNT8WWyUauojkYVWMsL7cuS+FyBdAMC5HRkexd9g0/fnmWSu3LUblFRZJTU0i9n8LaEatpO6wD2xduJ+nHJGnQ6nYzSiE7A5e8Q1C+MDRFxRpmo3elt4lICKPPml5E5owk/k4cETkyM7zJcLwpOgNnDSBzocykJKYREhzMF6M30WhQE3muPKbRRIpWy0fLsW2Z3XMGtiAbncZ3QQlR2DBhFZkiwqnZpb7csT68c5+FgxfivuLFZDdjSjNRpnlJao2uLefFhLZjea1NA0rUKyXXcOytO8wYOI1RGz9hx6ItHJh5muGrhqDlsTHu5ZHkqJ6b9pPaMqvzbN7b8gFx8fcwq0HyW9e+/YXFo5ZQqEwxmn/YDGuoRcZnfD1jCyfXn0cVWFgVTPk1ek/pQ+L9eILCglk6ZCnOnx3oYoecSadux1o8X68QaUnpJN+KY+3ozXSY157FPVfR69NWzB2+BKslhH4ze5OcmkhEVCTz+i0lZ/bslK9RlqWTlmJO1ag5ohZfjdmOFmKh55JeJF1PYNmslTTs9DrPPZ9PBotdPHSW7dP3YEoXAaoGL7cox7HrR+EHD95wnY5zOrCq0+cUqF2Qur1f5cGde4SGhjB70BLKvlqKam9Wwe1xE3s9lg0jNspg1x5ze5JqTyYqPIqExGRW9F2DavdlM1iLmukytSuJcYlER2ZlxkeLSb51h8Y9m7Bt7A4sqDR/vylr5i/HeBBM+VdLkePlXHz17jafjLVA6AvhdJnelcTEJInn6hmrefhtKq0+bcranqtQQlTKvfUK58+eIu1sKmqEQrtPO7L47SX0WNaLa79co3CRQlz78SqbR26RWWNWq8qA7YP5csFWjq05y6CVfbibeJe176yl1eRWROSOYHabWVRuUYlqnWpitlmw29NZOHY5rbo1I3P+zFKy3/75BtPeXySPYut2riGzZHTFy60zN1n30Rr+tXk4Y+t9QlqSXXbHlstC73HdSUhKICpPDGsGrJbxTmIjaQRD00GNiC6clWCriFJWWDNpFdf33KPNp2+RJX80QRE2DA2m9vqMMhXLUKRSERlEGZ4tE7O6zCZXjhyUbVyW+DsJvPT6Szy8H0dwcDBz/zUXNVYhR6Gc9NnQm4d3HhAcHobb6Wbz7M3Yr6bS7rP2zB28kLg9DwmODqLT8g5ExETK2B+LzcyCj+aSfiKRLgv6EJIzjK8/+4p7N2NpM7KNjB1Ke5DK2gmrKVXuJUq99hKmIBVHsoPlY1Zxb8c92X9XqIdX+9bmhTJF8Rpe7B47B7Yf4czGk7Qe04rMMREEhQexfcUOft50Ec1p9hkWlXPS9pOWWKKtpMfb2TJ+M96URJqP6IQ5zILL6casaEx4YxzvrfqAo8cPsWPEDixpFpqOaELBN4rgcol+WDj6xUG2LjhA7zHtyfVCThypDvmOWR8tpUyJF6nSpgJJcYmERIaScD+RFcNWULh4YWq1r83wVqOIypSFLhM6EhodgjvNzaYZmzi79RyWdCuIYOEn0j2fiUlR5DaLYwZzuAoJDhnV6jHrmLOoKKoFZ7rXl3bn9GIxW3Alu+SZuham4nC7UNM1LOJI06LiTNMxh4tIUA+2YBuOdAeGyLs3RLYDMghIBOOKc1/Bw6DGKLjj3CguBTVSTGAPpjQROQ3eXAbeqxbMituXtWcBNYtFKi/3HRE+LyKTDWzRJhlI6Uj3pZap4Wa8CS4ZCatH6JAkckAVgjOLiGpD7lYEeCa7L+/E0HQZAW4LD0I3vDhTHJhF/qnJwBql4VW8uON0yKai3lQgu4IrwUXwXRuO/A5MioEar8qMC0uEhtPjQE+yYooxoYk4jyQHaoqCyNcWcSBemwdLsFlG4woshUFgEiOXVUG1abjv6TKyVkTpin6HFcjEG+NfZ+WARVgMmzxSZisH/wAAEiFJREFUMVwWGQlsRHix2ax473vxRhtwzyuPa8gBmsUij2CC9WDcyU7ZTy2LJsfJ/tArswZMiglbJjOGrpPuSpU7q2BriBQwjkQnJofIIhE4iBwQnRQjheAHQSg5TXhiPSgpGqZMCi7VhTnBjDdER8tkxpPmkQLaEqahWTVccR7wCsGsomX1nQG7Ex0+YiqPKgLzsYTYsJo0OTZut44R5CUo1IpX98iIYeVnA0+0ildJI5wIGfjj9DgRscjCkteiTOgh4HngQXUoqJkVvOk6apoqPQiGiBwPc0KkG7MtjKYDm/Bi4xcZUHUwWU5H4HnOiTnIgivejTXIRnq63ZcWZzOhhVuwO+2YrUFot3S0GKHT3bgvWWQ2g5ZdwXvfIzGyhgRLQelKtmO2e9CyBGFYTdjtDgwxriLFz6miPgjCk9WONYtFRq+77jnlPLRGW2VcuSNNRKcbmLPYsCeJCGkztmgzOgb6LQd6uIqSzYvFZWX4/o+Z8PYYHp5MROShiPnpS6tVpAIxB6m4XQ68SQaqU5MBsMI97wwDRQsixGbCYXdAmgEOX06tESQi0L2YI4Qr34QrKR3SrZhyejCuWbDGeLCneTEMDTVYuIg1KdS9CSKLRcgHRQbPWdI0jGgd0z1FZueQzZcB47LbRU8IDhGGsIm0VDu6iMQXaVkiLThYwW12YrlnwlBMKIU9WE7ZcIeKtaJjCdawp6XDvRC5VqzRisxgsqfYUVMtMvreG6ZjyxSEN86JOxKMy0GomlMGYRqhBu4QL7YQEaVo4EoExeLGHKThSvRlTFlCNJxuBya7DYvZhBJmoFwVyV2GjNAXz6tRGibFQrrTAS4TapyK9zkd81UdXWAYbMEls1l8GRrWSBPOeBFcZGAJEvLVicVQ8aR6fHLOZKBl1XzjkWrFFm2gG270OB09yiaDD9XrFpncFWSzoNhUnA4nLo8XU5gXWyZN5nw6410oqRbp7bBGmeX69whZZ3hRnfDx1uF8VHuUzDLK4CowayqWMBWn3Y0SZ+ARmUxWQ64vxapjCbdieD1U6VCds4fPce9ALN5MDikzROaG8DZ4Ej3y+MUSYUHxeHFqHrhmwxTsRQ224HGnYg0yy3anOxwyY0oEnr9YsyRtprViQvsJJJ904tVdeFOc8tiKfC5csQpqollmfRjhXrTMFpmJZFFUnMlurIkG7pwGVosV/RboTgNTDnE0Bt5kL8TKR1Fzahg2BYfLjZ7uRU0XGSK+tFchcYUe8FqduL0eDKcF9Z6CJ5sTa2azzDpzOexY4my+VHOxTkT2TrQOWQx5FGu+qqFoHvScGnqQKnWhWWTU3DRQc5hxko56V6z/YBxRLiy5RMaRLgO8vW4H3tvBKBEOgiNsuN0uCDWw3zPRbm4rIvKH81nHadi0YDk/tNsqFqsVb06X9PaYkzTMESbUMBWX4sIt5rHbJNe6zJh5glbgmQwEH8+AL81MpGf4GBj87Hsyr9mfj+/PRvL9xud+EIpXZkXJD4vUMB8Jk8w99v3Iz2Mg0qgyfuD7hMyEFraHUHT+z0hSCxFpmUECkW4GkTokFmRGbrO4RyguTaTIKb5UGpnK72+nTHv2pfuIaPFH75aplL62yvzZjCb67J9HxE4ynUh20ZCC/lFfRQqRSG+xirQ5Bc1uQhekH5pIO1NApCmKF4nUOqcwYAx5vicWi/Di+dT9Y6QdMsclg9FSpBT6+iiiy2VOtz82xBoTxEtvluSHRQdQHUJRi/PPDHj9bXWquDN50ERaqW7ykYX4x8skJoi/j4KgRHZNpIMFe0AIZEkqI3vryxeX5FRPcFRI0itDppwKIg8ZtyKmimirBF+kqPn5G8RY+X8vU+tEU0TKqtWDIdIX/WQ7EhRB/iPy+f2kUDLHWLxP/KUKxAw5f3ShqJI1PCIdSeApoozFO8XvgnzEWiIAR5zrCwUjOXpELrVMaTPJ3ZO8VDEeYitlomyzsoTmCWHnwt0E3w7GE+b2pQL6eaYkWZify0Ri5m+PKlIB5Xw1IE3kfwlc/GMsBIE/RfARwZNYl35yLKn8BN6ijakWvMF+pSDXkZgvXt8cyMgTl10T+XKqbw2Idog0OckxINKPDXLkz0rF9hVZO+NzlGRBCuATdtLolI15tHDlus7wMioyqtlAcZlRxZz3rzH5FfGYnI9iuyAGN4NwSBBBeTAJHgqZnizWry8ZXRp7Gd8TP/fPfYGX5NsQBDBiNyq+KTkL/HNMPgMekVLnn4lSDsh5JcZT3G/CE+7BkmiWJG5izWdcAh9VpBrKueJ7l/iZj0HVNwdMDgV3mA7pFkwyz1DaqlLm+eSKP604Y93LteAXcjKXUMwpH44ihVqmQ6oiZVpg5F9fAgaHKvFyh3mkfBB9FQasSGkTRzqy3/I/Ge5b//hkcL34+bVkNrcknRPHHrokypGZJYo/jdqlyTETRqBIafYNkW8O+RSXGFdhjOo+uZTxOzE/zTqazURUwRjunIn1cdGI+0V8lHiR4IsQXC9ibcmhEwI+g21IkW0pWKswsVfvk3Q5SaY+q0IeS+Hmw0WC6qed8NhEG8yYvLpMgVbMboRMEnJTrlcpqE0Ur1qcwrUKseGTTej3fKm2ghxMTo8grwxmzsjTE/NIZLbJdF+/7vGlNYNZpAEaPpykfJb6Scw/XxNlVobF8JFr+WWXFMVunz4SH/TNXR9hoNi8ipRRX+qvkG26T/74ZanUgWLdCj3gVeSGWdwnNoSP+FhECrfbhG4xpPyRMtmhyWfEXJb6Q0xpoT/F2hJzVqwnzcAb5JXyuka/qqS6U2X8gUgjFUMjMvxkn0LdMvNCGgNyOhvowb4gfCmHMojYfn3CwDMZCI9Wml+A+gZXQfH4SYrEgD9++cGSg/UHhBe/fvDp/xLpLY9fIpdXdjqD3vEphCu/edNjTIVynoqBzSCyeIy04hEBx7M07Pfueex7GRkivgXyv33xU57PkIX/Y6v9/kfkmeJj1+NKIuPH4hYxjkI5+5kefULAb7D8Hf34G6B52jx49LM/7INPAJqEMSsVyTM0MEOw+0msfvVERgDQH373Gb7zJ24RHjGpz0Se+xNL9U+85r/2VmnP+rnBnmQH/ds69bhsefwjMtndP5f+vx4LaWj7lfXTCI0y2pfRFynL/QbGv5PrQkS4FKl8hCtYkrk9q1z6ncEQponw3vouH7fBX77+3dj85Rf+/+RBaXjp0tiUPrbHGCKfOu+fAcI/ZSCI3YJwKQoCl4zd+G+UnphUgukrQ5H8GQPh8QXjn7CC6EfsJCTxg7DAhAVk9u0k5G5EmpH+72V0+GkdF2tS7Pz82yPhEpUWsNhJ+3dQgmpYuJr/I5ePF8m3232sPTLw8z99PbmQ/+z7JQmJf/FnGHuPj0WG0vunGAgy8MZvFYkdstjZyt37nwX2ifszDLN/R5H9v3z9v338ybH8u74TeO+zIZDh/vh/ex48W+v+566/Mm+E3BNHmEKuSkp8n2f0V/riz7ZD3C88h2LD8ixG+l95/9/4TAaD5+MbxQyG4N9QQf9v2vHI8/QUiuYn6w09I730nzIQtDCNSl0qsW/6Pp9bIkNx+F2A0mJxqxiCpUyeafg9CPLnwo0ljAdfPMPjSlN4CMSOXrC0SVeKx0/rqxiU61eO7/YeoFTREmQuHsmBSd9JN4x8gX+BaWmCUcvn2veI80dJW+xzRUs3qFB6unD/i3N7cbbu8yAEhwfReXEXft57nrtxcZxZfQLjN7Uf/jcjFng2gEAAgQACAQQCCPx3IvB0A8GvfwX5QmR0ZhIeJshoSS3CTM0Btdg+YRs4DHLmyo7b7ibuXrwMUgoODSIiJhyn3UV8bLzPQDAUrEEWCDERZAvGrGo8iH0o80PFFRwWRFhYGElJyTgTnPIcT1DBZs6WGYfLQdk25di1dTdqrAktnwnTebBmD8KkKLjTvTLVJlvWbODWiY27L42BkEzBkokvInOEzBdPeJBIlqyZMZs14u8n4LWLmAVFUpv2WdGH3ct240Dnly9/BnkeGrgCCAQQCCAQQCCAwD8bgd8YCGKXryWrZHshC+1XtOfaxWvkLJSHmX2mkZropk6POnw1fTsdRraTqRLhmcI5tOt7dq7aw/sz35dUrjky5eXzYcu4efqW9BqUqliKqoOrY7YoONPtxN1IZMXA1YSFhjFw/dvE3rlDtqK5GNd0Clqah66TOpGqucgaHY3T6WBy/6kUzlWEHBWzcnzVUbrP7CmNgO2fbaNy06qStEMLUTnx3Qn2TtlNtU7VKN7gRXSHTlSOaA5/9T3l6lQgNS6NlNgEFvVZjkkXwXeQNV+UjAZPEnUlRPW5/9QRwz97XgV6H0AggEAAgQAC/+UI/NZAEM57h4nWs1uw58vtPLiaTLYXs/NKrQps/uRLqvWtyq0jN3jh1RfZOnEzmqbSeNCbrJ2ynq6jO7Bw1ELSb+hYRKqU25fqU6piSXK3ysP64RtkBGerD1py4shJqtSrxO4vt3P320TCi2WiZrOa3Ll2k+AwK9sm75UpPp0nt2fBsAU+A+GVrBxffYSu87szo+ssXHE60Tkzk5yciiXGzHsrhjC8+sdUbF0JW3aNryfvJHu+3LSd3ppP24+X6UWtRrZg5btrMLusMh5Bz8jr8GdVqH8mZuK/fPADzQ8gEEAggEAAgQAC/w6Bpx4xCB3ZfV0Xbl+5jqqrMiry3o0H/LTpGDX61eLB6ftUbl+JGyduIgJLRZGeL1Z+SakqL1Lo5UIEacFsX7KD+J8eyrSiUq+UxFLWzMH5R1CdZiq2LY83HKrXrczVS1dxx7tlOkdyfBq26CAuHTvLL4vvyCIur42uxfZl2yicpzA5Xs7G8TVHePOjpiwbtAzVHkS7qa1JSkzG4XVS8c2XGVllFK+0LM/tm7e5se06wVHhtJjdnFk9ZmNLU6n/3utsmrwJs90qU6P8+YqPsi3+Ul3wwPwKIBBAIIBAAIEAAv/HEHh6DILTRK2R1fEqHr7dsI+omFx4nAaxd+9Sr0ttTmz+kY5jOzBj6Hz0NJ0iRf+f9u4upKkwjuP4b/OsIU6nrXL5Pm0uFPOtzCwyo0QiMPMiSojophJC6ia6iaIIuipDCLqIQC80wpTyTipKwqnrndVVYGoaaS7XRvNli/9zdmjIFGLTi8N/4MXG2dl5vjsXZ8dzPs8mDNiHkJGdismxH0gtToQhKRnOB05BN9IBwu4LlWhuugP9nISTV0+g/fZD5G+xwJ+kh72rH4nxCZj1eGFOyUTl8Qq0ne9AvMmAs22NuFx/BbkZVqSUp8DRYUfdpXrcP9eKOH8Cmp6cxo1jzTBnrEfjvVO4tv06Ko5sw8j4N4z0fMEaswENzUfRcqYFeq8ONRcPouvWI6Sa0uD6OoMFH/9PQWX7NA+HC3ABLsAFolBgiWsQJMRsCMBaa0VWuQVTwz8x0O3A3Mw88muscD7+CLMtGQUHiqDTa/Hu6QBGnePYdWgP4jYahX3+otOOwJg8f3rRzkIkVBsheWOBWD+c3U6MvRqF3uRHXlUx0svS4Zn2YKjzJdzfF5CzIxO2qjxMT7jgdrnxqfcz1sWvhcFmwHj/KArqCmFvHQRNdr25OgvZZTZMjUzClGZC781nsJSmYWJ6En/euKA16lDasBV97X3Q/YpBbm0+3j//gP2H9+F1jwO/hz1RyMir4AJcgAtwAS6grgLhzyAotzBKC0KoI+aNUCRZsCOdSqaJSdTyk+zk10DyaTCv/+cM0NWJdP84ncYv2VuC+RwNHHcHAUkrtD8hcynSmnATgqgGXdVI3oJAH2T6Uqh+tIxOFubEQ7lWQOhusv6mKIPkNQjVjraTXqT3zcaIOyRIMKNpdEmlImUxGpCTunYJHg0X4AJcgAtwASwnKRIMIyMxgpZcfPefQICCL4bDdagu4TJSAMZkIwJJGrjfuuX5BohzFUjoYtcx6KeGyn7KIoqWSM9J9wt9hIJEyrbQMorPQEANEbkamcdcEc2Q9yYuwAW4ABfgAioqsDyUpPwsDzdgRQgMlQLD0aHBuRZILNT6gpNeLCceLv6sSJXAJbZJRd8hD4ULcAEuwAW4QNQL/JekGMmn0wQYdFqfiEn6UyasiWSd/F4uwAW4ABfgAlxgZQqs2gFC6MyICtO8ahOnrEw7XisX4AJcgAtwAdUWWLUDBNUW5IFxAS7ABbgAF1BhAT5AUOGXykPiAlyAC3ABLhBpgb+3BEXiNEauNwAAAABJRU5ErkJggg==;" parent="WIyWlLk6GJQsqaUBKTNV-1" vertex="1">
          <mxGeometry x="9" y="10" width="810" height="213.41" as="geometry" />
        </mxCell>
        <mxCell id="u3Uz-xfAxrAcPL_QBlM--31" style="edgeStyle=orthogonalEdgeStyle;rounded=0;orthogonalLoop=1;jettySize=auto;html=1;exitX=0.75;exitY=0;exitDx=0;exitDy=0;entryX=0;entryY=0.5;entryDx=0;entryDy=0;" parent="WIyWlLk6GJQsqaUBKTNV-1" source="u3Uz-xfAxrAcPL_QBlM--27" target="u3Uz-xfAxrAcPL_QBlM--9" edge="1">
          <mxGeometry relative="1" as="geometry" />
        </mxCell>
        <mxCell id="PshAYlnj-Nug0vlXpMP3-125" style="edgeStyle=orthogonalEdgeStyle;rounded=0;orthogonalLoop=1;jettySize=auto;html=1;exitX=0.5;exitY=0;exitDx=0;exitDy=0;entryX=1.002;entryY=0.928;entryDx=0;entryDy=0;entryPerimeter=0;" parent="WIyWlLk6GJQsqaUBKTNV-1" source="u3Uz-xfAxrAcPL_QBlM--27" target="PshAYlnj-Nug0vlXpMP3-94" edge="1">
          <mxGeometry relative="1" as="geometry" />
        </mxCell>
        <mxCell id="u3Uz-xfAxrAcPL_QBlM--27" value="Reservas" style="swimlane;fontStyle=2;align=center;verticalAlign=top;childLayout=stackLayout;horizontal=1;startSize=26;horizontalStack=0;resizeParent=1;resizeLast=0;collapsible=1;marginBottom=0;rounded=0;shadow=0;strokeWidth=1;" parent="WIyWlLk6GJQsqaUBKTNV-1" vertex="1">
          <mxGeometry x="300" y="650" width="160" height="266" as="geometry">
            <mxRectangle x="230" y="140" width="160" height="26" as="alternateBounds" />
          </mxGeometry>
        </mxCell>
        <mxCell id="PshAYlnj-Nug0vlXpMP3-33" value="idreserva" style="text;html=1;align=left;verticalAlign=middle;resizable=0;points=[];autosize=1;strokeColor=none;fillColor=none;spacing=0;" parent="u3Uz-xfAxrAcPL_QBlM--27" vertex="1">
          <mxGeometry y="26" width="160" height="20" as="geometry" />
        </mxCell>
        <mxCell id="PshAYlnj-Nug0vlXpMP3-40" value="adicionalmesa" style="text;html=1;align=left;verticalAlign=middle;resizable=0;points=[];autosize=1;strokeColor=none;fillColor=none;spacing=0;" parent="u3Uz-xfAxrAcPL_QBlM--27" vertex="1">
          <mxGeometry y="46" width="160" height="20" as="geometry" />
        </mxCell>
        <mxCell id="PshAYlnj-Nug0vlXpMP3-41" value="adicionalcadeira" style="text;html=1;align=left;verticalAlign=middle;resizable=0;points=[];autosize=1;strokeColor=none;fillColor=none;spacing=0;" parent="u3Uz-xfAxrAcPL_QBlM--27" vertex="1">
          <mxGeometry y="66" width="160" height="20" as="geometry" />
        </mxCell>
        <mxCell id="PshAYlnj-Nug0vlXpMP3-49" value="nota" style="text;html=1;align=left;verticalAlign=middle;resizable=0;points=[];autosize=1;strokeColor=none;fillColor=none;spacing=0;" parent="u3Uz-xfAxrAcPL_QBlM--27" vertex="1">
          <mxGeometry y="86" width="160" height="20" as="geometry" />
        </mxCell>
        <mxCell id="PshAYlnj-Nug0vlXpMP3-36" value="status" style="text;html=1;align=left;verticalAlign=middle;resizable=0;points=[];autosize=1;strokeColor=none;fillColor=none;spacing=0;" parent="u3Uz-xfAxrAcPL_QBlM--27" vertex="1">
          <mxGeometry y="106" width="160" height="20" as="geometry" />
        </mxCell>
        <mxCell id="PshAYlnj-Nug0vlXpMP3-34" value="datetimeinicio" style="text;html=1;align=left;verticalAlign=middle;resizable=0;points=[];autosize=1;strokeColor=none;fillColor=none;spacing=0;" parent="u3Uz-xfAxrAcPL_QBlM--27" vertex="1">
          <mxGeometry y="126" width="160" height="20" as="geometry" />
        </mxCell>
        <mxCell id="PshAYlnj-Nug0vlXpMP3-35" value="datetimefin" style="text;html=1;align=left;verticalAlign=middle;resizable=0;points=[];autosize=1;strokeColor=none;fillColor=none;spacing=0;" parent="u3Uz-xfAxrAcPL_QBlM--27" vertex="1">
          <mxGeometry y="146" width="160" height="20" as="geometry" />
        </mxCell>
        <mxCell id="PshAYlnj-Nug0vlXpMP3-38" value="datacreate" style="text;html=1;align=left;verticalAlign=middle;resizable=0;points=[];autosize=1;strokeColor=none;fillColor=none;spacing=0;" parent="u3Uz-xfAxrAcPL_QBlM--27" vertex="1">
          <mxGeometry y="166" width="160" height="20" as="geometry" />
        </mxCell>
        <mxCell id="PshAYlnj-Nug0vlXpMP3-37" value="dataupdate" style="text;html=1;align=left;verticalAlign=middle;resizable=0;points=[];autosize=1;strokeColor=none;fillColor=none;spacing=0;" parent="u3Uz-xfAxrAcPL_QBlM--27" vertex="1">
          <mxGeometry y="186" width="160" height="20" as="geometry" />
        </mxCell>
        <mxCell id="PshAYlnj-Nug0vlXpMP3-63" value="fk_idcliente" style="text;html=1;align=left;verticalAlign=middle;resizable=0;points=[];autosize=1;strokeColor=none;fillColor=none;spacing=0;" parent="u3Uz-xfAxrAcPL_QBlM--27" vertex="1">
          <mxGeometry y="206" width="160" height="20" as="geometry" />
        </mxCell>
        <mxCell id="PshAYlnj-Nug0vlXpMP3-76" value="fk_idatendente" style="text;html=1;align=left;verticalAlign=middle;resizable=0;points=[];autosize=1;strokeColor=none;fillColor=none;spacing=0;" parent="u3Uz-xfAxrAcPL_QBlM--27" vertex="1">
          <mxGeometry y="226" width="160" height="20" as="geometry" />
        </mxCell>
        <mxCell id="PshAYlnj-Nug0vlXpMP3-107" value="fk_idmesa" style="text;html=1;align=left;verticalAlign=middle;resizable=0;points=[];autosize=1;strokeColor=none;fillColor=none;spacing=0;" parent="u3Uz-xfAxrAcPL_QBlM--27" vertex="1">
          <mxGeometry y="246" width="160" height="20" as="geometry" />
        </mxCell>
        <mxCell id="PshAYlnj-Nug0vlXpMP3-54" value="1...1" style="text;html=1;align=center;verticalAlign=middle;resizable=0;points=[];autosize=1;strokeColor=none;fillColor=none;" parent="WIyWlLk6GJQsqaUBKTNV-1" vertex="1">
          <mxGeometry x="110" y="520" width="50" height="30" as="geometry" />
        </mxCell>
        <mxCell id="PshAYlnj-Nug0vlXpMP3-59" value="n...1" style="text;html=1;align=center;verticalAlign=middle;resizable=0;points=[];autosize=1;strokeColor=none;fillColor=none;" parent="WIyWlLk6GJQsqaUBKTNV-1" vertex="1">
          <mxGeometry x="115" y="435" width="50" height="30" as="geometry" />
        </mxCell>
        <mxCell id="PshAYlnj-Nug0vlXpMP3-61" value="1...1" style="text;html=1;align=center;verticalAlign=middle;resizable=0;points=[];autosize=1;strokeColor=none;fillColor=none;" parent="WIyWlLk6GJQsqaUBKTNV-1" vertex="1">
          <mxGeometry x="195" y="605" width="50" height="30" as="geometry" />
        </mxCell>
        <mxCell id="PshAYlnj-Nug0vlXpMP3-62" value="n...1" style="text;html=1;align=center;verticalAlign=middle;resizable=0;points=[];autosize=1;strokeColor=none;fillColor=none;" parent="WIyWlLk6GJQsqaUBKTNV-1" vertex="1">
          <mxGeometry x="295" y="605" width="50" height="30" as="geometry" />
        </mxCell>
        <mxCell id="PshAYlnj-Nug0vlXpMP3-64" value="n...1" style="text;html=1;align=center;verticalAlign=middle;resizable=0;points=[];autosize=1;strokeColor=none;fillColor=none;" parent="WIyWlLk6GJQsqaUBKTNV-1" vertex="1">
          <mxGeometry x="70" y="705" width="50" height="30" as="geometry" />
        </mxCell>
        <mxCell id="PshAYlnj-Nug0vlXpMP3-65" value="1...n" style="text;html=1;align=center;verticalAlign=middle;resizable=0;points=[];autosize=1;strokeColor=none;fillColor=none;" parent="WIyWlLk6GJQsqaUBKTNV-1" vertex="1">
          <mxGeometry x="70" y="930" width="50" height="30" as="geometry" />
        </mxCell>
        <mxCell id="PshAYlnj-Nug0vlXpMP3-72" style="edgeStyle=orthogonalEdgeStyle;rounded=0;orthogonalLoop=1;jettySize=auto;html=1;exitX=0.5;exitY=1;exitDx=0;exitDy=0;entryX=-0.007;entryY=0.035;entryDx=0;entryDy=0;entryPerimeter=0;" parent="WIyWlLk6GJQsqaUBKTNV-1" source="PshAYlnj-Nug0vlXpMP3-66" target="u3Uz-xfAxrAcPL_QBlM--7" edge="1">
          <mxGeometry relative="1" as="geometry" />
        </mxCell>
        <mxCell id="PshAYlnj-Nug0vlXpMP3-73" style="edgeStyle=orthogonalEdgeStyle;rounded=0;orthogonalLoop=1;jettySize=auto;html=1;exitX=0.5;exitY=0;exitDx=0;exitDy=0;entryX=0;entryY=1;entryDx=0;entryDy=0;" parent="WIyWlLk6GJQsqaUBKTNV-1" source="PshAYlnj-Nug0vlXpMP3-66" target="u3Uz-xfAxrAcPL_QBlM--0" edge="1">
          <mxGeometry relative="1" as="geometry" />
        </mxCell>
        <mxCell id="PshAYlnj-Nug0vlXpMP3-66" value="atendentes_clientes" style="swimlane;fontStyle=2;align=center;verticalAlign=top;childLayout=stackLayout;horizontal=1;startSize=26;horizontalStack=0;resizeParent=1;resizeLast=0;collapsible=1;marginBottom=0;rounded=0;shadow=0;strokeWidth=1;" parent="WIyWlLk6GJQsqaUBKTNV-1" vertex="1">
          <mxGeometry x="9" y="770" width="140" height="135" as="geometry">
            <mxRectangle x="230" y="140" width="160" height="26" as="alternateBounds" />
          </mxGeometry>
        </mxCell>
        <mxCell id="PshAYlnj-Nug0vlXpMP3-67" value="idatendentecliente" style="text;html=1;align=left;verticalAlign=middle;resizable=0;points=[];autosize=1;strokeColor=none;fillColor=none;spacing=0;" parent="PshAYlnj-Nug0vlXpMP3-66" vertex="1">
          <mxGeometry y="26" width="140" height="20" as="geometry" />
        </mxCell>
        <mxCell id="PshAYlnj-Nug0vlXpMP3-68" value="fk_idcliente" style="text;html=1;align=left;verticalAlign=middle;resizable=0;points=[];autosize=1;strokeColor=none;fillColor=none;spacing=0;" parent="PshAYlnj-Nug0vlXpMP3-66" vertex="1">
          <mxGeometry y="46" width="140" height="20" as="geometry" />
        </mxCell>
        <mxCell id="PshAYlnj-Nug0vlXpMP3-69" value="fk_idatendente" style="text;html=1;align=left;verticalAlign=middle;resizable=0;points=[];autosize=1;strokeColor=none;fillColor=none;spacing=0;" parent="PshAYlnj-Nug0vlXpMP3-66" vertex="1">
          <mxGeometry y="66" width="140" height="20" as="geometry" />
        </mxCell>
        <mxCell id="PshAYlnj-Nug0vlXpMP3-70" value="dataupdate" style="text;html=1;align=left;verticalAlign=middle;resizable=0;points=[];autosize=1;strokeColor=none;fillColor=none;spacing=0;" parent="PshAYlnj-Nug0vlXpMP3-66" vertex="1">
          <mxGeometry y="86" width="140" height="20" as="geometry" />
        </mxCell>
        <mxCell id="PshAYlnj-Nug0vlXpMP3-71" value="datacreate" style="text;html=1;align=left;verticalAlign=middle;resizable=0;points=[];autosize=1;strokeColor=none;fillColor=none;spacing=0;" parent="PshAYlnj-Nug0vlXpMP3-66" vertex="1">
          <mxGeometry y="106" width="140" height="20" as="geometry" />
        </mxCell>
        <mxCell id="PshAYlnj-Nug0vlXpMP3-74" value="1...1" style="text;html=1;align=center;verticalAlign=middle;resizable=0;points=[];autosize=1;strokeColor=none;fillColor=none;" parent="WIyWlLk6GJQsqaUBKTNV-1" vertex="1">
          <mxGeometry x="190" y="940" width="50" height="30" as="geometry" />
        </mxCell>
        <mxCell id="PshAYlnj-Nug0vlXpMP3-75" value="n...1" style="text;html=1;align=center;verticalAlign=middle;resizable=0;points=[];autosize=1;strokeColor=none;fillColor=none;" parent="WIyWlLk6GJQsqaUBKTNV-1" vertex="1">
          <mxGeometry x="250" y="900" width="50" height="30" as="geometry" />
        </mxCell>
        <mxCell id="PshAYlnj-Nug0vlXpMP3-77" value="1....n" style="text;html=1;align=center;verticalAlign=middle;resizable=0;points=[];autosize=1;strokeColor=none;fillColor=none;" parent="WIyWlLk6GJQsqaUBKTNV-1" vertex="1">
          <mxGeometry x="115" y="230" width="50" height="30" as="geometry" />
        </mxCell>
        <mxCell id="PshAYlnj-Nug0vlXpMP3-78" value="n....1" style="text;html=1;align=center;verticalAlign=middle;resizable=0;points=[];autosize=1;strokeColor=none;fillColor=none;" parent="WIyWlLk6GJQsqaUBKTNV-1" vertex="1">
          <mxGeometry x="645" y="225" width="50" height="30" as="geometry" />
        </mxCell>
        <mxCell id="PshAYlnj-Nug0vlXpMP3-80" value="pedidos_cardapios" style="swimlane;fontStyle=2;align=center;verticalAlign=top;childLayout=stackLayout;horizontal=1;startSize=26;horizontalStack=0;resizeParent=1;resizeLast=0;collapsible=1;marginBottom=0;rounded=0;shadow=0;strokeWidth=1;" parent="WIyWlLk6GJQsqaUBKTNV-1" vertex="1">
          <mxGeometry x="334" y="240" width="160" height="150" as="geometry">
            <mxRectangle x="230" y="140" width="160" height="26" as="alternateBounds" />
          </mxGeometry>
        </mxCell>
        <mxCell id="PshAYlnj-Nug0vlXpMP3-81" value="idpedidocardapio" style="text;html=1;align=left;verticalAlign=middle;resizable=0;points=[];autosize=1;strokeColor=none;fillColor=none;spacing=0;" parent="PshAYlnj-Nug0vlXpMP3-80" vertex="1">
          <mxGeometry y="26" width="160" height="20" as="geometry" />
        </mxCell>
        <mxCell id="PshAYlnj-Nug0vlXpMP3-86" value="nota" style="text;html=1;align=left;verticalAlign=middle;resizable=0;points=[];autosize=1;strokeColor=none;fillColor=none;spacing=0;" parent="PshAYlnj-Nug0vlXpMP3-80" vertex="1">
          <mxGeometry y="46" width="160" height="20" as="geometry" />
        </mxCell>
        <mxCell id="PshAYlnj-Nug0vlXpMP3-84" value="dataupdate" style="text;html=1;align=left;verticalAlign=middle;resizable=0;points=[];autosize=1;strokeColor=none;fillColor=none;spacing=0;" parent="PshAYlnj-Nug0vlXpMP3-80" vertex="1">
          <mxGeometry y="66" width="160" height="20" as="geometry" />
        </mxCell>
        <mxCell id="PshAYlnj-Nug0vlXpMP3-85" value="datacreate" style="text;html=1;align=left;verticalAlign=middle;resizable=0;points=[];autosize=1;strokeColor=none;fillColor=none;spacing=0;" parent="PshAYlnj-Nug0vlXpMP3-80" vertex="1">
          <mxGeometry y="86" width="160" height="20" as="geometry" />
        </mxCell>
        <mxCell id="PshAYlnj-Nug0vlXpMP3-83" value="fk_idcardapio" style="text;html=1;align=left;verticalAlign=middle;resizable=0;points=[];autosize=1;strokeColor=none;fillColor=none;spacing=0;" parent="PshAYlnj-Nug0vlXpMP3-80" vertex="1">
          <mxGeometry y="106" width="160" height="20" as="geometry" />
        </mxCell>
        <mxCell id="PshAYlnj-Nug0vlXpMP3-82" value="fk_idpedido" style="text;html=1;align=left;verticalAlign=middle;resizable=0;points=[];autosize=1;strokeColor=none;fillColor=none;spacing=0;" parent="PshAYlnj-Nug0vlXpMP3-80" vertex="1">
          <mxGeometry y="126" width="160" height="20" as="geometry" />
        </mxCell>
        <mxCell id="PshAYlnj-Nug0vlXpMP3-91" value="1...n" style="text;html=1;align=center;verticalAlign=middle;resizable=0;points=[];autosize=1;strokeColor=none;fillColor=none;" parent="WIyWlLk6GJQsqaUBKTNV-1" vertex="1">
          <mxGeometry x="200" y="415" width="50" height="30" as="geometry" />
        </mxCell>
        <mxCell id="PshAYlnj-Nug0vlXpMP3-93" value="1...1" style="text;html=1;align=center;verticalAlign=middle;resizable=0;points=[];autosize=1;strokeColor=none;fillColor=none;" parent="WIyWlLk6GJQsqaUBKTNV-1" vertex="1">
          <mxGeometry x="355" y="620" width="50" height="30" as="geometry" />
        </mxCell>
        <mxCell id="PshAYlnj-Nug0vlXpMP3-105" value="1...n" style="text;html=1;align=center;verticalAlign=middle;resizable=0;points=[];autosize=1;strokeColor=none;fillColor=none;" parent="WIyWlLk6GJQsqaUBKTNV-1" vertex="1">
          <mxGeometry x="415" y="625" width="50" height="30" as="geometry" />
        </mxCell>
        <mxCell id="PshAYlnj-Nug0vlXpMP3-106" value="1...1" style="text;html=1;align=center;verticalAlign=middle;resizable=0;points=[];autosize=1;strokeColor=none;fillColor=none;" parent="WIyWlLk6GJQsqaUBKTNV-1" vertex="1">
          <mxGeometry x="440" y="500" width="50" height="30" as="geometry" />
        </mxCell>
        <mxCell id="PshAYlnj-Nug0vlXpMP3-108" value="1...n" style="text;html=1;align=center;verticalAlign=middle;resizable=0;points=[];autosize=1;strokeColor=none;fillColor=none;" parent="WIyWlLk6GJQsqaUBKTNV-1" vertex="1">
          <mxGeometry x="769" y="285" width="50" height="30" as="geometry" />
        </mxCell>
        <mxCell id="PshAYlnj-Nug0vlXpMP3-109" value="n....1" style="text;html=1;align=center;verticalAlign=middle;resizable=0;points=[];autosize=1;strokeColor=none;fillColor=none;" parent="WIyWlLk6GJQsqaUBKTNV-1" vertex="1">
          <mxGeometry x="719" y="1048" width="50" height="30" as="geometry" />
        </mxCell>
        <mxCell id="PshAYlnj-Nug0vlXpMP3-120" style="edgeStyle=orthogonalEdgeStyle;rounded=0;orthogonalLoop=1;jettySize=auto;html=1;exitX=0.5;exitY=1;exitDx=0;exitDy=0;entryX=0.547;entryY=-0.016;entryDx=0;entryDy=0;entryPerimeter=0;" parent="WIyWlLk6GJQsqaUBKTNV-1" source="PshAYlnj-Nug0vlXpMP3-110" target="u3Uz-xfAxrAcPL_QBlM--8" edge="1">
          <mxGeometry relative="1" as="geometry" />
        </mxCell>
        <mxCell id="PshAYlnj-Nug0vlXpMP3-124" style="edgeStyle=orthogonalEdgeStyle;rounded=0;orthogonalLoop=1;jettySize=auto;html=1;exitX=0.5;exitY=0;exitDx=0;exitDy=0;" parent="WIyWlLk6GJQsqaUBKTNV-1" source="PshAYlnj-Nug0vlXpMP3-110" edge="1">
          <mxGeometry relative="1" as="geometry">
            <mxPoint x="740" y="379.9999999999999" as="targetPoint" />
            <Array as="points">
              <mxPoint x="700" y="640" />
              <mxPoint x="740" y="640" />
            </Array>
          </mxGeometry>
        </mxCell>
        <mxCell id="PshAYlnj-Nug0vlXpMP3-110" value="cardapiosingredientes" style="swimlane;fontStyle=2;align=center;verticalAlign=top;childLayout=stackLayout;horizontal=1;startSize=26;horizontalStack=0;resizeParent=1;resizeLast=0;collapsible=1;marginBottom=0;rounded=0;shadow=0;strokeWidth=1;" parent="WIyWlLk6GJQsqaUBKTNV-1" vertex="1">
          <mxGeometry x="620" y="710" width="160" height="140" as="geometry">
            <mxRectangle x="230" y="140" width="160" height="26" as="alternateBounds" />
          </mxGeometry>
        </mxCell>
        <mxCell id="PshAYlnj-Nug0vlXpMP3-117" value="idcardapioingrediente" style="text;html=1;align=left;verticalAlign=middle;resizable=0;points=[];autosize=1;strokeColor=none;fillColor=none;spacing=0;" parent="PshAYlnj-Nug0vlXpMP3-110" vertex="1">
          <mxGeometry y="26" width="160" height="20" as="geometry" />
        </mxCell>
        <mxCell id="PshAYlnj-Nug0vlXpMP3-111" value="fk_idingrediente" style="text;html=1;align=left;verticalAlign=middle;resizable=0;points=[];autosize=1;strokeColor=none;fillColor=none;spacing=0;" parent="PshAYlnj-Nug0vlXpMP3-110" vertex="1">
          <mxGeometry y="46" width="160" height="20" as="geometry" />
        </mxCell>
        <mxCell id="PshAYlnj-Nug0vlXpMP3-118" value="fk_cardapio" style="text;html=1;align=left;verticalAlign=middle;resizable=0;points=[];autosize=1;strokeColor=none;fillColor=none;spacing=0;" parent="PshAYlnj-Nug0vlXpMP3-110" vertex="1">
          <mxGeometry y="66" width="160" height="20" as="geometry" />
        </mxCell>
        <mxCell id="PshAYlnj-Nug0vlXpMP3-115" value="datacreate" style="text;html=1;align=left;verticalAlign=middle;resizable=0;points=[];autosize=1;strokeColor=none;fillColor=none;spacing=0;" parent="PshAYlnj-Nug0vlXpMP3-110" vertex="1">
          <mxGeometry y="86" width="160" height="20" as="geometry" />
        </mxCell>
        <mxCell id="PshAYlnj-Nug0vlXpMP3-116" value="dataupdate" style="text;html=1;align=left;verticalAlign=middle;resizable=0;points=[];autosize=1;strokeColor=none;fillColor=none;spacing=0;" parent="PshAYlnj-Nug0vlXpMP3-110" vertex="1">
          <mxGeometry y="106" width="160" height="20" as="geometry" />
        </mxCell>
      </root>
    </mxGraphModel>
  </diagram>
</mxfile>
